<?xml version="1.0" encoding="UTF-8"?> <svg xmlns="http://www.w3.org/2000/svg" version="1.1" viewBox="0 0 1219.8 158.3"><defs><style> .cls-1 { fill: #231f20; } </style></defs><g><g id="Layer_1"><g><path class="cls-1" d="M46.9,48.5v-.3c10.1-1,28.1-2.9,28.1-24.2S63.4,2.2,42.6,2.2H0v2.2h13.3v93.6H0v2.2h47.8c13.1,0,29.9-7.5,29.9-26.3s-15.5-24.2-30.7-25.5M27.5,4.5h7.3c20.4,0,26,13.5,26,20.9,0,18.9-11.3,21.7-24,21.7h-9.2V4.5ZM39.2,98h-11.7v-48.7h7.5c15.9,0,26.7,7.8,26.7,23.4s-7.8,25.3-22.5,25.3"></path><path class="cls-1" d="M409,98h-19.1v-46.5h10.3c14.7,0,16.1,6.4,16.1,17h2.2V31.5h-2.2c0,9.1-1.4,17.8-15.9,17.8h-10.5V4.5h21.9c14.8,0,25.4,5.4,25.4,21.4h2.2l-1.7-23.7h-108.4v2.2h6.6c6.1,0,7.3,1.8,7.3,7.5v62.9h-.3L290.1,2.2h-29.3v2.2h13.4v85.6c0,6.7-2.2,7.9-8.7,7.9h-14.4c-2.4,0-6.3-.6-7.3-8.8l-2-16.2c-2.1-18.4-10.6-21.9-26.7-23.3v-.3c10.2-1.3,29.9-5.7,29.9-22.7S227.7,2.2,211.6,2.2h-44.9v2.2h14v93.6h-25.3L122.3,2.2h-3.1l-29.3,87.6c-2.7,7.8-4.5,8.2-8.8,8.2h-4.5v2.2h28.8v-2.2h-7.3c-4.5,0-6.1-1.5-6.1-3.5s1.1-5.7,2.1-8.5l5.7-17.5h29.9l10.1,29.5h-13.7v2.2h85.1v-2.2h-16.2v-47.1h11.1c15.8,0,18.3,7.9,19.3,16.7l1,8.4c2,16,2.9,24.2,20,24.2h44.4v-2.2h-5.6c-6.4,0-8.7-1.3-8.7-7.9V8.9h.3l66.3,91.3h2.4V12c0-5.7,1.1-7.5,7.3-7.5h22.9v93.6h-12.3v2.2h81.4v-28.5h-2.2c0,23.7-10.9,26.3-33.5,26.3M100.7,66.3l13.7-42.2h.3l14.4,42.2h-28.3ZM203.9,48.7h-9V4.5h11.5c19.8,0,23.6,11.3,23.6,22.4,0,16.2-9.6,21.9-26.1,21.9"></path><path class="cls-1" d="M487.5,42.3c-23.2-4.2-27.9-7-27.9-19.5s8.4-20.6,20.2-20.6c18.7,0,27.4,14.3,28.6,30.2h2.2V3.2h-2.2c-.4,1.8-.8,5.3-4.1,5.3-4.7,0-10.2-8.5-24.6-8.5s-26.1,11.6-26.1,27.4c0,23.4,10.3,27,32.3,30.5,16.1,2.5,23.6,6.8,23.6,21.3s-9.6,21-23,21-30.6-11-30.6-34.4h-2.2v35.2h2.2c0-2.4.1-5.9,3.5-5.9,5.2,0,12.6,7.2,26.5,7.2,20.2,0,30.3-13.6,30.3-31.9s-8.4-24.6-28.8-28.3"></path><rect class="cls-1" x="93.3" y="142.2" width="2" height="16"></rect><polygon class="cls-1" points="105.2 146 105.2 158.2 103.2 158.2 103.2 142.2 104.9 142.2 114.7 154.7 114.7 142.3 116.7 142.3 116.7 158.2 114.9 158.2 105.2 146"></polygon><polygon class="cls-1" points="136.1 144 130.6 144 130.6 158.2 128.6 158.2 128.6 144 123.1 144 123.1 142.2 136.1 142.2 136.1 144"></polygon><polygon class="cls-1" points="153.3 156.4 153.3 158.2 142.5 158.2 142.5 142.2 153.1 142.2 153.1 144 144.5 144 144.5 149.2 152 149.2 152 150.9 144.5 150.9 144.5 156.4 153.3 156.4"></polygon><path class="cls-1" d="M160.1,158.2v-16h6.8c.7,0,1.4.1,1.9.4.6.3,1.1.7,1.5,1.2.4.5.8,1,1,1.6.2.6.4,1.2.4,1.9s-.1,1.4-.4,2.1c-.3.7-.7,1.2-1.2,1.7-.5.5-1.1.8-1.8,1l3.9,6.1h-2.3l-3.6-5.7h-4.2v5.7h-2ZM162.1,150.7h4.8c.6,0,1-.2,1.5-.5.4-.3.7-.7,1-1.2.2-.5.3-1.1.3-1.6s-.1-1.2-.4-1.7c-.3-.5-.6-.9-1.1-1.2-.4-.3-.9-.5-1.4-.5h-4.7v6.6Z"></path><polygon class="cls-1" points="181 146 181 158.2 179 158.2 179 142.2 180.7 142.2 190.4 154.7 190.4 142.3 192.5 142.3 192.5 158.2 190.6 158.2 181 146"></polygon><path class="cls-1" d="M205.2,142.2h1.7l6.5,16h-2.2l-1.8-4.7h-6.9l-1.8,4.7h-2.2l6.5-16ZM208.9,152l-2.8-7.4-2.8,7.4h5.7Z"></path><polygon class="cls-1" points="229.6 144 224.1 144 224.1 158.2 222.1 158.2 222.1 144 216.6 144 216.6 142.2 229.6 142.2 229.6 144"></polygon><rect class="cls-1" x="236" y="142.2" width="2" height="16"></rect><path class="cls-1" d="M252.3,158.3c-1.1,0-2.1-.2-3.1-.7-.9-.4-1.7-1.1-2.4-1.8-.7-.8-1.2-1.6-1.5-2.6-.4-1-.5-2-.5-3s.2-2.1.6-3c.4-1,.9-1.8,1.6-2.6.7-.8,1.5-1.4,2.4-1.8.9-.4,1.9-.7,3-.7s2.1.2,3.1.7c.9.5,1.7,1.1,2.4,1.9.7.8,1.2,1.7,1.5,2.6.4,1,.5,1.9.5,2.9s-.2,2.1-.6,3c-.4,1-.9,1.8-1.6,2.6-.7.8-1.5,1.4-2.4,1.8-.9.4-1.9.7-3,.7M246.9,150.2c0,.8.1,1.6.4,2.4.3.8.6,1.4,1.1,2,.5.6,1.1,1,1.7,1.4.7.3,1.4.5,2.2.5s1.6-.2,2.3-.5c.7-.4,1.2-.8,1.7-1.4.5-.6.8-1.3,1.1-2,.2-.8.4-1.5.4-2.3s-.1-1.6-.4-2.3c-.3-.8-.6-1.4-1.1-2-.5-.6-1.1-1.1-1.7-1.4-.7-.3-1.4-.5-2.2-.5s-1.6.2-2.3.5c-.7.4-1.2.8-1.7,1.4-.5.6-.8,1.3-1.1,2-.3.7-.4,1.5-.4,2.3"></path><polygon class="cls-1" points="268.8 146 268.8 158.2 266.7 158.2 266.7 142.2 268.5 142.2 278.2 154.7 278.2 142.3 280.2 142.3 280.2 158.2 278.4 158.2 268.8 146"></polygon><path class="cls-1" d="M293,142.2h1.7l6.5,16h-2.2l-1.8-4.7h-6.9l-1.8,4.7h-2.2l6.5-16ZM296.7,152l-2.8-7.4-2.8,7.4h5.7Z"></path><polygon class="cls-1" points="307.4 158.2 307.4 142.2 309.4 142.2 309.4 156.4 318.3 156.4 318.3 158.2 307.4 158.2"></polygon><path class="cls-1" d="M333.7,158.2v-16h6.8c.7,0,1.4.1,1.9.4.6.3,1.1.7,1.5,1.2.4.5.8,1,1,1.6.2.6.4,1.2.4,1.9s-.1,1.4-.4,2.1c-.3.7-.7,1.2-1.2,1.7-.5.5-1.1.8-1.8,1l3.9,6.1h-2.3l-3.6-5.7h-4.2v5.7h-2ZM335.7,150.7h4.8c.6,0,1-.2,1.5-.5.4-.3.7-.7,1-1.2.2-.5.3-1.1.3-1.6s-.1-1.2-.4-1.7c-.3-.5-.6-.9-1.1-1.2-.4-.3-.9-.5-1.4-.5h-4.7v6.6Z"></path><polygon class="cls-1" points="363.3 156.4 363.3 158.2 352.5 158.2 352.5 142.2 363.1 142.2 363.1 144 354.5 144 354.5 149.2 362 149.2 362 150.9 354.5 150.9 354.5 156.4 363.3 156.4"></polygon><path class="cls-1" d="M375,142.2h1.7l6.5,16h-2.2l-1.8-4.7h-6.9l-1.8,4.7h-2.2l6.5-16ZM378.7,152l-2.8-7.4-2.8,7.4h5.7Z"></path><polygon class="cls-1" points="389.4 158.2 389.4 142.2 391.5 142.2 391.5 156.4 400.4 156.4 400.4 158.2 389.4 158.2"></polygon><polygon class="cls-1" points="415.7 144 410.2 144 410.2 158.2 408.2 158.2 408.2 144 402.6 144 402.6 142.2 415.7 142.2 415.7 144"></polygon><polygon class="cls-1" points="422.7 142.2 427.5 150.6 432.4 142.2 434.6 142.2 428.5 152.4 428.5 158.2 426.5 158.2 426.5 152.3 420.4 142.2 422.7 142.2"></polygon><polyline class="cls-1" points="619.7 2.2 619.7 158.3 617.7 158.3 617.7 2.2"></polyline></g><path class="cls-1" d="M805.1,3.9c0,1.4-2.3,1.3-3.5,1.3h-3.1c0-.1-2.5-.1-2.5-.1-2.2,0-2.5.5-2.7.8-.4.8-.4,3.4-.4,4.7v80.9c0,7.4,0,8.3-.1,8.7-.1,1.3-.6,1.3-.8,1.3-.8,0-1.6-1-2-1.5l-18-26.3c-15.6-22.9-30.5-45.7-37.9-57.2v78.4c.3,1.8,1.6,2.2,2.2,2.3,2,.5,6.9.6,9.4.6,1.8,0,1.8.7,1.8,1.1,0,1.4-2.4,1.4-3.7,1.4s-5.8-.3-8-.4c-2.2-.1-3.7-.1-4.4-.1.1,0-1.6.2-2.5.3-2.6.3-6.2.3-7.9.3h-1.4c-3.2,0-3.2-.8-3.2-1.3,0-1.3,1.9-1.3,2.8-1.3,8.3-.1,9.2-.7,9.6-1.1,1.3-.9,1.3-4.3,1.3-6V21.5c0-11.7-3.2-13.6-4.8-14.6-2.2-1.4-6.1-1.4-8-1.4-3.7,0-3.7-.9-3.7-1.4,0-1.3,1.4-1.3,2.1-1.3,2.8,0,5.7,0,7.2.1,4.4.1,4.5.1,4.6.1.4,0,2.8,0,3.9-.1,4.6,0,7.5,0,9-.1l48.5,72V12.3c0-4.4,0-5-.1-5.3-.1-.9-.8-1.2-1.1-1.4-1-.5-4.8-.5-6.7-.5-5.1,0-5.1-.8-5.1-1.3,0-1.4,2.2-1.4,3.4-1.4h8.8c2.2.1,2.5.1,2.7.1s1.7,0,2.5-.1h8.6c3.1,0,3.1.9,3.1,1.4"></path><path class="cls-1" d="M847.4,56.2c-.6-16.9-8.2-16.9-12.1-16.9-11.4,0-13.2,11.2-14.2,16.9h26.3ZM859.6,84.8c0,1.4-1.5,3.8-2.2,5-2.2,3.6-3.7,5.1-4.4,5.8-6,6.2-12.8,6.2-16.2,6.2-12.6,0-18.3-6.1-21.1-9.1-8.5-9.1-8.5-18.1-8.5-22.6,0-14,5.4-20.3,8.1-23.5,8.1-9.4,16.1-9.4,20.2-9.4,10,0,14.5,3.9,16.7,5.8,6.7,5.8,7,11.9,7.2,15-4.5.7-9.5.6-11.9.6h-9.8c-1-.1-11.6.1-16.9.3-.7,4.6-.7,7.4-.7,8.8,0,14.2,3.6,19.3,5.4,21.8,5.4,7.7,12,7.7,15.2,7.7,5.6,0,7.9-1.7,9-2.5,3.4-2.5,6-7.3,7.3-9.7.6-1.1,1.2-1.1,1.5-1.1,1.1,0,1.1.7,1.1,1"></path><path class="cls-1" d="M947.7,39.9c0,1.1-1.4,1.1-2.1,1.1-1.5,0-2.2,0-2.5-.1h-1.1c-2.9,0-4.7,5.5-5.6,8.3-1.5,5.3-2.5,8.9-3,10.7l-4.4,14c-2.4,7.3-5.5,18-7,23.3-1.3,4.8-2,4.8-2.4,4.8-1,0-2-2.3-2.5-3.5-1.5-3.5-5.5-14.6-7.5-20.1-1.5-4.4-3.6-9.9-4.6-12.6-2.1-5.5-2.9-7.9-3.2-9.1-5.5,15.4-11.3,34.3-14.2,43.7-.6,1.7-1.3,1.7-1.7,1.7-1.1,0-1.7-1.4-2-2.1-.3-1-1.2-3.5-1.7-4.8l-3.4-9c-1.4-3.7-4.1-12.2-5.5-16.4-4.1-12.8-4.5-14.4-4.8-15.2-3.9-11.2-5.1-12.4-5.8-12.9-1.3-.6-3.5-.6-4.6-.6-3.3,0-3.3-.8-3.3-1.3,0-1,1-1,1.5-1h6c4.6.1,8.3.1,10.1.1s3.8,0,4.6-.1h4.6c2,0,2,.7,2,1.1,0,1.3-.9,1.3-1.4,1.3h-3.5c-3.4-.3-3.4.7-3.4,1.3,0,1.3,1.8,6.3,2.7,8.8,4.6,13.2,8.8,26.5,11,33.1,6-19.7,9.3-29.1,11-33.8.7-2.1,1.7-5.2,2.2-6.7,1.5-5.3,2.5-5.3,2.9-5.3,1.4,0,2.4,3.3,3,4.9,2.5,8.3,8.1,23.9,11,31.7,1.1,3.1,2.5,7.2,3.2,9.3l12.6-42.4c0-1.1-1.1-1.1-1.7-1.1s-2.9,0-4.1.1c-1.5,0-1.5-.8-1.5-1.1,0-1.1,1.3-1.1,2-1.1h16.2c1.7,0,1.7.7,1.7,1.1"></path><path class="cls-1" d="M1047.7,3.8c0,1.1-1.6,1.1-2.4,1.1-7.7.1-8.9,1.8-9.5,2.7-1.7,1.5-8.6,16.4-12.1,23.9-4.6,10-7.3,15-8.7,17.6-2.8,5.2-3.1,6.5-3.2,7.1-.4,1.9-.4,6.1-.4,8.2v26.5c0,4.6.8,5.2,1.2,5.5,1.2.8,6,1.1,8.4,1.3,3.8.3,3.8,1,3.8,1.4,0,1.1-1.3,1.1-2,1.1h-1.7l-19.7-.4c-8.3,0-11.8.2-13.6.3-.8.1-1.6.1-2,.1-2,0-2-.8-2-1.3,0-1.3,2.2-1.4,3.2-1.4,7.7-.3,8.7-1,9.1-1.4,1.4-1.1,1.4-4.9,1.4-6.7v-29.6c-1.4-3.1-5.9-12-8.1-16.4l-14-27.8c-2.1-4.1-4.1-7.4-5.1-9.1-1.5-1.4-5-1.4-6.7-1.4-5.1,0-5.1-1-5.1-1.5,0-1.1,1.5-1.1,2.2-1.1,2.9,0,8.8.2,11.8.3,5.1.1,6.6.1,7.3.1h16.3c1-.3,1.8-.3,2.2-.3,2.5,0,2.5.9,2.5,1.4,0,1.3-3.2,1.3-4.8,1.3-8.7,0-8.7,2.1-8.7,3.1,0,2.4,5.9,13.6,8.8,19.2l12.8,24.3c3.5-6.3,6.5-12.5,8-15.6l8.3-16.7c4.6-9,4.6-10.9,4.6-11.8,0-1.8-1.6-2-2.4-2.1-4.9-.7-6-.6-6.6-.6-3.1.1-3.1-.9-3.1-1.4,0-1.1,1.8-1.1,2.7-1.1h8.1c0,.1,4.6,0,4.6,0,14.3-.4,14.3.8,14.3,1.4"></path><path class="cls-1" d="M1092.3,69.6c0-15.4-3.2-21.2-4.8-24-3.5-6.3-9-6.3-11.8-6.3-7.9,0-10.8,5.4-12.3,8.1-4.4,8.1-4.4,17.6-4.4,22.4,0,14.2,3.1,19.5,4.7,22.1,4.7,7.9,10.3,7.9,13.1,7.9,6.5,0,8.5-3.3,9.5-4.9,5.9-9.3,5.9-19.9,5.9-25.3M1105.1,69.8c0,13.6-5.5,19.8-8.3,22.8-8.3,9.2-16.5,9.2-20.6,9.2-12.8,0-18.5-6.1-21.3-9.2-8.6-9.2-8.6-18.3-8.6-22.8,0-14,5.6-20.2,8.4-23.3,8.4-9.3,16.7-9.3,20.9-9.3,12.6,0,18.3,6.2,21.1,9.3,8.5,9.3,8.5,18.6,8.5,23.2"></path><path class="cls-1" d="M1152.4,46.7c0,3.2-1.3,4.6-2,5.3-2,2.1-4,2.1-5.1,2.1-2.5,0-3.7-1-4.2-1.5-1.7-1.5-1.7-3-1.7-3.7,0-2,.8-2.9,1.3-3.4,1.3-1.4,1.3-1.8,1.3-2,0-2.1-2.1-2.1-3.1-2.1-3.9,0-5.8,3.3-6.7,4.9-3.2,5.8-3.2,16.1-3.2,21.3v27.8c0,1.7.8,2,1.2,2.1,1.2.4,5.2.5,7.2.6,1.5.3,1.5.8,1.5,1.1,0,1-1.2,1-1.8,1-3.2,0-5.1,0-6-.1-2.8-.1-8.1-.1-10.7-.1-4.1,0-5.3,0-5.9.1-1.8.1-3.7.1-4.6.1-2.2,0-2.2-.7-2.2-1,0-1,1.2-1,1.8-1h2c4.8,0,5.3-.7,5.6-1.1.3-.6.3-3.7.3-5.2v-38.6c0-7.7-1.5-8.5-2.3-8.9-2.3-1.2-5.7-1.3-7.4-1.3-1.7,0-1.7-.7-1.7-1,0-1,.9-1,1.4-1h1c2.1,0,3.5.1,4.2.2,2.1.2,1.9.2,1.8.2,5.2,0,9.4-2,11.5-2.9l1.8-.8,1.1-.4c.6,3.4.6,5.6.6,6.7v2.8c4.5-9.8,9.9-9.8,12.6-9.8,4.5,0,6.5,1.8,7.4,2.7,2.9,2.7,2.9,5.5,2.9,6.8"></path><path class="cls-1" d="M1219.8,99.1c0,1-3.5,1-5.2,1-4.1,0-6.4,0-7.6-.1-7.2-.3-8.9-.3-9.8-.3-1.8,0-4.3.2-5.5.3-3.7.3-4.9.3-5.5.3-1.3,0-1.3-.7-1.3-1,0-1.1,1.8-1.1,2.7-1.1,6.7,0,6.7-1.5,6.7-2.2,0-2-15.7-19.6-23.6-28.4v28.6c.3,2.1,2.8,2,4.1,2h3.8c1.8-.1,1.8.6,1.8,1,0,1.3-2.1,1.3-3.1,1.3.3,0-.4,0-.7-.1h-3.4c-3.4-.1-7.2-.1-9.1-.1h-11c-3.4,0-3.4-.7-3.4-1.1,0-.7.4-.8.6-.8.6-.1,3.4-.2,4.8-.3,3.4-.1,3.5-1.1,3.5-1.5.3-1,.3-5.2.3-7.3V20.3c0-11.1,0-11.4-.1-11.5-.3-1-2.8-1-4.1-1h-1.4c-1,.1-1.8.1-2.2.1-1.5,0-1.5-.7-1.5-1.1,0-1.1,2.2-1.1,3.2-1.1,6.7-.1,11.6-2.8,14-4.1,1.7-1,2.1-1,2.2-1,1.5,0,1.5,7.8,1.5,11.7v51.8c22.8-20.4,22.8-21.8,22.8-22.5s-3.7-.8-5.5-.8h-.8c-.8.1-1.7.1-2.1.1h-1.4c-2.5,0-2.5-.7-2.5-1.1,0-1.3,2.9-1.3,4.4-1.3h11c0,.1,8.7.1,8.7.1,5.1,0,5.6,0,5.9.1.8.1.8.7.8,1,0,1-4.4,1.1-6.6,1.1-4.8.1-5.4.5-5.8.7-1.7,1-2.7,2-3.2,2.5l-17.6,17c19.5,21.3,25,28,27.7,31.3,3.4,4.1,4.7,4.6,5.3,4.9,1.5.7,5.1.6,6.9.6,1.3,0,1.3.7,1.3,1.1"></path></g></g></svg> 