<svg xmlns="http://www.w3.org/2000/svg" width="123" height="32"><defs/><defs><linearGradient id="a" x1="50%" x2="50%" y1="0%" y2="100%"><stop offset="0%" stop-color="#AFC0D2"/><stop offset="14%" stop-color="#AFC0D2"/><stop offset="50%" stop-color="#FFD239"/><stop offset="100%" stop-color="#F2717C"/></linearGradient></defs><g fill="none" fill-rule="nonzero"><path fill="#231F20" d="M9 14.9c-1.5 2-3.2 3.4-5.4 3.4-2.3 0-3.6-1.4-3.6-3.7C0 9.1 6 0 11.9 0c1.8 0 2.4 1 2.4 1.7 0 1-.5 1.6-1.4 1.6-.6 0-1-.4-1-1s.4-.8.4-1.2c0-.4-.2-.8-.7-.8-2.4 0-4.3 2.8-5.3 4.5-1.4 2.3-4 8.3-4 11 0 1 .5 2.1 1.8 2.1 1.7 0 3.4-1.5 4.7-3.2l.2.2zM52.4 14.9c-1.5 2-3.3 3.4-5.4 3.4-2.3 0-3.6-1.4-3.6-3.7 0-5.5 6-14.6 11.8-14.6 1.9 0 2.5 1 2.5 1.7 0 1-.5 1.6-1.5 1.6-.6 0-1-.4-1-1s.5-.8.5-1.2c0-.4-.2-.8-.7-.8-2.5 0-4.4 2.8-5.4 4.5-1.3 2.3-4 8.3-4 11 0 1 .6 2.1 1.8 2.1 1.7 0 3.4-1.5 4.8-3.2l.2.2zM18.2 18.3c-3.2 0-4.3-3-4.3-6C14 7.7 18.5 0 24 0c2.4 0 4.3 1.7 4.3 6 0 4.8-4.3 12.3-10 12.3zm6-18c-3.8 0-8.5 10.9-8.5 14.9 0 1.6.6 2.8 2 2.8 3.7 0 8.7-9.7 8.7-14.7 0-1.6-.4-3-2.3-3zM32.8 3.2c1.8-2 3.5-3.2 4.8-3.2.9 0 1 .7 1 1.6 0 .7-.8 3.2-1.8 5.3 2.4-4.3 5-6.9 7.3-6.9 1.3 0 2.3.6 2.3 2 0 .7-.6 1.5-1.4 1.5-.5 0-1-.3-1.3-1.4-.2-.6-.7-1-1.3-1-1.7 0-4.3 3.9-6 7.2-1.7 3.5-3.4 7.5-4.3 9.6h-2.5l3.6-8.1c1.5-3.6 3-7.1 3-7.7a.6.6 0 00-.5-.7c-.6 0-1.6.8-2.7 2l-.2-.2zM76.1 3.2C78 1.2 79.7 0 81 0c.8 0 1 .7 1 1.6 0 .7-.9 3.2-1.8 5.3C82.6 2.6 85.1 0 87.5 0c1.3 0 2.2.6 2.2 2 0 .7-.5 1.5-1.3 1.5-.6 0-1.1-.3-1.4-1.4-.1-.6-.6-1-1.2-1-1.7 0-4.3 3.9-6 7.2-1.7 3.5-3.5 7.5-4.3 9.6H73l3.5-8.1c1.6-3.6 3.1-7.1 3.1-7.7a.6.6 0 00-.6-.7c-.6 0-1.6.8-2.7 2l-.2-.2zM61.6 18.3c-3.2 0-4.3-3-4.3-6 0-4.6 4.5-12.3 10-12.3 2.4 0 4.2 1.7 4.2 6 0 4.8-4.3 12.3-10 12.3zm5.9-18C63.8.2 59 11.1 59 15.1c0 1.6.6 2.8 2.1 2.8 3.6 0 8.6-9.7 8.6-14.7 0-1.6-.3-3-2.2-3zM102.3 14.5c-2 2.5-4.2 3.8-5.3 3.8-.6 0-1-.3-1-.9 0-1.2.4-2.9 1.9-6.2-3 4.4-5.8 7.1-8.8 7.1-1.8 0-3-1-3-3C86 10.5 94.3 0 100 0c1.3 0 2 .7 2.5 1.7l.6-1.3h2.3l-4.1 8.7c-2.1 4.4-2.9 6.4-2.9 7 0 .6.2.7.6.7.4 0 1.7-1 3-2.5l.2.2zM99.8.3c-4 0-11.1 11.5-11.1 15.1 0 1.5.7 2.2 1.7 2.2 3.9 0 11.2-11.8 11.2-15.4 0-1.3-.6-1.9-1.8-1.9zM120.4 14.9c-2.3 2.6-3.7 3.4-5.1 3.4-.6 0-1-.5-1-1.1 0-1 .8-2.8 3-7.3 1.3-3 3-6.1 3-7.4 0-.4-.2-1.1-.9-1.1-2 0-6.1 4.7-9.3 10.8-1 1.8-1.8 3.7-2.5 5.7h-2.4l3.4-8c2-4.6 2.9-6.8 2.9-7.8 0-.3-.2-.6-.5-.6-.5 0-1.4.6-3 2.7l-.2-.2c2.2-3 3.8-4 5.1-4 .7 0 1 .5 1 1.4 0 1.2-1 4.1-3.2 8.8 2.7-4.6 7-10.2 10.4-10.2 1.1 0 1.7.6 1.7 1.7 0 1.3-1.1 3.8-3.1 8-1.8 3.8-2.7 5.6-2.7 6.3a.6.6 0 00.6.6c.4 0 1.2-.4 2.6-2l.2.3z"/><path fill="url(#a)" d="M60-31.7h2.7V91H60z" transform="rotate(-90 61.4 29.6)"/></g></svg>