<?xml version="1.0" encoding="utf-8"?>
<!-- Generator: Adobe Illustrator 24.1.2, SVG Export Plug-In . SVG Version: 6.00 Build 0)  -->
<svg version="1.1" id="Layer_1" xmlns="http://www.w3.org/2000/svg" xmlns:xlink="http://www.w3.org/1999/xlink" x="0px" y="0px"
	 viewBox="0 0 323 101" style="enable-background:new 0 0 323 101;" xml:space="preserve">
<style type="text/css">
	.st0{fill:#76BC43;}
	.st1{fill:#5B89B5;}
	.st2{fill:#006937;}
	.st3{fill:none;stroke:#F16522;stroke-width:9.830000e-02;}
	.st4{fill:#63656A;}
</style>
<g>
	<g>
		<path class="st0" d="M87.8,29h14.1v3H91.3v11.2h7.9v3h-7.9v15.6h-3.5L87.8,29L87.8,29z"/>
		<path class="st0" d="M105,29h3.3v32.8H105V29z"/>
		<path class="st0" d="M119.5,37.7c5,0,7.2,3.7,7.2,12.3c0,8.5-2.3,12.3-7.2,12.3c-5,0-7.2-3.7-7.2-12.3
			C112.3,41.4,114.6,37.7,119.5,37.7z M119.5,59.5c2.8,0,4-1.7,4-9.5c0-7.8-1.2-9.5-4-9.5c-2.8,0-4,1.7-4,9.5
			C115.6,57.8,116.8,59.5,119.5,59.5z"/>
		<path class="st0" d="M130.6,38.2h3.3V41h0.1c2-2.9,3.4-3.3,6-3.3v3.1c-2.5,0-4.3,0.8-6.1,4.2v16.8h-3.3V38.2z"/>
		<path class="st0" d="M143.7,29h3.3v3.8h-3.3V29z M143.7,38.2h3.3v23.6h-3.3V38.2z"/>
		<path class="st0" d="M162.5,59.5L162.5,59.5c-1.2,1.7-2.9,2.7-4.9,2.7c-3.7,0-6.8-3.2-6.8-12.3s3.1-12.3,6.8-12.3
			c1.8,0,3.3,1.1,4.4,2.2V29h3.3v26.5c0,3.1,0.2,5,0.5,6.4h-3.1L162.5,59.5z M161.9,42.5c-1-1-2.1-2.1-3.5-2.1
			c-2.8,0-4.4,2.3-4.4,9.5c0,7.3,1.7,9.5,4.5,9.5c1,0,2.5-0.9,3.5-2.3L161.9,42.5L161.9,42.5z"/>
		<path class="st0" d="M169.7,45.1c0.2-3.8,2.8-7.4,7-7.4c4.4,0,6.8,2.5,6.8,6.7v13.2c0,2.1,0.2,3.6,0.6,4.2h-3.4l-0.4-2
			c-1.3,1.3-3.5,2.5-5,2.5c-3.7,0-6.1-2.4-6.1-6.1c0-5.8,6.4-8.8,11.1-9.8v-1.7c0-2.6-1.3-4.2-3.4-4.2c-2.5,0-3.7,2.5-4.1,4.6
			L169.7,45.1z M180.2,49.1c-3,0.9-7.9,3.1-7.9,6.8c0,2.2,1,3.6,3.4,3.6c1.8,0,3.3-1.2,4.5-2.5V49.1z"/>
		<path class="st1" d="M189.2,29h7.9c5.3,0,9,3.1,9,8.5c0,3.7-1.6,6.8-5.3,8l5.5,16.3h-3.7l-5.3-15.5l-4.6,0.2v15.4h-3.5V29z
			 M192.7,43.4h3.1c5.1,0,6.7-2,6.7-5.7s-1.6-5.7-6.7-5.7h-3.1V43.4z"/>
		<path class="st1" d="M211.8,50.5v1.3c0,5.8,1.3,7.7,4.4,7.7c2.5,0,3.4-2.2,3.7-4.5h3.1c-0.2,3.6-2.9,7.2-7.2,7.2
			c-5,0-7.2-3.7-7.2-12.3c0-8.5,2.3-12.3,7.2-12.3c5,0,7.2,4.5,7.2,11.3v1.5L211.8,50.5L211.8,50.5z M219.7,47.8
			c-0.1-5.1-1-7.4-4-7.4c-2.4,0-3.9,1.7-4,7.4H219.7z"/>
		<path class="st1" d="M226.5,45.1c0.3-3.7,2.8-7.4,7-7.4c4.4,0,6.8,2.5,6.8,6.7v13.2c0,2.1,0.2,3.6,0.6,4.2h-3.4l-0.4-2
			c-1.3,1.3-3.5,2.5-5,2.5c-3.7,0-6.1-2.4-6.1-6.1c0-5.8,6.4-8.8,11.1-9.8v-1.7c0-2.6-1.3-4.2-3.4-4.2c-2.5,0-3.7,2.5-4.1,4.6
			L226.5,45.1z M237,49.1c-3,0.9-7.9,3.1-7.9,6.8c0,2.2,1,3.6,3.4,3.6c1.8,0,3.3-1.2,4.5-2.5V49.1z"/>
		<path class="st1" d="M245.1,29h3.3v32.8h-3.3V29z"/>
		<path class="st1" d="M251.9,38.2h3.2v-7.9h3.3v7.9h4.4v2.7h-4.4v16.5c0,1.4,0.7,2.4,2.4,2.4c0.6,0,1.5-0.3,2-0.5v2.5
			c-0.9,0.3-1.7,0.5-3.1,0.5c-3.1,0-4.5-1.5-4.5-5.1V40.9h-3.2L251.9,38.2L251.9,38.2z"/>
		<path class="st1" d="M272.1,37.7c5,0,7.2,3.7,7.2,12.3c0,8.5-2.3,12.3-7.2,12.3c-5,0-7.2-3.7-7.2-12.3
			C264.9,41.4,267.1,37.7,272.1,37.7z M272.1,59.5c2.8,0,4-1.7,4-9.5c0-7.8-1.2-9.5-4-9.5c-2.8,0-4,1.7-4,9.5
			C268.1,57.8,269.3,59.5,272.1,59.5z"/>
		<path class="st1" d="M283,38.2h3.3V41h0.1c2-2.9,3.4-3.3,6-3.3v3.1c-2.5,0-4.3,0.8-6.1,4.2v16.8H283V38.2z"/>
		<path class="st1" d="M304.2,44.2c-0.6-2-1.5-3.7-4.1-3.7c-1.5,0-2.6,1.2-2.6,2.8c0,4.8,10,5.1,10,12.5c0,3.7-2.7,6.5-6.5,6.5
			c-4.3,0-6.4-2.3-7.5-6.3l3-0.6c0.7,2.1,1.9,4.2,4.3,4.2c1.8,0,3.4-1.6,3.4-3.6c0-5.5-10-5.5-10-12.5c0-3.1,2.5-5.7,6.1-5.7
			c3.6,0,5.8,2.1,6.6,5.6L304.2,44.2z"/>
	</g>
</g>
<polygon class="st1" points="50.9,16.6 48.3,13.3 36.3,31.2 25.6,16.3 23.5,19.4 36.3,37.6 "/>
<polygon class="st0" points="66.6,32.3 66.6,32.3 66.6,32.3 63,32.2 48.3,13.3 45.7,17.1 45.7,17.1 48.3,20.4 62.9,39.9 57.5,39.4 
	57.5,65.8 66.6,68.2 66.6,40.5 71.2,47.1 74.5,43.2 "/>
<polygon class="st0" points="16,35.9 27.7,19.2 25.6,16.3 25.6,16.3 15.3,31.6 13.1,31.6 13.1,31.6 13.1,31.6 8.8,37.7 10.5,40.4 
	13.1,36.8 13.1,54.3 18.9,55.8 18.9,36.1 "/>
<polygon class="st1" points="32.8,37.3 32.8,59.4 39.9,61.2 39.9,37.9 "/>
<polyline class="st0" points="27.5,47.1 23.8,46.6 23.8,57 27.5,58 27.5,47.1 "/>
<polyline class="st0" points="50.7,50.8 46,50 46,62.8 50.7,64.1 50.7,50.8 "/>
<polygon class="st2" points="25.1,59.1 27.5,58 23.8,57 21.5,58 "/>
<polygon class="st2" points="47.7,65.4 50.7,64.1 46,62.8 43.1,64.1 "/>
<polygon class="st2" points="25.6,16.3 23.5,19.4 25.5,22.2 27.7,19.2 "/>
<polygon class="st2" points="48.3,13.3 45.7,17.1 48.3,20.4 50.9,16.6 "/>
<path class="st0" d="M67.1,24.2c0,2.7-1.6,4.9-3.6,4.9S60,26.9,60,24.2s1.6-4.9,3.6-4.9C65.5,19.3,67.1,21.5,67.1,24.2z"/>
<path class="st1" d="M39.3,23.3c0,2.2-1.3,4-3,4s-3-1.8-3-4s1.3-4,3-4S39.3,21.1,39.3,23.3z"/>
<path class="st0" d="M16.8,26.4c0,1.8-1.1,3.3-2.4,3.3S12,28.2,12,26.4c0-1.8,1.1-3.3,2.4-3.3C15.8,23.1,16.8,24.6,16.8,26.4z"/>
<path class="st3" d="M47.7,65.4"/>
<path class="st3" d="M50.7,64.1"/>
<g>
	<path class="st4" d="M94.5,73.5v1.2h-2.7v11.8h-1.4V74.7h-2.7v-1.2H94.5z"/>
	<path class="st4" d="M95.9,73.5h1.3v4.7c0.5-0.6,1.4-1.2,2-1.2c1.3,0,2,0.7,2,2.5v7.1H100v-6.9c0-1.1-0.3-1.5-1-1.5
		c-0.6,0-1.2,0.4-1.8,1.1v7.3h-1.3L95.9,73.5L95.9,73.5z"/>
	<path class="st4" d="M104.5,82v0.5c0,2.3,0.5,3,1.8,3c1,0,1.4-0.9,1.6-1.8l1.2,0.1c-0.2,1.4-1.3,2.7-3,2.7c-2,0-2.9-1.5-2.9-4.9
		c0-3.4,0.9-4.9,2.9-4.9c2,0,2.9,1.8,2.9,4.5V82H104.5z M107.7,80.9c0-2-0.4-2.9-1.6-2.9c-0.9,0-1.5,0.7-1.6,2.9H107.7z"/>
	<path class="st4" d="M115.3,73.5l2.3,10.3h0l2.3-10.3h1.4l-3.1,13H117l-3.1-13H115.3z"/>
	<path class="st4" d="M125.1,76.9c2,0,2.9,1.5,2.9,4.9c0,3.4-0.9,4.9-2.9,4.9s-2.9-1.5-2.9-4.9C122.2,78.4,123.1,76.9,125.1,76.9z
		 M125.1,85.6c1.1,0,1.6-0.7,1.6-3.8c0-3.1-0.5-3.8-1.6-3.8s-1.6,0.7-1.6,3.8C123.5,84.9,124,85.6,125.1,85.6z"/>
	<path class="st4" d="M130,73.5h1.3V75H130V73.5z M130,77.1h1.3v9.4H130V77.1z"/>
	<path class="st4" d="M137.6,79.9c-0.1-1.4-0.7-1.9-1.5-1.9c-1.1,0-1.6,0.7-1.6,3.8s0.5,3.8,1.6,3.8c0.8,0,1.3-0.4,1.5-2h1.3
		c-0.2,1.8-1.1,3.1-2.8,3.1c-2,0-2.9-1.5-2.9-4.9c0-3.4,0.9-4.9,2.9-4.9c1.7,0,2.5,1.1,2.7,3L137.6,79.9L137.6,79.9z"/>
	<path class="st4" d="M141.5,82v0.5c0,2.3,0.5,3,1.8,3c1,0,1.4-0.9,1.6-1.8l1.2,0.1c-0.2,1.4-1.3,2.7-3,2.7c-2,0-2.9-1.5-2.9-4.9
		c0-3.4,0.9-4.9,2.9-4.9c2,0,2.9,1.8,2.9,4.5V82H141.5z M144.7,80.9c0-2-0.4-2.9-1.6-2.9c-0.9,0-1.5,0.7-1.6,2.9H144.7z"/>
	<path class="st4" d="M150.9,77.1h1.4v-1.9c0-1.3,0.5-1.9,1.9-1.9c0.3,0,0.7,0,1,0.1v1c-0.2-0.1-0.5-0.1-0.7-0.1
		c-0.6,0-0.9,0.4-0.9,1v1.9h1.5v1.1h-1.5v8.3h-1.3v-8.3h-1.4V77.1z"/>
	<path class="st4" d="M159.1,76.9c2,0,2.9,1.5,2.9,4.9c0,3.4-0.9,4.9-2.9,4.9s-2.9-1.5-2.9-4.9C156.2,78.4,157.1,76.9,159.1,76.9z
		 M159.1,85.6c1.1,0,1.6-0.7,1.6-3.8c0-3.1-0.5-3.8-1.6-3.8s-1.6,0.7-1.6,3.8C157.5,84.9,158,85.6,159.1,85.6z"/>
	<path class="st4" d="M163.8,77.1h1.3v1.1h0c0.8-1.1,1.4-1.3,2.4-1.3v1.2c-1,0-1.7,0.3-2.4,1.7v6.7h-1.3L163.8,77.1L163.8,77.1z"/>
	<path class="st4" d="M172.8,73.5h3.1c2.1,0,3.6,1.2,3.6,3.4c0,1.5-0.6,2.7-2.1,3.2l2.2,6.4h-1.5l-2.1-6.1l-1.8,0.1v6.1h-1.4
		L172.8,73.5L172.8,73.5z M174.2,79.2h1.2c2,0,2.7-0.8,2.7-2.2s-0.6-2.2-2.7-2.2h-1.2V79.2z"/>
	<path class="st4" d="M182.5,82v0.5c0,2.3,0.5,3,1.8,3c1,0,1.4-0.9,1.6-1.8l1.2,0.1c-0.2,1.4-1.3,2.7-3,2.7c-2,0-2.9-1.5-2.9-4.9
		c0-3.4,0.9-4.9,2.9-4.9c2,0,2.9,1.8,2.9,4.5V82H182.5z M185.7,80.9c0-2-0.4-2.9-1.6-2.9c-0.9,0-1.5,0.7-1.6,2.9H185.7z"/>
	<path class="st4" d="M188.7,79.7c0.2-1.5,1.1-2.7,2.8-2.7c1.7,0,2.7,1,2.7,2.7v5.2c0,0.8,0.1,1.4,0.2,1.7H193l-0.2-0.8
		c-0.5,0.5-1.4,1-2,1c-1.5,0-2.4-0.9-2.4-2.4c0-2.3,2.5-3.5,4.4-3.9v-0.7c0-1-0.5-1.7-1.4-1.7c-1,0-1.5,1-1.6,1.8L188.7,79.7z
		 M192.9,81.4c-1.2,0.4-3.1,1.2-3.1,2.7c0,0.9,0.4,1.4,1.3,1.4c0.7,0,1.3-0.5,1.8-1V81.4z"/>
	<path class="st4" d="M196.9,73.5h1.3v13h-1.3V73.5z"/>
	<path class="st4" d="M210.7,73.5v1.2h-4.5v4.4h3.4v1.2h-3.4v5h4.8v1.2h-6.1v-13L210.7,73.5L210.7,73.5z"/>
	<path class="st4" d="M216.5,79.5c-0.2-0.8-0.6-1.5-1.6-1.5c-0.6,0-1,0.5-1,1.1c0,1.9,4,2,4,4.9c0,1.5-1.1,2.6-2.6,2.6
		c-1.7,0-2.5-0.9-3-2.5l1.2-0.2c0.3,0.8,0.8,1.7,1.7,1.7c0.7,0,1.4-0.6,1.4-1.4c0-2.2-4-2.2-4-5c0-1.2,1-2.3,2.4-2.3
		c1.4,0,2.3,0.8,2.6,2.2L216.5,79.5z"/>
	<path class="st4" d="M218.7,77.1h1.3V74h1.3v3.1h1.7v1.1h-1.7v6.5c0,0.5,0.3,0.9,0.9,0.9c0.2,0,0.6-0.1,0.8-0.2v1
		c-0.4,0.1-0.7,0.2-1.2,0.2c-1.2,0-1.8-0.6-1.8-2v-6.4h-1.3V77.1z"/>
	<path class="st4" d="M224.7,79.7c0.2-1.5,1.1-2.7,2.8-2.7c1.7,0,2.7,1,2.7,2.7v5.2c0,0.8,0.1,1.4,0.2,1.7H229l-0.2-0.8
		c-0.5,0.5-1.4,1-2,1c-1.5,0-2.4-0.9-2.4-2.4c0-2.3,2.5-3.5,4.4-3.9v-0.7c0-1-0.5-1.7-1.4-1.7c-1,0-1.5,1-1.6,1.8L224.7,79.7z
		 M228.9,81.4c-1.2,0.4-3.1,1.2-3.1,2.7c0,0.9,0.4,1.4,1.3,1.4c0.7,0,1.3-0.5,1.8-1V81.4z"/>
	<path class="st4" d="M231.7,77.1h1.3V74h1.3v3.1h1.7v1.1h-1.7v6.5c0,0.5,0.3,0.9,0.9,0.9c0.2,0,0.6-0.1,0.8-0.2v1
		c-0.4,0.1-0.7,0.2-1.2,0.2c-1.2,0-1.8-0.6-1.8-2v-6.4h-1.3L231.7,77.1L231.7,77.1z"/>
	<path class="st4" d="M238.5,82v0.5c0,2.3,0.5,3,1.8,3c1,0,1.4-0.9,1.6-1.8L243,84c-0.2,1.4-1.3,2.7-3,2.7c-2,0-2.9-1.5-2.9-4.9
		c0-3.4,0.9-4.9,2.9-4.9c2,0,2.9,1.8,2.9,4.5V82H238.5z M241.6,80.9c0-2-0.4-2.9-1.6-2.9c-0.9,0-1.5,0.7-1.6,2.9H241.6z"/>
	<path class="st4" d="M243.4,76.6c0-1.1,0.9-2,2.1-2c1.1,0,2,0.9,2,2c0,1.2-0.9,2-2,2C244.3,78.6,243.4,77.8,243.4,76.6z
		 M247.1,76.6c0-1-0.7-1.7-1.6-1.7c-0.9,0-1.7,0.7-1.7,1.7c0,1,0.7,1.7,1.7,1.7S247.1,77.6,247.1,76.6z M245,77.8h-0.4v-2.4h0.9
		c0.5,0,0.8,0.2,0.8,0.7c0,0.4-0.3,0.6-0.6,0.6l0.6,1H246l-0.6-1H245V77.8z M245,76.5h0.4c0.4,0,0.6,0,0.6-0.4
		c0-0.2-0.1-0.4-0.5-0.4H245V76.5z"/>
	<path class="st4" d="M251.3,73.5h1.3V75h-1.3V73.5z M251.3,77.1h1.3v9.4h-1.3V77.1z"/>
	<path class="st4" d="M255.2,77.1h1.2v1c0.6-0.6,1.5-1.2,2.1-1.2c1.3,0,2,0.7,2,2.5v7.1h-1.3v-6.9c0-1.1-0.3-1.5-1-1.5
		c-0.6,0-1.2,0.4-1.8,1.1v7.3h-1.3L255.2,77.1L255.2,77.1z"/>
	<path class="st4" d="M267.1,73.5h5.6v1.2h-4.2v4.4h3.1v1.2h-3.1v6.2h-1.4V73.5z"/>
	<path class="st4" d="M274.2,73.5h1.3v13h-1.3V73.5z"/>
	<path class="st4" d="M280.4,76.9c2,0,2.9,1.5,2.9,4.9c0,3.4-0.9,4.9-2.9,4.9s-2.9-1.5-2.9-4.9C277.5,78.4,278.4,76.9,280.4,76.9z
		 M280.4,85.6c1.1,0,1.6-0.7,1.6-3.8c0-3.1-0.5-3.8-1.6-3.8s-1.6,0.7-1.6,3.8C278.8,84.9,279.3,85.6,280.4,85.6z"/>
	<path class="st4" d="M285.1,77.1h1.3v1.1h0c0.8-1.1,1.3-1.3,2.4-1.3v1.2c-1,0-1.7,0.3-2.4,1.7v6.7h-1.3L285.1,77.1L285.1,77.1z"/>
	<path class="st4" d="M290.2,73.5h1.3V75h-1.3V73.5z M290.2,77.1h1.3v9.4h-1.3V77.1z"/>
	<path class="st4" d="M298.4,85.6L298.4,85.6c-0.5,0.7-1.1,1.1-2,1.1c-1.5,0-2.7-1.3-2.7-4.9c0-3.6,1.2-4.9,2.7-4.9
		c0.7,0,1.3,0.4,1.7,0.9v-4.3h1.3v10.5c0,1.2,0.1,2,0.2,2.5h-1.2L298.4,85.6z M298.2,78.9c-0.4-0.4-0.8-0.8-1.4-0.8
		c-1.1,0-1.7,0.9-1.7,3.8s0.7,3.8,1.8,3.8c0.4,0,1-0.4,1.4-0.9V78.9z"/>
	<path class="st4" d="M302,79.7c0.2-1.5,1.1-2.7,2.8-2.7c1.7,0,2.7,1,2.7,2.7v5.2c0,0.8,0.1,1.4,0.2,1.7h-1.3l-0.2-0.8
		c-0.5,0.5-1.4,1-2,1c-1.5,0-2.4-0.9-2.4-2.4c0-2.3,2.5-3.5,4.4-3.9v-0.7c0-1-0.5-1.7-1.3-1.7c-1,0-1.5,1-1.6,1.8L302,79.7z
		 M306.2,81.4c-1.2,0.4-3.1,1.2-3.1,2.7c0,0.9,0.4,1.4,1.3,1.4c0.7,0,1.3-0.5,1.8-1L306.2,81.4L306.2,81.4z"/>
</g>
<path class="st0" d="M68.5,64.6c0-2,1.7-3.6,3.7-3.6c2,0,3.6,1.6,3.6,3.6c0,2.1-1.7,3.6-3.6,3.6C70.2,68.2,68.5,66.6,68.5,64.6z
	 M75.1,64.6c0-1.7-1.3-3-2.9-3c-1.7,0-3,1.3-3,3c0,1.7,1.3,3,3,3C73.8,67.6,75.1,66.3,75.1,64.6z M71.4,66.7h-0.6v-4.2h1.6
	c1,0,1.5,0.4,1.5,1.2c0,0.8-0.5,1.1-1,1.2l1.1,1.9h-0.8l-1.1-1.9h-0.6L71.4,66.7L71.4,66.7z M71.4,64.3h0.7c0.8,0,1.1-0.1,1.1-0.7
	c0-0.4-0.3-0.6-0.9-0.6h-0.9L71.4,64.3L71.4,64.3z"/>
<path class="st1" d="M308.3,41.3c0-2,1.7-3.6,3.7-3.6c2,0,3.7,1.6,3.7,3.6c0,2.1-1.7,3.6-3.7,3.6C310,45,308.3,43.4,308.3,41.3z
	 M314.9,41.3c0-1.7-1.3-3-2.9-3c-1.7,0-3,1.3-3,3c0,1.7,1.3,3,3,3C313.7,44.4,314.9,43.1,314.9,41.3z M311.3,43.5h-0.7v-4.2h1.6
	c1,0,1.5,0.4,1.5,1.2c0,0.8-0.5,1.1-1,1.2l1.1,1.9H313l-1.1-1.9h-0.7L311.3,43.5L311.3,43.5z M311.3,41.1h0.7c0.8,0,1.1-0.1,1.1-0.7
	c0-0.4-0.3-0.6-0.9-0.6h-0.9L311.3,41.1L311.3,41.1z"/>
</svg>
