<svg version="1.1" id="Layer_1" xmlns="http://www.w3.org/2000/svg" x="0" y="0" width="270" height="90" xml:space="preserve"><style>.st0{fill:#024443}</style><path class="st0" d="M20.8 88.7V82H13v6.7h-1.6V74H13v6.5h7.8V74h1.6v14.7h-1.6zm20.6-7.4c0 1.1-.2 2.1-.6 3-.4.9-.9 1.7-1.6 2.4-.7.7-1.5 1.2-2.3 1.6-.9.4-1.8.6-2.8.6s-1.9-.2-2.8-.6-1.7-.9-2.3-1.6c-.7-.7-1.2-1.5-1.6-2.4-.4-.9-.6-1.9-.6-3s.2-2.1.6-3.1c.4-.9.9-1.7 1.6-2.4s1.5-1.2 2.3-1.6c.9-.4 1.8-.6 2.8-.6 1 0 1.9.2 2.8.6.9.4 1.7.9 2.3 1.6.7.7 1.2 1.5 1.6 2.4.4 1 .6 2 .6 3.1zm-1.8 0c0-.9-.2-1.7-.4-2.4-.3-.7-.7-1.4-1.1-1.9-.5-.6-1.1-1-1.8-1.3-.7-.3-1.4-.5-2.2-.5-.8 0-1.6.2-2.2.5-.7.3-1.3.7-1.8 1.3-.5.6-.9 1.2-1.1 1.9s-.4 1.6-.4 2.4c0 .9.2 1.7.4 2.4.3.7.7 1.4 1.1 1.9.5.6 1.1 1 1.8 1.3.7.3 1.5.5 2.2.5.8 0 1.6-.2 2.2-.5s1.3-.7 1.8-1.3c.5-.6.9-1.2 1.1-1.9.3-.7.4-1.5.4-2.4zm16.9 2.1c0 .8-.2 1.6-.4 2.3-.3.7-.6 1.3-1.1 1.7-.5.5-1.1.8-1.8 1.1-.7.3-1.4.4-2.2.4-.8 0-1.6-.1-2.3-.4-.7-.3-1.3-.6-1.7-1.1-.5-.5-.8-1-1.1-1.7-.3-.7-.4-1.5-.4-2.3V74H47v9.4c0 .7.1 1.4.3 1.9.2.5.5.9.8 1.3.4.4.7.6 1.3.7.5.2 1 .3 1.6.3s1.1-.1 1.6-.3.9-.4 1.3-.7c.4-.4.6-.8.8-1.3.2-.5.3-1.1.3-1.9V74h1.6l-.1 9.4zm5.8 5.3V74h1.6v13.2h7v1.5h-8.6zm13.3 0V74h1.6v14.7h-1.6zm17.1 0V82h-7.9v6.7h-1.6V74h1.6v6.5h7.9V74h1.6v14.7h-1.6zm17.7 0l-1.7-4.1h-6.6l-1.7 4.1h-1.7l6.6-15h.3l6.6 15h-1.8zM105.3 77l-2.7 6.3h5.4l-2.7-6.3zm21.9 11.9l-9.5-11.4v11.2h-1.6V73.8l.3-.1 9.4 11.3V74h1.6v14.9h-.2zm14.2-.2V74h1.6v13.2h7v1.5h-8.6zm23.7 0l-1.7-4.1h-6.6l-1.7 4.1h-1.7l6.6-15h.3l6.6 15h-1.8zM160 77l-2.7 6.3h5.4L160 77zm22.1 11.9l-.3.1-4.6-11.6-4.6 11.6-.3-.1-4.1-14.9h1.6l2.9 10.8 4.3-10.9h.2l4.4 10.9 2.9-10.7h1.6l-4 14.8zm16.3-.2l-3.9-5.8c-.2 0-.3 0-.5.1h-1.3c-.3 0-.6 0-.8-.1v5.8h-1.6V74.1c.6-.1 1.1-.1 1.7-.2.6-.1 1.1-.1 1.7-.1.9 0 1.8.1 2.5.3.7.2 1.3.5 1.8.9s.8.9 1 1.4c.2.5.4 1.1.4 1.8 0 1-.3 1.9-.8 2.7-.6.7-1.4 1.3-2.4 1.6l4.3 6.1h-1.9v.1zm-.8-10.3c0-.4-.1-.8-.3-1.2-.2-.4-.4-.7-.7-1-.3-.3-.7-.5-1.1-.6-.5-.2-1-.3-1.6-.3-.4 0-.7 0-1.1.1-.4 0-.7.1-.9.1v6c.3.1.5.1.9.1.3 0 .6.1.9.1 1.4 0 2.4-.3 3-.9.6-.7.9-1.4.9-2.4zm7.4 10.3V74h8.6v1.5h-7v5.1h6.3V82h-6.3v5.3h7v1.5l-8.6-.1zm25.2.2l-9.5-11.4v11.2H219V73.8l.3-.1 9.4 11.3V74h1.6v14.9h-.1zm17.2-1.4c-.6.4-1.3.7-2.1 1-.8.3-1.7.4-2.7.4-1.1 0-2.2-.2-3.1-.6s-1.8-.9-2.4-1.6-1.3-1.5-1.6-2.4c-.4-.9-.6-1.9-.6-3s.2-2.1.6-3c.4-.9.9-1.7 1.6-2.4.7-.7 1.5-1.2 2.4-1.6.9-.4 2-.6 3.1-.6 1 0 1.9.2 2.7.4.8.3 1.6.6 2.1 1l-.7 1.4c-.6-.4-1.4-.7-2.1-.9-.8-.3-1.5-.4-2.2-.4-.9 0-1.8.2-2.5.5s-1.4.7-1.9 1.3c-.5.6-.9 1.2-1.1 1.9-.3.7-.4 1.6-.4 2.4 0 .9.2 1.7.4 2.4.3.7.7 1.4 1.2 1.9s1.1 1 1.9 1.3c.7.3 1.6.5 2.5.5.7 0 1.5-.1 2.2-.4.8-.3 1.5-.5 2.1-.9l.6 1.4zm5.3 1.2V74h8.6v1.5h-7v5.1h6.3V82h-6.3v5.3h7v1.5l-8.6-.1zM145.3 61.1c.5-.6-2-1.8-1.9-3.4.1-1.7 1.9-6.8 3.3-8.1 1.4-1.3.9-1 1.5-2.4.6-1.5 4.2-7.5 4.6-7.8.4-.3-4.3.4-5.7.2-.6-.1-2.3 6.8-2.6 7.6s-1.6 6.3-2.6 7.3c-1.5 1.4-.8 2.3-.6 3.1.2.8-.5 3.2.4 3.9.6.7 3 .4 3.6-.4zm-19-24.5s-.9 1.9-5.1 4.5c-1.4.9-1.1 2.4-.1 3.1 1 .7 4.7 2.9 5.2 3.7.5 1 1.3 5.6-1.1 7.8-.1.1-.3.1-.4.1-.6-.5-1.7-2.2-1.4-3.6.3-1.4 1.7-1.4 1.4-2-.3-.6-.4.2-1.3-.6s-.4-.8-.8-1.4c-.9-1.3-6.6-3.2-6.9-4.8-.3-1.6 1.5-2.6 2.4-3.3 1-.8 6.3-3.6 8.1-3.5z"/><path class="st0" d="M105.3 61.7c.1-1.6-1.5-2.4-1.4-4.2.2-1.8 1.6-4.1 2.8-6.1 1.8-3 3.1-3.2 3.7-4.5 1.3-2.4 9.4-11.6 17.6-11.9 6.8-.3 6.4 1.9 11.8 3.1 5.4 1.2 15.3-.8 20 .2 11.1 2.2 14.7 8.2 15.5 9.7.7 1.5 1.2.7 1.4 1.1.2.4-.6.7-.4 1.5.3.8 3.9 2.1 4.3 1.8s.2-.6 0-1c-.5-.8-7.6-10.4-9.9-12.1-2.3-1.8-9-3.6-9.9-5.9-.4-1 2.8-5.5 3.1-9.1.2-2.3.2-11.2 1.4-13.5.4-.8.9-.4.8 0-.2.8-.7 2-.5 3.8.3 2.2 3.6 6.9 3.4 7.8-.2.7-.9 2 2.9 2.4.9.1.9-.5 1.4-.7.4-.3.8.1 1-.6.2-.7.1-4.2.1-5.3s.4-7.7-.2-10.1c-.2-.6.7-1.3 1.1-2s.9-2-.3-1.2c-1.2.9-2.4 1.2-3.3 1.3-.9.1-8.9-1.8-14.5 3.3-3.6 3.3-7.2 8.5-12.1 9.9-9.1 2.5-19.7-8.1-29.8.7-1.9 1.7-4 5.7-4.3 8.8-.3 3.1 1.3 6 .8 8.1-.4 2-2.3 5.5-4 6.5-2 1.3-1.4 2.3-1.9 3.5-.5 1.2-2.3 7.2-3.4 8.2-1 1-1.8 1.4-1.3 2.8s-.2 2.8.8 3.7c.8.7 2.6.6 3.2.6 0-.5.1-.6.1-.6z"/><path class="st0" d="M143 18c3.7-2.3 4.8-8.1 11.1-12.9 5.8-4.5 14.1-2 16.7-.5.2.1.1.2-.1.2-3.6-.8-8.9-.6-12.9 2.1-3.2 2.1-8.6 11-14.5 11.3-.3 0-.4-.2-.3-.2zm-27.5-.1c-1.3-.3-9.6-2.8-16.2 7.2-4.6 7.1-8 14.1-12.9 14.5-.1 0-.2.2.2.2 1.4.3 4.4.4 8.2-1.6 6.8-3.5 9-7.7 11.4-12.2 1-1.8 2.5-5.6 6.3-5.4.1 0 .3 0 .4-.1.1-.1 1.3-1.8 2.7-2.6 0 .1 0 0-.1 0z"/></svg>