<svg width="250" height="38" viewBox="0 0 250 38" fill="none" xmlns="http://www.w3.org/2000/svg">
<path fill-rule="evenodd" clip-rule="evenodd" d="M9 0H0V29V37H9H23V29H9V0Z" fill="#216C81"/>
<path fill-rule="evenodd" clip-rule="evenodd" d="M26 38L35 38L35 9L35 1L26 0.999999L12 0.999998L12 9L26 9L26 38Z" fill="#54B1B5"/>
<path d="M193.964 17.8332C193.921 23.7958 189.738 27.6974 183.987 27.41C180.503 27.2358 177.612 25.8772 176.007 22.6317C174.384 19.3514 174.457 16.0072 176.454 12.8895C178.181 10.1868 180.907 9.12433 183.984 9.03434C187.505 8.93273 190.574 9.97489 192.603 13.1072C193.602 14.6486 193.944 16.3759 193.964 17.8361V17.8332ZM189.447 18.2512C189.52 15.4499 187.717 13.2117 185.105 12.8575C182.512 12.5063 180.231 14.1087 179.615 16.7126C178.945 19.543 180.309 22.4227 182.721 23.2762C186.118 24.4751 189.349 22.0628 189.447 18.2512Z" fill="#205464"/>
<path d="M66.0257 18.0974C66.0257 12.5237 70.055 8.80794 75.9712 9.03727C79.8495 9.18823 82.9847 10.7761 84.4071 14.608C86.6192 20.5649 83.2576 27.8397 74.8187 27.3868C69.4511 27.0994 66.0373 23.3807 66.0257 18.1003V18.0974ZM80.5433 17.9667C80.4301 16.1814 79.8002 14.5442 78.0787 13.5107C75.6344 12.0447 72.4702 12.9388 71.1639 15.4441C69.7095 18.2309 70.8155 21.9293 73.4572 23.1253C76.9262 24.6929 80.5869 22.0889 80.5404 17.9667H80.5433Z" fill="#205464"/>
<path d="M212.05 23.1717V20.0714H208.851V16.7243H215.922V25.8802C214.23 26.8352 212.363 27.2242 210.439 27.3462C207.28 27.5494 204.34 26.9804 202.069 24.5535C199.451 21.7551 199.047 18.4167 200.183 14.9273C201.3 11.4874 203.942 9.70204 207.431 9.15048C209.78 8.7789 212.064 9.08662 214.201 10.1723C214.767 10.4597 215.269 10.8661 215.908 11.29C214.973 12.3582 214.143 13.3017 213.234 14.341C211.794 13.0027 210.114 12.5121 208.221 12.8575C207.112 13.0608 206.195 13.6152 205.454 14.4687C203.846 16.3266 203.692 19.6882 205.129 21.6796C206.502 23.5839 209.431 24.2487 212.047 23.1717H212.05Z" fill="#205464"/>
<path d="M128.654 26.8904H123.983C123.539 25.8163 123.086 24.7248 122.619 23.5926H115.89C115.46 24.6754 115.025 25.7727 114.589 26.8671H110.017C112.464 21.038 114.85 15.3453 117.263 9.5946H121.472C123.838 15.2902 126.207 20.9974 128.654 26.8904ZM119.44 14.5674C119.347 14.5615 119.257 14.5557 119.164 14.5528C118.494 16.3556 117.823 18.1612 117.115 20.0684H121.428C120.735 18.1525 120.087 16.3614 119.44 14.5674Z" fill="#205464"/>
<path d="M106.87 24.4723C104.025 28.1764 97.3543 28.4232 93.5862 25.0383C89.7631 21.6041 89.7398 14.9738 93.563 11.4177C97.7113 7.55388 104.792 8.89794 106.571 11.4874C105.665 12.4134 104.765 13.3278 103.863 14.251C101.282 12.3118 98.4458 12.4018 96.6169 14.518C94.849 16.5617 94.8955 20.1149 96.7156 22.0222C98.6664 24.0658 101.413 24.0281 104.069 21.8509C104.998 22.7218 105.938 23.6014 106.873 24.4752L106.87 24.4723Z" fill="#205464"/>
<path d="M247.236 21.8393C248.191 22.7479 249.103 23.613 250 24.4665C248.148 27.0646 243.843 28.1126 240.095 26.9514C236.301 25.7786 233.944 22.4605 233.871 18.1874C233.804 14.2133 236.106 10.8836 239.819 9.58305C243.413 8.32607 247.997 9.2405 249.805 11.6093C248.888 12.4599 247.968 13.3162 246.978 14.2365C245.782 13.1334 244.246 12.5876 242.447 12.9621C241.256 13.2088 240.295 13.8126 239.57 14.7764C237.944 16.9304 238.162 20.4023 240.023 22.1935C241.968 24.063 244.554 23.9614 247.239 21.8393H247.236Z" fill="#205464"/>
<path d="M159.858 26.8614V9.60626H164.076V23.2327H170.764V26.8585H159.858V26.8614Z" fill="#205464"/>
<path d="M55.0903 23.2675H61.8483V26.873H51V9.61493H55.0903V23.2704V23.2675Z" fill="#205464"/>
<path d="M133.949 9.58014H138.016V23.1979H144.713V26.844H133.949V9.58014Z" fill="#205464"/>
<path d="M227.366 26.9455C226.251 26.9455 225.241 26.9513 224.233 26.9426C223.914 26.9426 223.595 26.902 223.209 26.8759V9.60913H227.366V26.9455Z" fill="#205464"/>
</svg>
