<svg xmlns="http://www.w3.org/2000/svg" width="190" height="45"><g fill="none" fill-rule="evenodd"><path fill="#CF0000" d="m6.358 9.849 14.925 4.118c.298.08.683-.052.861-.298L27.6 6.187a.56.56 0 0 0-.143-.783L19.731.224a.86.86 0 0 0-.908.018L6.27 9.355c-.249.185-.207.408.088.494M30.7 3.034l.696 15.468c.01.307.257.63.546.726l8.806 2.875a.566.566 0 0 0 .7-.374l2.538-8.952a.86.86 0 0 0-.3-.858L31.143 2.797c-.252-.18-.45-.073-.441.237m14.002 21.038-14.498 5.444a.85.85 0 0 0-.518.744l-.012 9.261c.007.31.261.557.571.549l9.297-.352a.85.85 0 0 0 .723-.547l4.8-14.75c.09-.297-.074-.454-.363-.349M29.018 43.898 19.364 31.79c-.188-.239-.581-.36-.87-.266l-8.812 2.848a.56.56 0 0 0-.345.716l3.203 8.734a.86.86 0 0 0 .748.516l15.512.01c.308-.005.409-.206.218-.451M4.832 35.039.046 20.282c-.096-.293.022-.683.26-.87l7.316-5.75a.564.564 0 0 1 .786.106l5.433 7.503a.85.85 0 0 1 .015.908L5.327 35.103c-.175.257-.396.227-.495-.064"/><path fill="#0A0B09" d="M185.454 19.386h.758l1.12 3.298 1.114-3.298h.753v3.9h-.506v-2.301q0-.12.007-.396.004-.276.004-.593l-1.113 3.29h-.524l-1.124-3.29v.12q0 .143.008.437t.008.432v2.301h-.505zm-.472 0v.465h-1.315v3.435h-.534v-3.435h-1.314v-.465zm-62.98 14.54c-2.247 0-4.399-.918-4.399-3.72V23.56c1.004-1.062 2.715-1.947 4.515-1.947 3.81 0 5.02 3.307 5.02 6.379 0 3.805-2.039 5.932-5.135 5.932m1.237-14.555a7.2 7.2 0 0 0-5.636 2.747l.146-2.747h-1.032l-4.28 1.477v.707l2.212 1.037v16.969c0 1.358-1 1.504-2.36 1.685v1.151h7.674v-1.151c-1.356-.18-2.36-.327-2.36-1.685v-5.137c.942.711 2.302 1.184 4.073 1.184 4.661 0 8.498-3.396 8.498-8.856 0-4.074-2.389-7.381-6.935-7.381m31.595-5.812c-2.08.087-3.188.412-3.188 2.39v19.362h-1.427L135.18 17.282v14.37c0 1.977 1.108 2.301 3.187 2.391v1.268h-8.324v-1.268c2.076-.09 3.184-.414 3.184-2.391V15.507c-1.244-1.536-1.66-1.917-3.184-1.948v-1.27h5.327l14.324 17.163V15.949c0-1.978-1.106-2.303-3.186-2.39v-1.27h8.326zm24.907 20.188c-.74.826-2.066 1.861-4.105 1.861-2.243 0-4.281-1.153-4.281-4.193V21.292h-2.271v-1.035c1.565-.944 2.834-2.066 4.34-3.954h.886v3.364h4.604v1.625h-4.604v9.092c0 2.125.913 3.066 2.715 3.066.796 0 1.564-.148 2.363-.526zm-18.509-12.546c2.657 0 4.045 1.714 4.045 3.78h-8.236c.324-2.212 1.858-3.78 4.191-3.78m1.386 11.837c-3.895 0-5.667-2.51-5.667-6.583h11.572v-.826c0-3.54-2.244-6.258-6.555-6.258-4.514 0-7.823 3.455-7.823 8.622 0 4.219 2.806 7.615 7.558 7.615 4.162 0 6.202-2.364 6.847-4.52l-.856-.383c-.975 1.212-2.625 2.333-5.076 2.333m-87.587-4.222h1.091l-1.09 6.495h-18.47v-1.268c2.215-.09 3.395-.414 3.395-2.391V15.949c0-1.978-1.18-2.303-3.394-2.39v-1.27h10.124v1.27c-2.215.087-3.394.412-3.394 2.39v15.524c0 1.77.975 2.216 3.394 2.216h2.795c2.95 0 3.662-1.447 5.55-4.873m29.308 4.96c-3.543 0-5.607-3.186-5.607-6.994 0-3.22 1.474-5.581 4.425-5.581 3.544 0 5.612 3.188 5.612 6.995 0 3.22-1.478 5.58-4.43 5.58m-.296-14.405c-4.544 0-8.44 3.247-8.44 8.413 0 4.546 3.188 7.824 7.85 7.824 4.544 0 8.443-3.247 8.443-8.414 0-4.546-3.188-7.823-7.853-7.823M86.041 33.776c-3.543 0-5.61-3.186-5.61-6.994 0-3.22 1.477-5.581 4.428-5.581 3.541 0 5.608 3.188 5.608 6.995 0 3.22-1.475 5.58-4.426 5.58m-.295-14.405c-4.547 0-8.443 3.247-8.443 8.413 0 4.546 3.188 7.824 7.85 7.824 4.547 0 8.444-3.247 8.444-8.414 0-4.546-3.184-7.823-7.851-7.823"/></g></svg>