<?xml version="1.0" encoding="utf-8"?>
<!-- Generator: Adobe Illustrator 21.0.0, SVG Export Plug-In . SVG Version: 6.00 Build 0)  -->
<svg version="1.1" id="Layer_1" xmlns="http://www.w3.org/2000/svg" xmlns:xlink="http://www.w3.org/1999/xlink" x="0px" y="0px"
	 viewBox="0 0 158.3 100.8" style="enable-background:new 0 0 158.3 100.8;" xml:space="preserve">
<style type="text/css">
	.st0{fill:none;}
</style>
<g id="Layer_2">
	<g id="Layer_1-2">
		<path d="M0.3,43.1v-42h8.3l12.2,27.3h0.1L33.1,1.1h8.4v42h-7.9V17.3h-0.1l-12,25.8h-1.3L8.3,17.3H8.2v25.8H0.3z"/>
		<path d="M50.8,43.1v-8.5h8.9v8.5H50.8z"/>
		<path d="M69,43.1v-42h8.1l15.4,27.5h0.1V1.1h8.2v42h-8L77.3,15.6h-0.1v27.5H69z"/>
		<path d="M110.1,43.1v-8.5h8.9v8.5H110.1z"/>
		<path d="M134.2,27.2c1,6.5,3,9.3,8.3,9.3s7.5-1.7,7.5-4.9c0.1-1.5-0.7-3-2-3.8c-1.3-0.9-4.3-2.1-8.9-3.5c-8.7-2.7-12-6.4-12-12.1
			c0-3.2,1.4-6.3,3.8-8.4c2.6-2.3,6-3.5,10.4-3.5c7.9,0,14.2,3.8,15.6,11.5l-7.9,2c-1.3-3.9-3.8-5.9-7.7-5.9c-4.1,0-6.2,1.7-6.2,4.4
			c0,1.2,0.6,2.3,1.7,2.9c2.9,1.3,5.9,2.5,8.9,3.4c4.6,1.6,7.8,3.3,9.5,5.2c1.8,2.1,2.7,4.8,2.6,7.5c0.1,3.5-1.5,6.9-4.2,9.2
			c-2.8,2.5-6.5,3.7-11.2,3.7c-9.5,0-15.7-5-16.9-14.9L134.2,27.2z"/>
		<path d="M16.4,73.8V58.4h6.1c3.2,0,5.2,1.8,5.2,4.8c0.1,2.1-1.3,4.1-3.4,4.5l3.3,6.1h-2.8l-3.1-5.9H19v5.9H16.4z M19,65.7h3.3
			c1.9,0,2.8-0.8,2.8-2.4c0-1.6-0.9-2.4-2.8-2.4H19V65.7z"/>
		<path d="M30.4,73.8V58.4H40v2.4h-7v4h6.4v2.3H33v4.3h7v2.4L30.4,73.8z"/>
		<path d="M52.2,73.8l-0.9-2.6H45l-0.9,2.6h-2.6L47,58.4h2.1l5.5,15.4H52.2z M48.2,62.2L45.8,69h4.7C50.5,69,48.2,62.2,48.2,62.2z"
			/>
		<path d="M56.8,73.8V58.4h2.6v13h6.4v2.4H56.8z"/>
		<path d="M72.5,73.8V58.4h9.6v2.4h-7v4h6.4v2.3h-6.4v4.3h7v2.4L72.5,73.8z"/>
		<path d="M87,68c0.4,2.6,1.2,3.7,3.5,3.7s3-0.8,3-2.1c0-0.6-0.2-1.1-0.7-1.5c-1-0.6-2.1-1-3.3-1.3c-3.2-1-4.5-2.4-4.5-4.4
			c0-1.2,0.5-2.2,1.4-3c1-0.9,2.3-1.4,3.7-1.3c2.9,0,5.1,1.4,5.6,4.2l-2.5,0.6c-0.3-1.5-1.6-2.5-3.1-2.4c-1.7,0-2.5,0.7-2.5,1.8
			c0,0.5,0.3,1,0.7,1.2c1,0.5,2.1,1,3.2,1.3c1.4,0.3,2.6,1,3.7,1.9c0.7,0.7,1,1.7,1,2.7c0,1.3-0.5,2.5-1.5,3.3
			c-1.1,0.9-2.6,1.4-4,1.3c-3.5,0-5.7-1.9-6.2-5.5L87,68z"/>
		<path d="M101.4,73.8v-13h-4.6v-2.4h11.7v2.4h-4.6v13H101.4z"/>
		<path d="M118.4,73.8l-0.9-2.6h-6.2l-0.9,2.6h-2.6l5.5-15.4h2.1l5.5,15.4H118.4z M114.4,62.2l-2.3,6.8h4.7L114.4,62.2L114.4,62.2z"
			/>
		<path d="M124.3,73.8v-13h-4.6v-2.4h11.7v2.4h-4.6v13H124.3z"/>
		<path d="M133.7,73.8V58.4h9.6v2.4h-7v4h6.4v2.3h-6.4v4.3h7v2.4L133.7,73.8z"/>
		<path d="M60.6,100.1V84.8h2.7l6.1,10.9l0,0V84.8H72v15.4h-2.6l-6.2-10.9l0,0v10.9L60.6,100.1z"/>
		<path d="M79,100.1v-6.5l-5-8.9h2.8l3.5,6.5l0,0l3.5-6.5h2.7l-5,8.9v6.5H79z"/>
		<path d="M99.5,94.7c-0.1,1.6-0.8,3.1-1.9,4.2c-1.1,1.1-2.6,1.7-4.2,1.6c-1.8,0.1-3.6-0.7-4.8-2c-1.2-1.4-1.8-3.4-1.8-6.1
			c-0.1-2.1,0.5-4.2,1.9-5.8c1.2-1.3,2.9-2.1,4.7-2.1c1.5,0,2.9,0.5,4,1.5c1.1,1,1.8,2.5,1.9,4l-2.7,0.4c-0.4-2.3-1.5-3.5-3.3-3.5
			c-1.1,0-2.1,0.5-2.8,1.4c-0.8,1.2-1.2,2.7-1.1,4.2c0,3.8,1.6,5.7,4,5.7s3-1.3,3.4-4L99.5,94.7z"/>
		<rect x="-46.2" y="-51.7" class="st0" width="250" height="190.9"/>
	</g>
</g>
</svg>
