<svg class="logo" xmlns="http://www.w3.org/2000/svg" viewBox="0 0 780.94 315.02"><title>NAIOP Logo_CMYK</title><path d="M245.93,252.58V362.27H212.87V179.64L328.27,293V183.34h33.05V366Z" transform="translate(-212.59 -179.64)" style="fill:#00673e"></path><path d="M441,213,454,183.34h20.12l75.79,178.93H514.26l-13.67-33.62H424.8l-13.68,33.62H375.8Zm47.86,86L463,234.91,436.77,299Z" transform="translate(-212.59 -179.64)" style="fill:#00673e"></path><path d="M566.79,183.34h33.05V362.27H566.79Z" transform="translate(-212.59 -179.64)" style="fill:#00673e"></path><path d="M722,179.64c53.56,0,96,40.74,96,93.17S775.51,366,722,366s-96-40.75-96-93.17S668.39,179.64,722,179.64Zm0,155c32.2,0,61.25-27.06,61.25-61.82S754.15,211,722,211s-61.25,27.07-61.25,61.83S689.75,334.63,722,334.63Z" transform="translate(-212.59 -179.64)" style="fill:#00673e"></path><path d="M843.06,274.52V183.34h85.19c39.89,0,64.4,26.22,64.4,61.26s-24.51,61.26-64.4,61.26H876.12v56.41H843.06V274.52Zm33.06,0h49.57c23.36,0,33.9-14,33.9-29.92s-10.54-29.91-33.9-29.91H876.12Z" transform="translate(-212.59 -179.64)" style="fill:#00673e"></path><line x1="0.29" y1="206.84" x2="780.14" y2="206.84" style="fill:none;stroke:#3f454f;stroke-width:0.75px"></line><path d="M235,421.7c-.9-3.42-3.17-5.91-7.63-5.91-6.55,0-9.29,5.61-9.29,11.31s2.74,11.32,9.29,11.32c4.76,0,7.37-3.46,7.8-7.78h5.23c-.43,7.11-5.61,12-13,12-9.17,0-14.65-7.07-14.65-15.56s5.48-15.55,14.65-15.55c6.9,0,12.34,3.74,13,10.15Z" transform="translate(-212.59 -179.64)" style="fill:#3f454f"></path><path d="M282.69,427.1c0,8.49-5.49,15.56-14.65,15.56s-14.66-7.07-14.66-15.56,5.49-15.55,14.66-15.55S282.69,418.62,282.69,427.1Zm-23.95,0c0,5.7,2.74,11.32,9.3,11.32s9.29-5.62,9.29-11.32-2.74-11.31-9.29-11.31S258.74,421.4,258.74,427.1Z" transform="translate(-212.59 -179.64)" style="fill:#3f454f"></path><path d="M297.21,412.25h7.55l8.44,23.25h.08l8.23-23.25H329V442h-5.09V419h-.09L315.3,442h-4.42L302.4,419h-.09V442h-5.1Z" transform="translate(-212.59 -179.64)" style="fill:#3f454f"></path><path d="M345,412.25h7.54L361,435.5h.09l8.23-23.25h7.45V442h-5.1V419h-.08L363.11,442H358.7L350.22,419h-.09V442H345Z" transform="translate(-212.59 -179.64)" style="fill:#3f454f"></path><path d="M392.94,412.25h22v4.5H398.29v7.77h15.43v4.25H398.29v8.69h17V442H392.94Z" transform="translate(-212.59 -179.64)" style="fill:#3f454f"></path><path d="M429.66,412.25h14.61c6.68,0,10.11,3,10.11,8,0,5.7-4.07,7.16-5.06,7.49v.08c1.84.25,4.54,1.58,4.54,6.28,0,3.45.52,6.62,1.68,7.82h-5.75a8.11,8.11,0,0,1-.81-4.37c0-5.44-1.16-7.86-6.08-7.86H435V442h-5.35ZM435,425.77h8.79c3.38,0,5.22-1.62,5.22-4.74,0-3.79-2.52-4.53-5.31-4.53H435Z" transform="translate(-212.59 -179.64)" style="fill:#3f454f"></path><path d="M490.2,421.7c-.9-3.42-3.17-5.91-7.63-5.91-6.55,0-9.3,5.61-9.3,11.31s2.75,11.32,9.3,11.32c4.76,0,7.37-3.46,7.8-7.78h5.23c-.43,7.11-5.61,12-13,12-9.17,0-14.65-7.07-14.65-15.56s5.48-15.55,14.65-15.55c6.9,0,12.34,3.74,13,10.15Z" transform="translate(-212.59 -179.64)" style="fill:#3f454f"></path><path d="M510.21,412.25h5.36V442h-5.36Z" transform="translate(-212.59 -179.64)" style="fill:#3f454f"></path><path d="M540,412.25h5.7L557.51,442h-5.74l-2.87-7.86H536.69L533.82,442h-5.53Zm-1.88,17.89h9.34l-4.59-12.77h-.13Z" transform="translate(-212.59 -179.64)" style="fill:#3f454f"></path><path d="M570.15,412.25h5.36v25.21h15.55V442H570.15Z" transform="translate(-212.59 -179.64)" style="fill:#3f454f"></path><path d="M621.83,412.25h14.61c6.68,0,10.11,3,10.11,8,0,5.7-4.07,7.16-5.06,7.49v.08c1.85.25,4.55,1.58,4.55,6.28,0,3.45.51,6.62,1.67,7.82H642a8.11,8.11,0,0,1-.81-4.37c0-5.44-1.16-7.86-6.08-7.86h-7.89V442h-5.35Zm5.35,13.52H636c3.38,0,5.22-1.62,5.22-4.74,0-3.79-2.52-4.53-5.31-4.53h-8.7Z" transform="translate(-212.59 -179.64)" style="fill:#3f454f"></path><path d="M661.72,412.25h22v4.5H667.07v7.77H682.5v4.25H667.07v8.69h17V442H661.72Z" transform="translate(-212.59 -179.64)" style="fill:#3f454f"></path><path d="M706.62,412.25h5.7L724.1,442h-5.74l-2.87-7.86H703.28L700.41,442h-5.53Zm-1.88,17.89h9.34l-4.59-12.77h-.13Z" transform="translate(-212.59 -179.64)" style="fill:#3f454f"></path><path d="M736.74,412.25h5.36v25.21h15.55V442H736.74Z" transform="translate(-212.59 -179.64)" style="fill:#3f454f"></path><path d="M788.42,412.25h22v4.5H793.77v7.77H809.2v4.25H793.77v8.69h17V442H788.42Z" transform="translate(-212.59 -179.64)" style="fill:#3f454f"></path><path d="M828.65,432.05c0,4.58,3.47,6.37,7.76,6.37,4.71,0,6.47-2.25,6.47-4.5a3.55,3.55,0,0,0-2.53-3.66c-2.14-.79-4.93-1.33-9.13-2.45-5.22-1.37-6.77-4.45-6.77-7.53,0-5.95,5.66-8.73,11.19-8.73,6.38,0,11.74,3.28,11.74,9.48H842c-.26-3.83-2.91-5.24-6.6-5.24-2.48,0-5.61.87-5.61,3.87,0,2.08,1.46,3.24,3.64,3.82.47.13,7.24,1.83,8.83,2.29a7.9,7.9,0,0,1,6,7.57c0,6.66-6.08,9.32-12.17,9.32-7,0-12.64-3.24-12.76-10.61Z" transform="translate(-212.59 -179.64)" style="fill:#3f454f"></path><path d="M859.72,412.25h24.76v4.5h-9.72V442H869.4v-25.2h-9.68Z" transform="translate(-212.59 -179.64)" style="fill:#3f454f"></path><path d="M906,412.25h5.7L923.43,442h-5.74l-2.87-7.86H902.61L899.74,442h-5.53Zm-1.89,17.89h9.34l-4.58-12.77h-.13Z" transform="translate(-212.59 -179.64)" style="fill:#3f454f"></path><path d="M933.16,412.25h24.76v4.5H948.2V442h-5.36v-25.2h-9.68Z" transform="translate(-212.59 -179.64)" style="fill:#3f454f"></path><path d="M971.21,412.25h22v4.5H976.56v7.77H992v4.25H976.56v8.69h17V442H971.21Z" transform="translate(-212.59 -179.64)" style="fill:#3f454f"></path><path d="M212.59,464.25H224.9c9.15,0,13.1,6.66,13.1,14.85S234.05,494,224.9,494H212.59Zm5.2,25.46h5.11c8.16,0,9.9-4.66,9.9-10.61s-1.74-10.6-9.9-10.6h-5.11Z" transform="translate(-212.59 -179.64)" style="fill:#3f454f"></path><path d="M251.11,464.25h21.38v4.5H256.31v7.77h15v4.25h-15v8.69h16.47V494H251.11Z" transform="translate(-212.59 -179.64)" style="fill:#3f454f"></path><path d="M282.43,464.25h5.41l7.45,23.5h.08l7.61-23.5h5.28L298.12,494h-5.79Z" transform="translate(-212.59 -179.64)" style="fill:#3f454f"></path><path d="M319.71,464.25h21.38v4.5H324.91v7.77h15v4.25h-15v8.69h16.47V494H319.71Z" transform="translate(-212.59 -179.64)" style="fill:#3f454f"></path><path d="M356.06,464.25h5.2v25.21h15.1V494h-20.3Z" transform="translate(-212.59 -179.64)" style="fill:#3f454f"></path><path d="M414.47,479.1c0,8.49-5.33,15.56-14.23,15.56S386,487.59,386,479.1s5.32-15.55,14.22-15.55S414.47,470.62,414.47,479.1Zm-23.25,0c0,5.7,2.66,11.32,9,11.32s9-5.62,9-11.32-2.66-11.31-9-11.31S391.22,473.4,391.22,479.1Z" transform="translate(-212.59 -179.64)" style="fill:#3f454f"></path><path d="M427.7,464.25h13.1c8.49,0,10.11,5.49,10.11,9.2s-1.62,9.15-10.11,9.1h-7.9V494h-5.2Zm5.2,14.06h7.61c2.33,0,5.2-1.16,5.2-4.91,0-3.91-2.37-4.9-5.12-4.9H432.9Z" transform="translate(-212.59 -179.64)" style="fill:#3f454f"></path><path d="M463.85,464.25h7.32l8.2,23.25h.08l8-23.25h7.24V494h-4.95V471h-.08L481.4,494h-4.28L468.88,471h-.08V494h-4.95Z" transform="translate(-212.59 -179.64)" style="fill:#3f454f"></path><path d="M509.4,464.25h21.38v4.5H514.6v7.77h15v4.25h-15v8.69h16.47V494H509.4Z" transform="translate(-212.59 -179.64)" style="fill:#3f454f"></path><path d="M543.89,464.25h5.49l13.56,21.88H563V464.25h5V494h-5.49L549,472.11h-.12V494h-5Z" transform="translate(-212.59 -179.64)" style="fill:#3f454f"></path><path d="M579.79,464.25h24v4.5h-9.44V494h-5.2v-25.2h-9.4Z" transform="translate(-212.59 -179.64)" style="fill:#3f454f"></path><path d="M642.1,464.25h5.54L659.07,494H653.5l-2.79-7.86H638.86L636.07,494h-5.36Zm-1.83,17.89h9.07l-4.45-12.77h-.12Z" transform="translate(-212.59 -179.64)" style="fill:#3f454f"></path><path d="M673.8,484.05c0,4.58,3.37,6.37,7.53,6.37,4.58,0,6.28-2.25,6.28-4.5a3.53,3.53,0,0,0-2.45-3.66c-2.08-.79-4.78-1.33-8.86-2.45-5.08-1.37-6.57-4.45-6.57-7.53,0-5.95,5.49-8.73,10.85-8.73,6.2,0,11.4,3.28,11.4,9.48h-5.2c-.25-3.83-2.83-5.24-6.4-5.24-2.42,0-5.45.87-5.45,3.87,0,2.08,1.41,3.24,3.53,3.82.46.13,7,1.83,8.57,2.29a7.86,7.86,0,0,1,5.78,7.57c0,6.66-5.9,9.32-11.81,9.32-6.78,0-12.27-3.24-12.4-10.61Z" transform="translate(-212.59 -179.64)" style="fill:#3f454f"></path><path d="M709.25,484.05c0,4.58,3.37,6.37,7.52,6.37,4.58,0,6.29-2.25,6.29-4.5a3.54,3.54,0,0,0-2.46-3.66c-2.08-.79-4.78-1.33-8.86-2.45-5.07-1.37-6.57-4.45-6.57-7.53,0-5.95,5.49-8.73,10.86-8.73,6.19,0,11.39,3.28,11.39,9.48h-5.2c-.25-3.83-2.82-5.24-6.4-5.24-2.41,0-5.45.87-5.45,3.87,0,2.08,1.41,3.24,3.53,3.82.46.13,7,1.83,8.57,2.29a7.86,7.86,0,0,1,5.78,7.57c0,6.66-5.9,9.32-11.81,9.32-6.78,0-12.27-3.24-12.39-10.61Z" transform="translate(-212.59 -179.64)" style="fill:#3f454f"></path><path d="M768.15,479.1c0,8.49-5.32,15.56-14.23,15.56s-14.22-7.07-14.22-15.56,5.32-15.55,14.22-15.55S768.15,470.62,768.15,479.1Zm-23.25,0c0,5.7,2.66,11.32,9,11.32s9-5.62,9-11.32-2.66-11.31-9-11.31S744.9,473.4,744.9,479.1Z" transform="translate(-212.59 -179.64)" style="fill:#3f454f"></path><path d="M801.43,473.7c-.87-3.42-3.08-5.91-7.4-5.91-6.37,0-9,5.61-9,11.31s2.66,11.32,9,11.32c4.61,0,7.15-3.46,7.57-7.78h5.07c-.42,7.11-5.45,12-12.64,12-8.91,0-14.23-7.07-14.23-15.56s5.32-15.55,14.23-15.55c6.69,0,12,3.74,12.6,10.15Z" transform="translate(-212.59 -179.64)" style="fill:#3f454f"></path><path d="M819.9,464.25h5.2V494h-5.2Z" transform="translate(-212.59 -179.64)" style="fill:#3f454f"></path><path d="M847.9,464.25h5.53L864.87,494h-5.58l-2.78-7.86H844.65L841.86,494H836.5Zm-1.83,17.89h9.06l-4.45-12.77h-.12Z" transform="translate(-212.59 -179.64)" style="fill:#3f454f"></path><path d="M873.36,464.25h24v4.5H888V494h-5.2v-25.2h-9.4Z" transform="translate(-212.59 -179.64)" style="fill:#3f454f"></path><path d="M909.34,464.25h5.2V494h-5.2Z" transform="translate(-212.59 -179.64)" style="fill:#3f454f"></path><path d="M956.26,479.1c0,8.49-5.32,15.56-14.22,15.56s-14.23-7.07-14.23-15.56,5.32-15.55,14.23-15.55S956.26,470.62,956.26,479.1Zm-23.25,0c0,5.7,2.66,11.32,9,11.32s9-5.62,9-11.32-2.66-11.31-9-11.31S933,473.4,933,479.1Z" transform="translate(-212.59 -179.64)" style="fill:#3f454f"></path><path d="M969.29,464.25h5.49l13.56,21.88h.08V464.25h5V494h-5.49l-13.52-21.84h-.12V494h-5Z" transform="translate(-212.59 -179.64)" style="fill:#3f454f"></path></svg>