<svg width="170" height="42" viewBox="0 0 170 42" fill="none" xmlns="http://www.w3.org/2000/svg">
<path fill-rule="evenodd" clip-rule="evenodd" d="M16.2506 0C17.6252 0 18.8033 1.04919 18.8688 2.42626L28.4904 3.86889C28.9486 2.8197 30.1922 2.36068 31.2394 2.8197C32.2867 3.27872 32.7448 4.52464 32.2867 5.57383C32.0248 6.164 31.5667 6.55745 30.9776 6.75417V26.7544C32.0903 27.0823 32.7448 28.2626 32.4176 29.3118C32.0903 30.4266 30.9121 31.0823 29.8649 30.7544C29.6031 30.6888 29.4067 30.5577 29.2104 30.4266L18.7379 38.2955C19.3269 39.607 18.7379 41.1808 17.4288 41.7709C16.1197 42.3611 14.5489 41.7709 13.9598 40.4594C13.6325 39.8037 13.6325 39.0168 13.9598 38.2955L3.48729 30.4266C2.57095 31.1479 1.26189 31.0167 0.541904 30.0987C-0.17808 29.1806 -0.0471742 27.8691 0.869169 27.1478C1.13098 26.9511 1.39279 26.82 1.65461 26.7544V6.75417C0.410998 6.4263 -0.243534 5.31153 0.083732 4.19677C0.410998 3.082 1.5237 2.42625 2.6364 2.75413C3.22548 2.95085 3.68365 3.3443 3.94547 3.93447L13.6325 2.49183C13.698 1.11477 14.8761 0 16.2506 0ZM8.13446 28.9183L4.14182 28.9839C4.14182 29.1151 4.07637 29.3118 4.01092 29.4429L14.4834 37.3119C14.5489 37.2463 14.6143 37.1807 14.6798 37.1807L11.3417 30.8856C10.0981 31.3446 8.65809 30.6888 8.19992 29.4429C8.19992 29.3118 8.19992 29.1151 8.13446 28.9183ZM2.89822 26.82L8.9199 17.3772C7.87265 16.5248 7.8072 14.951 8.65809 13.9018C8.65809 13.8362 8.72354 13.8362 8.72354 13.7706L3.09457 6.55745C2.96367 6.62302 2.83276 6.6886 2.6364 6.75417V26.6888C2.76731 26.7544 2.83276 26.7544 2.89822 26.82V26.82ZM9.50898 17.7051L3.48729 27.1478C3.81456 27.4757 4.07637 27.8691 4.14182 28.3282L8.13446 28.2626C8.33082 26.9511 9.50898 25.9675 10.8835 26.1642C11.4726 26.2298 11.9307 26.4921 12.3235 26.8855L19.5233 22.6888C19.3924 22.2297 19.3924 21.7707 19.5233 21.3117L12.3235 17.1149C11.6035 17.9674 10.4908 18.1641 9.50898 17.7051V17.7051ZM11.9962 30.5577L15.3343 36.8528C15.7925 36.6561 16.3161 36.6561 16.7743 36.7217L20.8324 24.2626C20.5706 24.1314 20.3087 24.0003 20.1124 23.738L12.9125 27.9347C13.1744 28.9183 12.7816 29.9675 11.9962 30.5577ZM21.4214 24.4593L17.3634 36.984C17.5597 37.1151 17.7561 37.1807 17.9524 37.3774L28.4249 29.5085C28.1631 28.9183 28.2286 28.2626 28.4904 27.738L23.5159 23.8035C22.9923 24.3281 22.2069 24.5904 21.4214 24.4593V24.4593ZM23.9741 23.2789L28.9486 27.2134C29.2104 27.0167 29.4722 26.82 29.7994 26.7544V6.75417H29.734L23.1887 20.0002C24.3014 20.7215 24.6286 22.1642 23.9741 23.2789ZM22.6651 19.7379L29.2104 6.49187C29.014 6.36072 28.8831 6.22957 28.7522 6.03285L24.2359 8.26238C24.6286 9.57387 23.9741 10.9509 22.6651 11.3444C21.7487 11.6723 20.7669 11.41 20.1124 10.6886L12.9125 14.8854C13.0434 15.3444 13.0434 15.8034 12.9125 16.2625L20.1124 20.4592C20.7669 19.6723 21.7487 19.41 22.6651 19.7379ZM23.8432 7.60664L28.3595 5.37711C28.294 5.24596 28.294 5.18038 28.294 5.04923L18.6724 3.6066C18.5415 3.86889 18.4106 4.13119 18.2142 4.39349L20.5051 6.95089L20.636 6.88532C21.7487 6.22957 23.1887 6.55745 23.8432 7.60664V7.60664ZM19.9815 7.34434L17.6906 4.78694C17.0361 5.24596 16.1852 5.37711 15.4652 5.11481L11.7998 13.3772C11.9962 13.5083 12.1271 13.6395 12.258 13.7706L19.4579 9.57387C19.2615 8.85255 19.4579 8.00008 19.9815 7.34434V7.34434ZM11.2108 13.1805L14.8761 4.91808C14.3525 4.59021 14.0252 4.13119 13.7634 3.6066L4.14182 5.04923C4.14182 5.44268 3.94547 5.83613 3.6182 6.164L9.31262 13.3772C9.9017 13.0493 10.5562 12.9837 11.2108 13.1805V13.1805Z" fill="#009DE6"/>
<path fill-rule="evenodd" clip-rule="evenodd" d="M50.8754 11.7378C49.8936 9.77057 47.8645 9.24597 45.9009 9.24597C43.5446 9.24597 40.9919 10.3607 40.9919 12.9181C40.9919 15.8034 43.3483 16.4592 45.9664 16.7215C47.6682 16.9182 48.9118 17.3772 48.9118 18.6231C48.9118 20.0002 47.4718 20.5248 45.9664 20.5248C44.461 20.5248 42.9555 19.9346 42.4319 18.492L40.4683 19.5412C41.4501 21.8363 43.4137 22.6887 45.9664 22.6887C48.7809 22.6887 51.2681 21.4428 51.2681 18.6231C51.2681 15.6067 48.7809 14.8854 46.1627 14.5575C44.6573 14.3608 43.3483 14.0985 43.3483 12.9837C43.3483 12.0001 44.1992 11.2788 45.9664 11.2788C47.3409 11.2788 48.5191 12.0001 48.9772 12.7214L50.8754 11.7378V11.7378ZM63.1805 22.3609H65.7987L60.1043 9.63942H57.4861L51.7917 22.3609H54.4098L55.5225 20.0002H62.1333L63.1805 22.3609V22.3609ZM61.1515 17.7051H56.4389L58.7952 12.2624L61.1515 17.7051V17.7051ZM69.7259 22.3609V17.6395H76.0748V15.41H69.7259V11.9345H76.4021V9.63942H67.3041V22.2953L69.7259 22.3609V22.3609ZM88.1836 20.0002H81.0492V17.1149H87.9218V14.8854H81.0492V11.9345H88.1836V9.63942H78.6929V22.3609H88.1836V20.0002V20.0002ZM104.874 11.2788C103.631 10.0329 101.994 9.37712 100.227 9.37712C96.1035 9.37712 93.6162 12.2624 93.6162 16.0657C93.6162 19.4756 95.7107 22.5576 100.227 22.5576C102.125 22.6232 103.892 21.8363 105.136 20.3936V15.3444H99.7034V16.7215H103.631V19.7379C102.649 20.5904 101.471 21.0494 100.162 21.0494C96.6925 21.0494 95.1217 18.6887 95.1217 16.0657C95.1217 13.246 96.8889 10.8198 100.162 10.8198C101.536 10.8198 102.911 11.3444 103.892 12.328L104.874 11.2788V11.2788ZM119.667 22.3609H121.63L117.441 17.6395C120.059 17.4428 121.107 15.6067 121.107 13.705C121.107 11.6067 119.667 9.63942 116.787 9.63942H111.027V22.3609H112.598V17.7707H115.674L119.667 22.3609V22.3609ZM116.787 16.328H112.663V11.0165H116.852C118.292 10.9509 119.536 12.0657 119.536 13.5083V13.705C119.536 15.2132 118.685 16.328 116.787 16.328V16.328ZM131.448 9.63942L125.754 22.3609H127.455L128.634 19.5412H135.899L137.143 22.3609H138.844L133.15 9.63942H131.448V9.63942ZM135.31 18.0985H129.288L132.299 11.2132L135.31 18.0985ZM145.586 18.2952H149.775C155.6 18.2952 155.6 9.70499 149.775 9.70499H144.015V22.4264H145.586V18.2952ZM149.84 16.787H145.651V11.1476H149.84C153.571 11.1476 153.571 16.787 149.84 16.787ZM168.429 22.3609H170V9.63942H168.429V15.1477H161.229V9.63942H159.593V22.3609H161.164V16.5903H168.429V22.3609Z" fill="black"/>
</svg>
