<svg width="113" height="11" viewBox="0 0 113 11" xmlns="http://www.w3.org/2000/svg"><title>Wordmark Copy 2</title><path d="M1.262 9.385C.563 8.8.142 7.925 0 6.763l2.024-.436c.124.769.326 1.324.606 1.666.28.343.739.513 1.376.513.542 0 .974-.095 1.298-.288a.93.93 0 0 0 .484-.85c0-.394-.155-.697-.463-.907-.31-.21-1.014-.486-2.117-.822-1.037-.319-1.77-.706-2.203-1.16C.572 4.023.357 3.463.357 2.797c0-.769.301-1.427.905-1.976C1.865.273 2.685 0 3.722 0c.94 0 1.75.225 2.43.674.679.45 1.104 1.12 1.276 2.01L5.56 3.15c-.294-.928-.908-1.392-1.839-1.392-.495 0-.862.094-1.105.281a.895.895 0 0 0-.363.745c0 .291.137.513.413.668.275.155.983.424 2.124.808 1.102.375 1.858.78 2.267 1.216.408.436.613 1.025.613 1.765 0 .872-.333 1.594-.998 2.166-.665.571-1.554.857-2.666.857-1.131 0-2.046-.293-2.744-.879zm18.056-1.314l1.061 1.053-1.252 1.243-.947-.945c-.732.573-1.553.842-2.504.842-.57 0-1.107-.098-1.61-.295a4.157 4.157 0 0 1-1.377-.893c-.413-.398-.74-.942-.983-1.63-.242-.69-.363-1.489-.363-2.398 0-.816.12-1.551.363-2.208.243-.655.57-1.188.983-1.596a4.326 4.326 0 0 1 1.384-.928A4.14 4.14 0 0 1 15.676 0a4.15 4.15 0 0 1 1.605.316c.508.212.969.521 1.382.928.414.408.742.94.984 1.596.242.657.364 1.392.364 2.208 0 1.185-.23 2.193-.693 3.023zm-3.137-3.113l1.685 1.672a7.33 7.33 0 0 0 .149-1.582c0-1.07-.226-1.884-.678-2.446-.451-.563-1.005-.845-1.66-.845-.666 0-1.222.282-1.668.845-.447.562-.67 1.377-.67 2.446 0 1.2.218 2.079.655 2.636.437.558.998.837 1.682.837.532 0 .949-.1 1.272-.316l-1.982-1.967 1.215-1.28zm9.072 4.427c-.68-.585-1.02-1.431-1.02-2.537V.21h1.925v6.552c0 .534.154.958.463 1.272.31.314.763.471 1.362.471.6 0 1.055-.154 1.368-.463.315-.31.471-.727.471-1.252V.211h1.925v6.637c0 1.106-.342 1.952-1.027 2.537-.684.586-1.597.88-2.737.88-1.14 0-2.05-.294-2.73-.88zm18.523.668h-1.982l-.57-1.617h-3.806l-.571 1.617h-1.91L38.544.211h1.639l3.593 9.842zm-4.434-7.03h-.028l-1.355 3.839h2.723l-1.34-3.839zm10.43 7.03h-1.925V.211h4.049c1.026 0 1.855.283 2.487.85.632.568.949 1.33.949 2.286 0 .712-.188 1.316-.564 1.813-.375.497-.89.849-1.546 1.055l2.124 3.838h-2.082l-2.01-3.656h-1.483v3.656zm0-8.127v2.826h1.967c1.092 0 1.64-.468 1.64-1.405 0-.947-.548-1.42-1.64-1.42h-1.968zm9.924.043V.21h6.316v1.76h-6.316zm0 4V4.21h6.316v1.76h-6.316zm0 4.142V8.354h6.316v1.757h-6.316zm13.104-.058h-1.925V.211h6.33V1.97H72.8v2.6h4.006v1.674H72.8v3.81zm15.246-.977a4.152 4.152 0 0 1-1.376.893 4.384 4.384 0 0 1-1.61.295 4.39 4.39 0 0 1-1.612-.295 4.152 4.152 0 0 1-1.375-.893c-.414-.398-.741-.942-.984-1.631-.242-.689-.363-1.488-.363-2.397 0-.815.12-1.551.363-2.208.243-.656.57-1.188.984-1.595a4.294 4.294 0 0 1 1.383-.928A4.139 4.139 0 0 1 85.059 0a4.15 4.15 0 0 1 1.605.317c.508.21.969.52 1.382.928.414.407.741.94.984 1.595.242.657.364 1.393.364 2.208 0 .91-.122 1.708-.364 2.397-.243.69-.57 1.233-.984 1.631zm-5.324-4.028c0 1.2.218 2.078.655 2.636.437.558.998.837 1.682.837.685 0 1.246-.274 1.683-.823.436-.548.656-1.431.656-2.65 0-1.069-.226-1.884-.678-2.447-.451-.562-1.005-.843-1.66-.843-.666 0-1.222.281-1.668.843-.447.563-.67 1.378-.67 2.447zm17.849 4.028a4.152 4.152 0 0 1-1.376.893 4.384 4.384 0 0 1-1.611.295c-.57 0-1.107-.098-1.611-.295a4.152 4.152 0 0 1-1.376-.893c-.413-.398-.74-.942-.983-1.631-.243-.689-.364-1.488-.364-2.397 0-.815.121-1.551.364-2.208.242-.656.57-1.188.983-1.595A4.294 4.294 0 0 1 95.98.317 4.139 4.139 0 0 1 97.584 0c.561 0 1.095.106 1.604.317.508.21.97.52 1.383.928.413.407.741.94.983 1.595.243.657.364 1.393.364 2.208 0 .91-.121 1.708-.364 2.397-.242.69-.57 1.233-.983 1.631zm-5.325-4.028c0 1.2.219 2.078.656 2.636.437.558.998.837 1.682.837.684 0 1.245-.274 1.683-.823.436-.548.655-1.431.655-2.65 0-1.069-.226-1.884-.677-2.447-.452-.562-1.005-.843-1.661-.843-.666 0-1.222.281-1.668.843-.447.563-.67 1.378-.67 2.447zm14.831 5.005h-1.925V1.97h-2.922V.21H113v1.76h-2.923v8.084z" fill="#000" fill-rule="evenodd"/></svg>