<?xml version="1.0" encoding="UTF-8"?>
<svg id="Layer_1" xmlns="http://www.w3.org/2000/svg" viewBox="0 0 524.09 528.74">
  <defs>
    <style>
      .cls-1 {
        fill: #ff0;
        font-family: Arial-Black, 'Arial Black';
        font-size: 120.92px;
        font-weight: 800;
        stroke: #000;
        stroke-miterlimit: 10;
        stroke-width: 5px;
      }

      .cls-2 {
        fill: #39b54a;
      }
    </style>
  </defs>
  <g>
    <polygon class="cls-2" points="248.39 358.52 164.02 492.38 203.38 338.46 63.31 411.05 174.09 298.5 15.91 290.35 168.4 249.4 34.54 162.75 187.81 204.34 114.06 62.46 227.07 175.38 233.16 16.2 275.7 170.22 360.07 36.36 320.71 190.28 460.78 117.69 350 230.24 508.18 238.39 355.69 279.34 489.55 365.99 336.28 324.4 410.02 466.28 297.02 353.36 290.92 512.54 248.39 358.52"/>
    <path d="M235.04,32.41l36.74,133.02,3.01,10.91,6.04-9.58,72.88-115.62-34.04,133.11-2.77,10.81,9.91-5.14,121.15-62.79-95.84,97.38-7.8,7.93,11.11.57,136.85,7.05-131.8,35.4-10.86,2.92,9.44,6.11,115.69,74.88-132.3-35.9-11-2.99,5.26,10.12,63.65,122.46-97.51-97.43-8.09-8.09-.44,11.43-5.26,137.35-36.74-133.02-3.01-10.91-6.04,9.58-72.88,115.62,34.04-133.11,2.77-10.81-9.91,5.14-121.15,62.79,95.84-97.38,7.8-7.93-11.11-.57-136.85-7.05,131.8-35.4,10.86-2.92-9.44-6.11-115.69-74.88,132.3,35.9,11,2.99-5.26-10.12-63.65-122.46,97.51,97.43,8.09,8.09.44-11.43,5.26-137.35M231.28,0l-6.49,169.57L104.38,49.25l78.58,151.19L19.73,156.14l142.59,92.3L0,292.03l168.4,8.68-117.92,119.8,149.09-77.27-41.91,163.91,89.83-142.51,45.32,164.1,6.49-169.57,120.41,120.31-78.58-151.19,163.23,44.29-142.59-92.3,162.32-43.59-168.4-8.68,117.92-119.8-149.09,77.27,41.91-163.91-89.83,142.51L231.28,0h0Z"/>
  </g>
  <text class="cls-1" transform="translate(222.69 301.46) scale(1.08 1)"><tspan x="0" y="0">$</tspan></text>
</svg>