<?xml version="1.0" encoding="UTF-8" standalone="no"?>
<!-- Created with Inkscape (http://www.inkscape.org/) -->

<svg
   xmlns:dc="http://purl.org/dc/elements/1.1/"
   xmlns:cc="http://creativecommons.org/ns#"
   xmlns:rdf="http://www.w3.org/1999/02/22-rdf-syntax-ns#"
   xmlns:svg="http://www.w3.org/2000/svg"
   xmlns="http://www.w3.org/2000/svg"
   xmlns:sodipodi="http://sodipodi.sourceforge.net/DTD/sodipodi-0.dtd"
   xmlns:inkscape="http://www.inkscape.org/namespaces/inkscape"
   version="1.1"
   id="svg2"
   xml:space="preserve"
   width="789"
   height="482"
   viewBox="0 0 789 482"
   sodipodi:docname="AY_LOGO_BLACK-t2.svg"
   inkscape:version="0.92.3 (2405546, 2018-03-11)"><metadata
     id="metadata8"><rdf:RDF><cc:Work
         rdf:about=""><dc:format>image/svg+xml</dc:format><dc:type
           rdf:resource="http://purl.org/dc/dcmitype/StillImage" /><dc:title></dc:title></cc:Work></rdf:RDF></metadata><defs
     id="defs6" /><sodipodi:namedview
     pagecolor="#ffffff"
     bordercolor="#666666"
     borderopacity="1"
     objecttolerance="10"
     gridtolerance="10"
     guidetolerance="10"
     inkscape:pageopacity="0"
     inkscape:pageshadow="2"
     inkscape:window-width="1473"
     inkscape:window-height="897"
     id="namedview4"
     showgrid="false"
     inkscape:zoom="0.63178185"
     inkscape:cx="335.90149"
     inkscape:cy="373.54666"
     inkscape:window-x="0"
     inkscape:window-y="27"
     inkscape:window-maximized="0"
     inkscape:current-layer="g10"
     showborder="true"
     height="527px" /><g
     id="g10"
     inkscape:groupmode="layer"
     inkscape:label="ink_ext_XXXXXX"
     transform="matrix(1.3333333,0,0,-1.3333333,0,482)"><g
       id="g12"
       transform="matrix(0.1,0,0,0.1,-100.03085,-99.40509)"><path
         d="M 6925.31,4606.75 H 996.484 V 4316.11 H 6925.31 v 290.64 l -3.55,-3.55 3.55,3.55"
         style="fill:#231f20;fill-opacity:1;fill-rule:nonzero;stroke:none"
         id="path14"
         inkscape:connector-curvature="0" /><path
         d="M 6925.31,1287.12 H 996.484 V 996.48 H 6925.31 v 290.64 l -3.55,-3.55 3.55,3.55"
         style="fill:#231f20;fill-opacity:1;fill-rule:nonzero;stroke:none"
         id="path16"
         inkscape:connector-curvature="0" /><path
         d="m 1514.27,3357.55 148.35,372.65 149.68,-372.65 z m 229.55,600.58 h -156.8 l -404.76,-996.34 h 177.44 l 95.31,240.57 h 416.59 l 93.99,-240.57 h 182.99 l -404.76,996.34"
         style="fill:#231f20;fill-opacity:1;fill-rule:nonzero;stroke:none"
         id="path18"
         inkscape:connector-curvature="0" /><path
         d="m 3050.67,3958.28 h -189.55 l -299.31,-765.89 -300.72,765.89 h -193.83 l 411.79,-996.49 h 159.81 l 411.81,996.49"
         style="fill:#231f20;fill-opacity:1;fill-rule:nonzero;stroke:none"
         id="path20"
         inkscape:connector-curvature="0" /><path
         d="m 3396.23,3958.28 h -175.31 v -996.49 h 175.31 v 996.49 l -3.56,-3.56 3.56,3.56"
         style="fill:#231f20;fill-opacity:1;fill-rule:nonzero;stroke:none"
         id="path22"
         inkscape:connector-curvature="0" /><path
         d="m 3599.28,3107 105.45,125.27 c 95.5,-82.58 191,-129.55 314.99,-129.55 108.32,0 176.73,49.83 176.73,125.28 v 2.83 c 0,71.19 -39.91,109.61 -225.19,152.33 -212.35,51.24 -332.07,113.88 -332.07,297.51 v 2.86 c 0,170.83 142.52,288.99 340.63,288.99 145.37,0 260.81,-44.13 362.01,-125.27 l -94.08,-132.41 c -89.78,66.91 -179.58,102.49 -270.79,102.49 -102.62,0 -162.48,-52.66 -162.48,-118.13 v -2.86 c 0,-76.86 45.61,-111.02 236.6,-156.58 210.93,-51.27 320.67,-126.71 320.67,-291.85 v -2.83 c 0,-186.49 -146.8,-297.52 -356.3,-297.52 -152.51,0 -296.45,52.67 -416.17,159.44"
         style="fill:#231f20;fill-opacity:1;fill-rule:nonzero;stroke:none"
         id="path24"
         inkscape:connector-curvature="0" /><path
         d="m 5390.03,3457.18 v 2.86 c 0,193.61 -141.11,354.46 -339.21,354.46 -198.1,0 -336.36,-158.02 -336.36,-351.63 v -2.83 c 0,-193.6 141.1,-354.48 339.21,-354.48 198.12,0 336.36,158.02 336.36,351.62 z m -859.43,0 v 2.86 c 0,280.44 216.64,515.32 523.07,515.32 306.43,0 520.21,-232.05 520.21,-512.49 v -2.83 c 0,-280.46 -216.64,-515.34 -523.06,-515.34 -306.42,0 -520.22,232.05 -520.22,512.48"
         style="fill:#231f20;fill-opacity:1;fill-rule:nonzero;stroke:none"
         id="path26"
         inkscape:connector-curvature="0" /><path
         d="m 5768.32,3958.28 h 162.48 l 534.46,-689.01 v 689.01 h 172.47 v -996.49 h -146.8 l -550.16,708.91 v -708.91 h -172.45 v 996.49"
         style="fill:#231f20;fill-opacity:1;fill-rule:nonzero;stroke:none"
         id="path28"
         inkscape:connector-curvature="0" /><path
         d="m 1958.02,2622.7 -293.33,-458.71 -290.38,458.71 h -192.05 l 396.22,-603.59 v -392.9 h 176.73 v 397.18 l 396.22,599.31 h -193.41"
         style="fill:#231f20;fill-opacity:1;fill-rule:nonzero;stroke:none"
         id="path30"
         inkscape:connector-curvature="0" /><path
         d="m 3030.72,2121.61 v 2.86 c 0,193.6 -141.11,354.46 -339.21,354.46 -198.11,0 -336.36,-158.03 -336.36,-351.63 v -2.83 c 0,-193.61 141.09,-354.49 339.21,-354.49 198.12,0 336.36,158.02 336.36,351.63 z m -859.43,0 v 2.86 c 0,280.44 216.64,515.31 523.07,515.31 306.43,0 520.21,-232.04 520.21,-512.48 v -2.83 c 0,-280.46 -216.64,-515.35 -523.06,-515.35 -306.42,0 -520.22,232.06 -520.22,512.49"
         style="fill:#231f20;fill-opacity:1;fill-rule:nonzero;stroke:none"
         id="path32"
         inkscape:connector-curvature="0" /><path
         d="m 3443.94,2049 v 573.7 h 175.3 v -566.56 c 0,-185.08 95.48,-284.71 252.27,-284.71 155.35,0 250.84,93.93 250.84,277.57 v 573.7 h 175.31 v -565.15 c 0,-297.51 -168.19,-447.01 -429.01,-447.01 -259.38,0 -424.71,149.5 -424.71,438.46"
         style="fill:#231f20;fill-opacity:1;fill-rule:nonzero;stroke:none"
         id="path34"
         inkscape:connector-curvature="0" /><path
         d="m 4592.57,2622.7 h 162.48 l 534.47,-689 v 689 h 172.45 v -996.5 h -146.8 l -550.13,708.93 V 1626.2 h -172.47 v 996.5"
         style="fill:#231f20;fill-opacity:1;fill-rule:nonzero;stroke:none"
         id="path36"
         inkscape:connector-curvature="0" /><path
         d="m 5704.19,2121.61 v 2.86 c 0,278.99 213.78,515.31 514.51,515.31 173.88,0 280.76,-48.39 383.38,-135.25 l -111.15,-132.38 c -76.97,65.47 -152.51,106.78 -279.35,106.78 -183.86,0 -323.53,-160.86 -323.53,-351.63 v -2.83 c 0,-204.99 135.4,-355.9 339.2,-355.9 94.07,0 179.59,29.88 240.88,75.44 V 2030.5 H 6213 v 152.33 h 424.73 v -418.54 c -98.35,-83.97 -239.45,-155.17 -416.18,-155.17 -312.12,0 -517.36,222.08 -517.36,512.49"
         style="fill:#231f20;fill-opacity:1;fill-rule:nonzero;stroke:none"
         id="path38"
         inkscape:connector-curvature="0" /></g></g></svg>