<?xml version="1.0" encoding="UTF-8"?>
<svg id="Layer_1" xmlns="http://www.w3.org/2000/svg" width="5in" height="1.667in" version="1.1" viewBox="0 0 360 120.024">
  <!-- Generator: Adobe Illustrator 29.2.1, SVG Export Plug-In . SVG Version: 2.1.0 Build 116)  -->
  <polygon points="80.3 70.512 80.6 72.712 79 83.212 80.6 93.512 90.7 82.112 80.3 70.512" fill="#0371b8"/>
  <g>
    <g>
      <g>
        <g>
          <polygon points="222.5 80.812 222.5 109.712 234.4 109.712 234.4 115.012 216.1 115.012 216.1 80.812 222.5 80.812" fill="#0c1c2c"/>
          <polygon points="234.1 86.012 234.1 80.812 259.3 80.812 259.3 86.012 249.9 86.012 249.9 115.012 243.5 115.012 243.5 86.012 234.1 86.012" fill="#0c1c2c"/>
          <path d="M133.6,86.212v11.2h6.1c4.3,0,6-2.4,6-5.6,0-3.1-1.9-5.7-5.3-5.7l-6.8.1h0ZM145.1,115.012l-8.4-12.5h-3.1v12.5h-6v-34.2h13.4c7.6,0,10.9,5.5,10.9,11,0,4.9-3.2,9.9-8.4,10.6l8.9,12.6h-7.3,0Z" fill="#0c1c2c"/>
          <polygon points="177.1 80.812 177.1 86.112 162.4 86.112 162.4 94.612 176.2 94.612 176.2 99.912 162.4 99.912 162.4 109.712 177.5 109.712 177.5 115.012 156 115.012 156 80.812 177.1 80.812" fill="#0c1c2c"/>
          <path d="M201.6,102.012l-5.1-13.8-5.2,13.8h10.3ZM189.7,107.112l-3,7.9h-6.7l13.4-34.3h6.2l13.4,34.3h-7l-3-7.9h-13.3,0Z" fill="#0c1c2c"/>
          <path d="M278,85.912c-6.3,0-11.2,4.6-11.2,12s5,12.1,11.2,12.1c6.3,0,11.2-4.6,11.2-12.1s-4.8-12-11.2-12M260.2,97.912c0-11,8-17.7,17.9-17.7s17.9,6.6,17.9,17.7c0,11-8,17.7-17.9,17.7s-17.9-6.6-17.9-17.7" fill="#0c1c2c"/>
          <path d="M305.8,86.212v11.2h6.1c4.3,0,6-2.4,6-5.6,0-3.1-1.9-5.7-5.3-5.7l-6.8.1h0ZM317.3,115.012l-8.4-12.5h-3.1v12.5h-6v-34.2h13.4c7.6,0,10.9,5.5,10.9,11,0,4.9-3.2,9.9-8.4,10.6l8.9,12.6h-7.3Z" fill="#0c1c2c"/>
          <path d="M349.9,105.012c0,6.3-4.7,10.6-11.9,10.6-5.8,0-9.9-2.7-12.1-5.3l3.1-4.7c2.7,2.9,5.9,4.5,9.1,4.5s5.4-1.5,5.4-4.5c0-2.7-1.8-3.6-4.7-4.8l-5.3-2.1c-3.7-1.5-6.2-4.1-6.2-8.3,0-6,4.7-10.1,11.8-10.1,4.9,0,8.4,2,10.4,4.1l-3.1,4.6c-2.2-2-4.8-3.4-7.7-3.4-2.8,0-5.1,1.4-5.1,3.9s2.1,3.4,3.9,4.2l5.7,2.3c4.8,2.1,6.7,4.8,6.7,9" fill="#0c1c2c"/>
          <path d="M355,84.212c.4,0,.7-.1.7-.6,0-.4-.3-.5-.7-.5h-.5v1.1h.5ZM354.5,84.912v1.4h-.9v-4.1h1.7c.8,0,1.4.5,1.4,1.2,0,.6-.3,1-.8,1.2l.9,1.6h-1.1l-.7-1.4h-.5v.1ZM357.8,84.312c0-1.6-1.2-2.8-2.8-2.8s-2.8,1.2-2.8,2.8c0,1.7,1.2,2.9,2.8,2.9s2.8-1.2,2.8-2.9M351.5,84.312c0-2,1.5-3.5,3.5-3.5,1.9,0,3.5,1.5,3.5,3.5s-1.5,3.5-3.5,3.5c-1.9,0-3.5-1.5-3.5-3.5" fill="#0c1c2c"/>
        </g>
        <g>
          <path d="M143.6,65.312c-10.4,0-18.4-7-18.4-18.3s8.1-18.3,18.4-18.3c6.9,0,10.9,2.9,12.4,4.4l-2.4,5.4c-1-1.3-5-4.1-10.1-4.1-6.2,0-11.4,4.1-11.4,12.4,0,7.7,4.8,12.6,11.9,12.6,4.7,0,8-2.1,10.1-4.3l2.4,5c-2.1,2.3-5.9,5.2-12.9,5.2" fill="#0c1c2c"/>
          <path d="M183.1,49.912v14.7h-6.6v-13.2c0-3.7-.7-6.6-4.5-6.6-4.1,0-5.4,3.4-5.4,7.6v12.4h-6.5V29.212h6.5v14.3h.1c1.3-2.6,3.8-4.2,7.4-4.2,7.2,0,9,4.7,9,10.6" fill="#0c1c2c"/>
          <path d="M194.5,64.712h-6.6v-24.9h6.6v24.9ZM187.3,32.212c0-2.1,1.6-3.6,4-3.6,2.3,0,4,1.5,4,3.6,0,2.2-1.6,3.6-4,3.6-2.4.1-4-1.4-4-3.6" fill="#0c1c2c"/>
          <path d="M219.3,57.112l1.8,4.8c-.5.5-3.1,3.3-9.7,3.3-6.8,0-13-4.7-13-12.8,0-8.2,6.5-13.1,13.1-13.1,6.3,0,8.7,2.5,9.4,3.2l-1.8,4.9c-.8-.7-3-2.6-6.8-2.6-3.9,0-7,2.7-7,7.3s3.1,7.6,7.4,7.6c4.2,0,6.6-2.6,6.6-2.6" fill="#0c1c2c"/>
          <path d="M230,57.212c0,2.1,1.6,3.5,4.3,3.5,2.6,0,4.5-1.5,5.3-2.7v-4.6l-4.5.3c-3.4.2-5.1,1.4-5.1,3.5M232.2,65.212c-4.8,0-8.7-2.6-8.7-7.8s5.1-7.2,10.2-7.6l6-.4v-.7c0-3.2-2.1-4.7-5.5-4.7-3.3,0-6,1.2-7.1,2.1l-2-4.2c1.9-1.1,5.4-2.6,9.7-2.6,4.4,0,6.9,1.1,8.8,2.9,1.8,1.7,2.7,4,2.7,8.2v14.2h-6.3l-.1-2.9c-1.2,1.9-4,3.5-7.7,3.5" fill="#0c1c2c"/>
          <path d="M263.3,44.512c-4.3,0-6.9,3.2-6.9,7.2,0,3.8,2.5,6.9,6.8,6.9,4.7,0,7.1-3.1,7.1-6.9-.1-3.5-2.7-7.2-7-7.2M261.3,63.912c-6.3,0-11.6-4-11.6-11.9,0-6.9,4.8-12.6,12.2-12.6,3.3,0,6.2,1.2,7.9,3.9h.1v-3.4h6.5v19.7c0,5.4-1.1,8.5-3.2,10.7-2.2,2.3-5.3,4.4-11.3,4.4-5.9,0-10.3-2.8-11.5-3.7l2.7-4.6c1.6,1.1,5.6,2.9,8.8,2.9,3.5,0,5.4-1.1,6.3-2.2s1.7-3.1,1.7-5.9v-1.2h-.1c-1.7,2.5-4.7,3.9-8.5,3.9" fill="#0c1c2c"/>
          <path d="M293.1,44.612c-4.3,0-6.7,3.3-6.7,7.6s2.4,7.6,6.7,7.6c4.2,0,6.7-3.3,6.7-7.6s-2.5-7.6-6.7-7.6M279.6,52.312c0-7.9,5.8-13,13.5-13,7.6,0,13.4,5.1,13.4,13s-5.8,12.9-13.4,12.9-13.5-5-13.5-12.9" fill="#0c1c2c"/>
        </g>
        <g>
          <path d="M133.6,76.512l-.7-1.8h-3l-.7,1.8h-1l2.9-7.1h.9l2.9,7.1h-1.3,0ZM131.3,70.612l-1.2,3.2h2.5l-1.3-3.2Z" fill="#0c1c2c"/>
          <path d="M140.3,76.612c-1.2,0-1.9-.8-2.3-1.2l.6-.7c.4.5,1,1,1.8,1s1.4-.4,1.4-1.2c0-.7-.8-1-1.1-1.2-.4-.1-.9-.3-1.1-.5-.7-.3-1.2-.9-1.2-1.7,0-1.3,1.1-1.9,2.3-1.9s1.8.7,2,.9l-.5.7c-.3-.4-.9-.8-1.6-.8s-1.2.3-1.2,1,.5.9.9,1.1l1.3.5c.7.3,1.2.9,1.2,1.8-.1,1.5-1.3,2.2-2.5,2.2h0Z" fill="#0c1c2c"/>
          <path d="M148.8,76.612c-1.2,0-1.9-.8-2.3-1.2l.6-.7c.4.5,1,1,1.8,1s1.4-.4,1.4-1.2c0-.7-.8-1-1.1-1.2-.4-.1-.9-.3-1.1-.5-.7-.3-1.2-.9-1.2-1.7,0-1.3,1.1-1.9,2.3-1.9s1.8.7,2,.9l-.5.7c-.3-.4-.9-.8-1.6-.8s-1.2.3-1.2,1,.5.9.9,1.1l1.3.5c.7.3,1.2.9,1.2,1.8,0,1.5-1.2,2.2-2.5,2.2h0Z" fill="#0c1c2c"/>
          <path d="M158.4,76.612c-2,0-3.6-1.4-3.6-3.7s1.7-3.7,3.6-3.7c2,0,3.7,1.4,3.7,3.7-.1,2.3-1.7,3.7-3.7,3.7ZM158.4,70.112c-1.4,0-2.6,1-2.6,2.8,0,1.7,1.2,2.8,2.6,2.8s2.6-1,2.6-2.8c0-1.7-1.2-2.8-2.6-2.8Z" fill="#0c1c2c"/>
          <path d="M169.3,76.612c-2.1,0-3.6-1.4-3.6-3.7,0-2.2,1.6-3.7,3.6-3.7,1.3,0,2.1.6,2.5.9l-.4.8c-.3-.3-1.1-.9-2.1-.9-1.5,0-2.6,1.1-2.6,2.8s1.1,2.8,2.6,2.8c.9,0,1.7-.4,2.1-.9l.4.7c-.3.6-1.1,1.2-2.5,1.2Z" fill="#0c1c2c"/>
          <path d="M176,76.512v-7.1h1v7.1h-1Z" fill="#0c1c2c"/>
          <path d="M186.4,76.512l-.7-1.8h-3l-.7,1.8h-1l2.9-7.1h.9l2.9,7.1h-1.3,0ZM184.2,70.612l-1.2,3.2h2.5l-1.3-3.2Z" fill="#0c1c2c"/>
          <path d="M193.1,70.212v6.2h-1v-6.2h-2v-.8h5v.8h-2Z" fill="#0c1c2c"/>
          <path d="M199.3,76.512v-7.1h1v7.1h-1Z" fill="#0c1c2c"/>
          <path d="M208,76.612c-2,0-3.6-1.4-3.6-3.7s1.7-3.7,3.6-3.7c2,0,3.7,1.4,3.7,3.7-.1,2.3-1.7,3.7-3.7,3.7ZM208,70.112c-1.4,0-2.6,1-2.6,2.8,0,1.7,1.2,2.8,2.6,2.8s2.6-1,2.6-2.8c0-1.7-1.2-2.8-2.6-2.8Z" fill="#0c1c2c"/>
          <path d="M220.6,76.512l-4.1-5.6v5.7h-1v-7.1h1l4,5.6v-5.6h1v7.1l-.9-.1h0Z" fill="#0c1c2c"/>
          <path d="M233.7,76.612c-2,0-3.6-1.4-3.6-3.7s1.7-3.7,3.6-3.7c2,0,3.7,1.4,3.7,3.7s-1.7,3.7-3.7,3.7ZM233.7,70.112c-1.4,0-2.6,1-2.6,2.8,0,1.7,1.2,2.8,2.6,2.8s2.6-1,2.6-2.8c0-1.7-1.1-2.8-2.6-2.8Z" fill="#0c1c2c"/>
          <path d="M242,70.212v2.4h2.8v.8h-2.8v3.1h-1v-7.1h3.9v.8s-2.9,0-2.9,0Z" fill="#0c1c2c"/>
        </g>
      </g>
      <g>
        <polygon points="102.7 68.912 100.6 48.412 92.4 57.512 102.7 68.912" fill="#0371b8"/>
        <polygon points="100.5 46.812 98.9 30.512 92.4 37.712 100.5 46.812" fill="#0371b8"/>
        <polygon points="91.6 38.712 83.6 47.612 91.6 56.512 99.5 47.712 91.6 38.712" fill="#0371b8"/>
        <polygon points="84 30.112 82.4 47.012 90.7 37.712 84 30.112" fill="#0371b8"/>
        <path d="M82.5,48.312c-.1-.1-.1-.2-.2-.3l-2,21,10.4-11.5s-8.2-9.2-8.2-9.2Z" fill="#0371b8"/>
        <polygon points="91.6 81.212 101.7 69.812 91.6 58.512 81.4 69.812 91.6 81.212" fill="#0371b8"/>
        <path d="M91.6,36.712l7.1-8-.4-3.8h-1.3v-14.3h-1.5v14.3h-7.9v-14.3h-1.5v14.3h-1.5l-.3,3.6c.1,0,.2.1.2.2l7.1,8h0Z" fill="#0371b8"/>
        <polygon points="105.4 96.612 102.8 70.512 92.5 82.112 105.4 96.612" fill="#0371b8"/>
      </g>
      <polygon points="39 93.712 40.6 83.212 39 72.712 40.6 62.212 39 51.812 40.6 41.412 40 37.812 30.3 37.812 30.3 17.512 26.3 17.512 26.3 1.912 24.4 1.912 24.4 17.512 21.9 17.512 21.9 1.912 19.9 1.912 19.9 17.512 16 17.512 16 54.112 9.8 54.112 9.8 96.112 9.8 104.712 15.4 98.712 35.9 92.412 39.4 96.512 39 93.712" fill="#0c1c2c"/>
      <polygon points="53.4 30.412 40.3 30.412 41.7 20.912 51.9 20.912 53.4 30.412" fill="#abe0f9"/>
      <polygon points="53.4 51.312 40.3 51.312 41.7 41.912 51.9 41.912 53.4 51.312" fill="#abe0f9"/>
      <polygon points="53.4 72.212 40.3 72.212 41.7 62.712 51.9 62.712 53.4 72.212" fill="#abe0f9"/>
      <polygon points="53.4 93.212 40.3 93.212 41.7 83.712 51.9 83.712 53.4 93.212" fill="#abe0f9"/>
      <polygon points="66.3 61.712 53.2 61.712 54.7 52.312 64.9 52.312 66.3 61.712" fill="#abe0f9"/>
      <polygon points="66.3 82.712 53.2 82.712 54.7 73.212 64.9 73.212 66.3 82.712" fill="#abe0f9"/>
      <polygon points="79.3 72.212 66.2 72.212 67.6 62.712 77.9 62.712 79.3 72.212" fill="#abe0f9"/>
      <polygon points="79.3 93.212 66.2 93.212 67.6 83.712 77.9 83.712 79.3 93.212" fill="#abe0f9"/>
      <polygon points="53.4 31.412 40.3 31.412 41.7 40.912 51.9 40.912 53.4 31.412" fill="#5bc7f0"/>
      <polygon points="53.4 52.312 40.3 52.312 41.7 61.712 51.9 61.712 53.4 52.312" fill="#5bc7f0"/>
      <polygon points="53.4 73.212 40.3 73.212 41.7 82.712 51.9 82.712 53.4 73.212" fill="#5bc7f0"/>
      <polygon points="66.3 41.912 53.2 41.912 54.7 51.312 64.9 51.312 66.3 41.912" fill="#5bc7f0"/>
      <polygon points="66.3 62.712 53.2 62.712 54.7 72.212 64.9 72.212 66.3 62.712" fill="#5bc7f0"/>
      <polygon points="66.3 83.712 53.2 83.712 54.7 93.212 64.9 93.212 66.3 83.712" fill="#5bc7f0"/>
      <polygon points="79.3 73.212 66.2 73.212 67.6 82.712 77.9 82.712 79.3 73.212" fill="#5bc7f0"/>
      <polygon points="65.3 97.012 64.9 94.312 54.7 94.312 53.7 100.612 65.3 97.012" fill="#abe0f9"/>
      <polygon points="70 95.612 74.2 100.512 76.4 97.812 78.7 98.512 79.3 94.312 66.2 94.312 66.6 96.712 70 95.612" fill="#5bc7f0"/>
      <polygon points="80.7 107.212 84.7 102.912 99.8 98.312 103.2 102.412 105.1 100.212 105.8 100.412 105.6 98.912 91.6 83.112 80.4 95.412 79.8 98.912 80.7 99.112 80.7 107.212" fill="#0371b8"/>
      <polygon points="107.7 109.412 107.7 102.312 105.5 101.612 104.1 103.212 104.1 105.212 99.4 99.712 99.3 99.812 99.4 99.712 85.3 103.912 80.9 108.812 85.7 114.412 92.9 107.112 98.3 100.912 106.9 111.312 109.9 114.912 112.5 114.912 107.7 109.412" fill="#0c1c2c"/>
      <polygon points="98.7 108.012 99.5 111.212 102.7 110.312 100.4 112.612 102.7 114.912 99.5 114.112 98.7 117.312 97.8 114.112 94.7 114.912 97 112.612 94.7 110.312 97.8 111.212 98.7 108.012" fill="#db2428"/>
      <polygon points="68.8 106.812 69.8 110.512 73.5 109.512 70.8 112.212 73.5 114.912 69.8 113.912 68.8 117.612 67.8 113.912 64.1 114.912 66.8 112.212 64.1 109.512 67.8 110.512 68.8 106.812" fill="#db2428"/>
      <polygon points="34.5 105.312 35.7 109.712 40.1 108.512 36.9 111.712 40.1 114.912 35.7 113.712 34.5 118.112 33.4 113.712 29 114.912 32.2 111.712 29 108.512 33.4 109.712 34.5 105.312" fill="#db2428"/>
      <polygon points="79.5 108.412 79.5 100.012 76.8 99.212 75.2 101.112 75.2 103.512 69.6 97.012 69.5 97.112 69.6 97.012 53.1 102.012 48.3 107.212 54.4 114.412 68.4 98.412 78.5 110.612 82 114.912 85 114.912 79.5 108.412" fill="#0c1c2c"/>
      <polygon points="47.1 107.312 47.1 97.412 44 96.412 42 98.712 42 101.412 35.5 93.812 35.4 94.012 35.5 93.812 16.1 99.712 2.1 114.912 17.1 114.912 34 95.512 46 109.912 50.1 114.912 53.6 114.912 47.1 107.312" fill="#0c1c2c"/>
    </g>
    <polygon points="48.3 105.512 52.3 101.112 53.4 94.312 40.3 94.312 40.9 98.212 43.6 95.112 48.3 96.512 48.3 105.512" fill="#5bc7f0"/>
  </g>
</svg>