<svg width="260" height="39" viewBox="0 0 260 39" fill="none" xmlns="http://www.w3.org/2000/svg">
<g clip-path="url(#clip0_143_9266)">
<path d="M63.1781 6.1311L89.115 33.0523L86.3871 35.6875L82.2909 31.45L78.2432 35.3564C76.354 37.1794 73.8689 38.1594 71.247 38.1152H71.2381C68.6162 38.0711 66.1708 37.0073 64.3522 35.1225C62.5292 33.2333 61.5537 30.7526 61.6023 28.1262C61.6508 25.5043 62.719 23.0545 64.6038 21.2315L67.3141 18.6317L69.9492 21.3551L67.2346 23.9594C66.0737 25.0806 65.416 26.5858 65.3895 28.1969C65.3586 29.808 65.959 31.3308 67.0757 32.4917C68.1925 33.6482 69.6932 34.3015 71.2999 34.328H71.3043C72.9155 34.3545 74.4427 33.7497 75.6036 32.6286L79.6469 28.7177L63.1649 11.631V6.13552L63.1781 6.1311ZM15.48 6.80204V32.3946H12.9861V29.6756C11.9488 31.6487 9.88744 32.686 7.26992 32.686C3.18252 32.686 0 29.3578 0 24.8731C0 20.3884 3.18252 17.0956 7.23461 17.0956C10.0905 17.0956 11.9002 18.5081 12.9861 20.4944V6.80204H15.48ZM13.092 24.8687C13.092 21.6509 10.9601 19.3335 7.77312 19.3335C4.58618 19.3335 2.59987 21.6464 2.59987 24.8687C2.59987 28.0909 4.62591 30.4745 7.77312 30.4745C10.9203 30.4745 13.092 28.1218 13.092 24.8687ZM31.8296 25.6632C31.8296 28.5941 29.9846 30.3995 27.164 30.3995C24.7054 30.3995 23.4738 28.9517 23.4738 26.3474V17.4134H20.9402V26.599C20.9402 30.4348 23.2178 32.7124 26.546 32.7124C28.9119 32.7124 30.8276 31.8473 31.8252 29.8566V32.3902H34.3589V17.4178H31.8252V25.6632H31.8296ZM48.1571 17.0912C45.7912 17.0912 43.8402 17.9563 42.8382 19.9824V17.4134H40.3046V32.3858H42.8382V24.1404C42.8382 21.1741 44.7186 19.3997 47.5039 19.3997C49.9978 19.3997 51.2293 20.9181 51.2293 23.5577V32.3814H53.763V23.2664C53.763 19.36 51.4853 17.0823 48.1571 17.0823V17.0912Z" fill="#004D71"/>
<path d="M258.627 29.6446C258.155 30.0772 257.616 30.5142 256.601 30.5142C255.515 30.5142 254.827 29.9007 254.827 27.9099V19.5542H259.025V17.4222H254.827V6.802H252.333V17.4178H250.02V19.5497H252.333V27.8702C252.333 31.4147 254.068 32.7168 256.35 32.7168C258.195 32.7168 259.351 31.9223 260.004 31.2337L258.632 29.6402L258.627 29.6446Z" fill="#3F96B4"/>
<path d="M121.249 19.8234V17.4178H118.716V32.3902H121.249V24.5067C121.249 20.9976 122.984 19.4791 125.12 19.4791C126.061 19.4791 126.714 19.7307 127.182 20.0574L128.157 17.8504C127.469 17.3825 126.674 17.1265 125.553 17.1265C123.823 17.1265 122.203 17.6782 121.249 19.8234Z" fill="#3F96B4"/>
<path d="M106.144 17.0911C103.359 17.0911 101.479 18.1372 100.393 20.128V6.802H97.8989V32.3946H100.393V29.6711C101.43 31.6442 103.492 32.6815 106.109 32.6815C110.196 32.6815 113.379 29.3533 113.379 24.8687C113.379 20.384 110.232 17.0911 106.144 17.0911ZM105.601 30.4745C102.419 30.4745 100.283 28.1218 100.283 24.8687C100.283 21.6155 102.414 19.3335 105.601 19.3335C108.788 19.3335 110.775 21.6508 110.775 24.8687C110.775 28.0865 108.749 30.4745 105.601 30.4745Z" fill="#3F96B4"/>
<path d="M81.9598 10.4304V14.3545C82.7985 14.6635 83.4959 15.1579 84.136 15.82C85.2527 16.9764 85.853 18.5037 85.8221 20.1148C85.7912 21.7259 85.138 23.2311 83.9771 24.3523L83.6239 24.6789L86.2768 27.3891L86.6122 27.0802C88.5014 25.2572 89.5652 22.8074 89.6138 20.1854C89.6623 17.5591 88.6868 15.0784 86.8638 13.1892C85.5131 11.7899 83.8181 10.8453 81.9598 10.4304Z" fill="#3F96B4"/>
<path d="M65.6499 2.33506L63.7695 4.13598L66.4047 6.86386L68.2851 5.06293C70.086 3.3238 72.964 3.36794 74.6987 5.16445C76.4334 6.96097 76.3804 9.83892 74.5795 11.578L72.7124 13.3657L75.3476 16.0936L77.2147 14.3059C80.5208 11.1146 80.6135 5.83539 77.4266 2.53369C74.2396 -0.768011 68.9604 -0.856292 65.6543 2.33506H65.6499Z" fill="#3F96B4"/>
<path d="M202.211 19.8234V17.4178H199.678V32.3902H202.211V24.5067C202.211 20.9976 203.946 19.4791 206.082 19.4791C207.023 19.4791 207.676 19.7307 208.144 20.0574L209.119 17.8504C208.431 17.3825 207.636 17.1265 206.515 17.1265C204.785 17.1265 203.16 17.6782 202.211 19.819V19.8234Z" fill="#3F96B4"/>
<path d="M137.449 17.0911C134.593 17.0911 132.637 18.2122 131.335 19.9867L132.889 21.3992C133.829 20.1323 135.167 19.2275 137.268 19.2275C139.475 19.2275 140.777 20.3486 140.777 23.2442V23.6062H136.111C132.964 23.6062 130.43 25.054 130.43 28.1262C130.43 31.1983 132.743 32.6814 135.93 32.6814C138.239 32.6814 139.762 32.0679 140.777 30.6554V32.3901H143.13V23.2045C143.13 19.0465 140.777 17.0911 137.449 17.0911ZM140.777 27.3978C140.777 29.3488 138.826 30.6157 136.509 30.6157C134.191 30.6157 132.893 29.7108 132.893 28.0114C132.893 26.2016 134.377 25.5175 136.292 25.5175H140.777V27.3978Z" fill="#3F96B4"/>
<path d="M218.892 17.0955C214.513 17.0955 211.15 20.5296 211.15 24.9083C211.15 29.287 214.332 32.6858 219.25 32.6858C222.181 32.6858 224.167 31.6353 225.544 30.0816L223.99 28.5631C223.015 29.649 221.496 30.5539 219.254 30.5539C215.961 30.5539 214.01 28.5984 213.684 25.7426H226.414C226.595 20.7856 223.699 17.0999 218.892 17.0999V17.0955ZM213.719 23.8225C214.116 21.0725 216.032 19.2274 218.892 19.2274C222.039 19.2274 223.668 21.2535 223.884 23.8225H213.719Z" fill="#3F96B4"/>
<path d="M175.489 23.6415C172.849 22.8823 171.944 22.485 171.944 21.0725C171.944 19.916 172.92 19.1568 174.549 19.1568C175.997 19.1568 177.043 19.8057 177.802 20.8562L179.537 19.5188C178.486 18.0356 176.822 17.0955 174.544 17.0955C171.794 17.0955 169.627 18.5786 169.627 21.1829C169.627 24.0034 171.799 24.9436 174.147 25.6322C176.751 26.3914 178.053 26.7534 178.053 28.3822C178.053 29.7549 176.897 30.6245 174.871 30.6245C172.699 30.6245 171.397 29.5386 170.532 28.0908L168.581 29.212C169.556 31.0924 171.693 32.6858 174.981 32.6858C178.742 32.6858 180.441 30.7701 180.441 28.2365C180.441 25.3409 178.018 24.3301 175.484 23.6415H175.489Z" fill="#3F96B4"/>
<path d="M191.031 30.5142C189.945 30.5142 189.256 29.9007 189.256 27.9099V19.5542H193.454V17.4222H189.256V6.802H186.762V17.4178H184.449V19.5497H186.762V27.8702C186.762 31.4147 188.497 32.7168 190.779 32.7168C192.624 32.7168 193.781 31.9223 194.434 31.2337L193.061 29.6402C192.589 30.0728 192.05 30.5098 191.035 30.5098L191.031 30.5142Z" fill="#3F96B4"/>
<path d="M238.459 17.0955C234.081 17.0955 230.717 20.5296 230.717 24.9083C230.717 29.287 233.9 32.6858 238.817 32.6858C241.748 32.6858 243.734 31.6353 245.111 30.0816L243.558 28.5631C242.582 29.649 241.064 30.5539 238.821 30.5539C235.529 30.5539 233.578 28.5984 233.251 25.7426H245.981C246.162 20.7856 243.266 17.0999 238.459 17.0999V17.0955ZM233.286 23.8225C233.684 21.0725 235.599 19.2274 238.459 19.2274C241.607 19.2274 243.235 21.2535 243.452 23.8225H233.286Z" fill="#3F96B4"/>
<path d="M161.134 20.128C160.049 18.1372 158.239 17.0911 155.383 17.0911C151.331 17.0911 148.148 20.4193 148.148 24.8687C148.148 29.318 151.331 32.6815 155.418 32.6815C158.036 32.6815 160.097 31.6442 161.134 29.6711V32.3902H163.628V6.802H161.134V20.128ZM155.926 30.4745C152.779 30.4745 150.753 28.1218 150.753 24.8687C150.753 21.6155 152.779 19.3335 155.926 19.3335C159.073 19.3335 161.245 21.6464 161.245 24.8687C161.245 28.0909 159.113 30.4745 155.926 30.4745Z" fill="#3F96B4"/>
</g>
<defs>
<clipPath id="clip0_143_9266">
<rect width="260" height="38.1152" fill="white"/>
</clipPath>
</defs>
</svg>
