<?xml version="1.0" encoding="utf-8"?>
<!-- Generator: Adobe Illustrator 25.0.0, SVG Export Plug-In . SVG Version: 6.00 Build 0)  -->
<svg version="1.1" id="Layer_1" xmlns="http://www.w3.org/2000/svg" xmlns:xlink="http://www.w3.org/1999/xlink" x="0px" y="0px"
	 viewBox="0 0 170.8 44.8" style="enable-background:new 0 0 170.8 44.8;" xml:space="preserve">
<style type="text/css">
	.st0{fill:#E43D30;}
	.st1{fill:#231F20;}
</style>
<g>
	<g>
		<path d="M17.9,28.5c0-0.4-0.4-0.7-0.7-0.6c-3.3,0.6-6.7,1.2-10,1.8c-0.4,0.1-0.7-0.2-0.7-0.6v-6.9c0-0.3,0.2-0.6,0.5-0.6
			c3-0.5,5.9-1.1,8.8-1.6c0.3-0.1,0.5-0.3,0.5-0.6v-3.4c0-0.4-0.4-0.7-0.7-0.6c-0.6,0.1-1.2,0.2-1.7,0.3c-0.8,0.2-1.7,0.3-2.5,0.5
			c-0.8,0.2-1.6,0.3-2.5,0.4c-0.6,0.1-1.2,0.2-1.7,0.3c-0.4,0.1-0.7-0.2-0.7-0.6V9.5c0-0.3,0.2-0.6,0.5-0.6c3.5-0.6,7-1.3,10.5-1.9
			c0.3-0.1,0.5-0.3,0.5-0.6V1c0-0.4-0.4-0.7-0.7-0.6c-5.5,1-10.9,2-16.4,3C0.5,3.5,0.3,3.7,0.3,4v33.2c0,0.4,0.4,0.7,0.7,0.6
			c5.5-1,10.9-2,16.4-3c0.3-0.1,0.5-0.3,0.5-0.6L17.9,28.5z M2.6,20.5c-0.3,0-0.6-0.3-0.5-0.6c0-0.3,0.3-0.5,0.6-0.5
			c0.3,0,0.6,0.2,0.6,0.6C3.1,20.2,2.9,20.5,2.6,20.5z"/>
		<path class="st0" d="M17,44.4H1.2c-0.5,0-0.9-0.4-0.9-0.9v0c0-0.5,0.4-0.9,0.9-0.9H17c0.5,0,0.9,0.4,0.9,0.9v0
			C17.9,44,17.5,44.4,17,44.4z"/>
	</g>
	<g>
		<path class="st1" d="M41.4,18.1v1.4H47c0.2,0,0.4,0.1,0.6,0.2c0.2,0.1,0.2,0.3,0.2,0.6v1.5c0,0.2-0.1,0.4-0.2,0.5
			c-0.2,0.2-0.4,0.2-0.6,0.2h-5.6v1.6h5.8c0.2,0,0.4,0.1,0.6,0.2c0.2,0.1,0.2,0.3,0.2,0.6v1.5c0,0.2-0.1,0.4-0.2,0.6
			c-0.2,0.2-0.4,0.2-0.6,0.2H38c-0.2,0-0.4-0.1-0.6-0.2c-0.2-0.2-0.2-0.3-0.2-0.6v-0.1V25v-7.7v-1.5c0-0.2,0.1-0.4,0.2-0.6
			c0.2-0.1,0.4-0.2,0.6-0.2h9.3c0.2,0,0.4,0.1,0.6,0.2c0.2,0.1,0.2,0.3,0.2,0.6v1.5c0,0.2-0.1,0.4-0.3,0.5c-0.2,0.2-0.4,0.2-0.6,0.2
			H41.4z"/>
		<path class="st1" d="M56.9,25.1c0-0.2,0.1-0.5,0.4-0.7l0.7-0.9c0.2-0.3,0.4-0.5,0.5-0.6c0.1-0.1,0.3-0.2,0.4-0.2
			c0.1,0,0.3,0,0.4,0.1c0.2,0.1,0.4,0.2,0.7,0.4c0,0,0.4,0.2,1,0.6c0.6,0.4,1.4,0.6,2.4,0.5c0.3,0,0.6-0.1,0.7-0.2
			c0.2-0.1,0.3-0.3,0.3-0.5c0-0.3-0.2-0.5-0.5-0.8c-0.3-0.2-0.8-0.4-1.3-0.4h0c-1.2-0.2-2.1-0.5-2.7-0.8c-0.6-0.3-1.1-0.7-1.4-1.2
			c-0.3-0.5-0.4-1-0.5-1.7c-0.1-0.8,0.1-1.5,0.6-2.1c0.4-0.6,1-1.2,1.8-1.5c0.8-0.4,1.7-0.6,2.7-0.6c0.8,0,1.5,0.1,2.3,0.3
			c0.6,0.2,1.2,0.4,1.7,0.6c0.5,0.3,0.9,0.5,1.2,0.9c0.2,0.2,0.3,0.3,0.3,0.5c0,0.1,0,0.2-0.1,0.4c-0.1,0.1-0.3,0.3-0.5,0.6
			l-0.6,0.6c-0.2,0.2-0.3,0.3-0.4,0.4c-0.1,0.1-0.2,0.1-0.3,0.1c-0.1,0-0.2,0-0.4-0.1c-0.1-0.1-0.3-0.1-0.4-0.2
			c-0.1-0.1-0.3-0.1-0.4-0.2c-0.9-0.5-1.7-0.8-2.4-0.8c-0.4,0-0.8,0.1-1,0.3c-0.2,0.2-0.4,0.4-0.4,0.7c0,0.3,0.1,0.5,0.4,0.7
			c0.2,0.2,0.6,0.3,1,0.4c1.9,0.3,3.3,0.8,4.2,1.5c0.9,0.7,1.4,1.6,1.4,2.6c0,0.7-0.2,1.4-0.7,2.1c-0.5,0.7-1.2,1.2-2,1.6
			c-0.9,0.4-1.8,0.6-2.9,0.6c-1.8,0-3.5-0.6-5.3-1.7C57.2,25.8,56.9,25.4,56.9,25.1z"/>
		<path class="st1" d="M88.2,14.9c0.2,0,0.4,0.1,0.6,0.2c0.2,0.1,0.3,0.3,0.3,0.5v2.1c0,0.2-0.1,0.4-0.3,0.5
			c-0.2,0.2-0.4,0.2-0.6,0.2h-3.1v8c0,0.2-0.1,0.4-0.2,0.6c-0.2,0.2-0.3,0.2-0.6,0.2h-2.6c-0.2,0-0.4-0.1-0.6-0.2
			c-0.2-0.1-0.2-0.3-0.2-0.6l0.1-8.1h-3.2c-0.2,0-0.5-0.1-0.6-0.2c-0.2-0.2-0.2-0.3-0.2-0.5v-2.1c0-0.2,0.1-0.4,0.2-0.5
			c0.2-0.1,0.4-0.2,0.6-0.2H88.2z"/>
		<path class="st1" d="M95.9,26.7c0-0.2,0-0.4,0.1-0.6c0.1-0.2,0.1-0.3,0.1-0.3l4.4-10c0.1-0.2,0.3-0.4,0.5-0.6
			c0.2-0.1,0.5-0.2,0.8-0.2h1.6h1.2c0.3,0,0.6,0.1,0.8,0.2c0.2,0.2,0.4,0.3,0.5,0.6l4.4,10c0,0.1,0.1,0.2,0.1,0.4
			c0.1,0.2,0.1,0.4,0.1,0.5c0,0.4-0.3,0.7-0.8,0.7h-2.7c-0.3,0-0.5,0-0.7-0.1c-0.2-0.1-0.3-0.2-0.4-0.4l-0.6-1.8h-4.4l-0.6,1.8
			c-0.1,0.2-0.2,0.3-0.4,0.4c-0.2,0.1-0.4,0.1-0.7,0.1h-2.7C96.1,27.3,95.9,27.1,95.9,26.7z M103.5,22.1h1.3l-1.6-4.2l-1.5,4.2
			H103.5z"/>
		<path class="st1" d="M128.6,14.9c0.2,0,0.4,0.1,0.6,0.2c0.2,0.1,0.3,0.3,0.3,0.5v2.1c0,0.2-0.1,0.4-0.3,0.5
			c-0.2,0.2-0.4,0.2-0.6,0.2h-3.1v8c0,0.2-0.1,0.4-0.2,0.6c-0.2,0.2-0.3,0.2-0.6,0.2h-2.6c-0.2,0-0.4-0.1-0.6-0.2
			c-0.2-0.1-0.2-0.3-0.2-0.6l0.1-8.1h-3.2c-0.2,0-0.5-0.1-0.6-0.2c-0.2-0.2-0.2-0.3-0.2-0.5v-2.1c0-0.2,0.1-0.4,0.2-0.5
			c0.2-0.1,0.4-0.2,0.6-0.2H128.6z"/>
		<path class="st1" d="M142.5,18.1v1.4h5.6c0.2,0,0.4,0.1,0.6,0.2c0.2,0.1,0.2,0.3,0.2,0.6v1.5c0,0.2-0.1,0.4-0.2,0.5
			c-0.2,0.2-0.4,0.2-0.6,0.2h-5.6v1.6h5.8c0.2,0,0.4,0.1,0.6,0.2c0.2,0.1,0.2,0.3,0.2,0.6v1.5c0,0.2-0.1,0.4-0.2,0.6
			c-0.2,0.2-0.4,0.2-0.6,0.2H139c-0.2,0-0.4-0.1-0.6-0.2c-0.2-0.2-0.2-0.3-0.2-0.6v-0.1V25v-7.7v-1.5c0-0.2,0.1-0.4,0.2-0.6
			c0.2-0.1,0.4-0.2,0.6-0.2h9.3c0.2,0,0.4,0.1,0.6,0.2c0.2,0.1,0.2,0.3,0.2,0.6v1.5c0,0.2-0.1,0.4-0.3,0.5c-0.2,0.2-0.4,0.2-0.6,0.2
			H142.5z"/>
		<path class="st1" d="M157.2,26.6V15.7c0-0.2,0.1-0.4,0.3-0.6c0.2-0.2,0.4-0.2,0.6-0.2h5.3c1.2,0,2.4,0.3,3.5,0.8
			c1.1,0.6,2,1.3,2.6,2.3c0.7,1,1,2,1,3.1c0,1.1-0.3,2.2-1,3.1c-0.7,1-1.5,1.7-2.6,2.3c-1.1,0.6-2.3,0.8-3.5,0.8h-5.3
			c-0.2,0-0.4-0.1-0.6-0.2C157.3,27,157.2,26.8,157.2,26.6z M163.5,23.6c0.4,0,0.8-0.1,1.2-0.3c0.4-0.2,0.7-0.5,0.9-0.9
			c0.2-0.4,0.3-0.8,0.3-1.3c0-0.5-0.1-0.9-0.3-1.3c-0.2-0.4-0.5-0.7-0.9-0.9c-0.4-0.2-0.8-0.3-1.2-0.3h-1.8c-0.1,0-0.2,0-0.2,0.1
			c-0.1,0.1-0.1,0.1-0.1,0.2v4.5c0,0.1,0,0.2,0.1,0.2c0.1,0.1,0.1,0.1,0.2,0.1H163.5z"/>
	</g>
</g>
</svg>
