<svg width="97" height="25" viewBox="0 0 97 25" fill="none" xmlns="http://www.w3.org/2000/svg">
<g clip-path="url(#clip0_643_6140)">
<path fill-rule="evenodd" clip-rule="evenodd" d="M66.9793 24.9996C67.0028 24.9993 67.0263 24.999 67.0497 24.9986L67.0504 25.0009C72.1799 24.8557 76.9341 23.7444 80.938 20.61C82.3739 22.1403 84.1078 23.3759 86.1118 24.1316C87.6335 24.713 89.2748 24.9929 90.8946 24.9916V21.1903C88.5096 21.2005 86.271 20.3328 84.4832 18.7566C84.2093 18.5119 83.9454 18.2536 83.6921 17.9833C86.3479 14.905 88.0346 10.9615 87.9098 6.82716C87.8232 4.6148 87.0592 2.15564 85.0549 0.836369C83.2799 -0.327694 80.8465 -0.256451 79.0982 0.924151C77.8847 1.72436 77.0392 3.11106 76.6241 4.38581C75.6347 7.47089 76.0345 10.7799 76.9844 13.7886C77.4884 15.347 78.1991 16.8675 79.103 18.2597C77.5433 19.5523 75.8214 20.4357 73.9736 21.0267C74.8293 19.6191 75.3177 17.915 75.3177 16.0437C75.3177 10.9447 71.6925 7.08742 66.8907 7.08742C64.3389 7.08742 62.2238 8.26039 60.8473 10.1394V1.45158H57.0871V24.598H60.8473V21.948C62.2238 23.8258 64.3389 25 66.8907 25C66.9203 25 66.9498 24.9998 66.9793 24.9996ZM84.1814 5.38067C85.1361 8.70122 83.8616 12.5131 81.7844 15.3906C80.3547 12.9021 79.6185 9.95477 79.7998 7.17701C79.8851 6.16052 80.1436 5.03463 80.7434 4.29166C81.2221 3.67846 81.976 3.49018 82.6827 3.63902C83.462 3.83749 83.9 4.56519 84.1814 5.38067ZM66.1508 10.7107C69.1725 10.7107 71.4225 13.0248 71.4225 16.0437C71.4225 19.0626 69.1725 21.3768 66.1508 21.3768C63.1292 21.3768 60.846 19.0626 60.846 16.0437C60.846 13.0248 63.1292 10.7107 66.1508 10.7107Z" fill="#1E1D21"/>
<path d="M15.3236 3.11689C15.3236 1.92357 16.2264 1.04956 17.3928 1.04956C18.5592 1.04956 19.4913 1.92357 19.4913 3.11689C19.4913 4.31021 18.5885 5.18421 17.3928 5.18421C16.1971 5.18421 15.3236 4.28222 15.3236 3.11689Z" fill="#1E1D21"/>
<path d="M14.2361 24.5967V20.8399H3.99579V1.45158H0V24.5967H14.2361Z" fill="#1E1D21"/>
<path d="M24.4395 7.48944H20.5787C20.175 9.43463 20.5787 11.7831 21.7871 14.6341L26.0516 24.5967H29.9799L37.266 7.48944H32.9684L27.9654 20.0015L25.4136 13.8288C24.4395 11.3137 24.0702 9.2667 24.4395 7.48944Z" fill="#1E1D21"/>
<path fill-rule="evenodd" clip-rule="evenodd" d="M55.7934 20.9748V24.598H54.7187C52.3018 24.598 50.7904 23.5917 50.3205 21.7126C48.944 23.7253 46.7615 25 44.1422 25C39.3072 25 35.7151 21.1427 35.7151 16.0437C35.7151 10.9447 39.3072 7.08743 44.1422 7.08743C46.6609 7.08743 48.7759 8.26167 50.1524 10.1394V7.48944H53.9126V19.3972C53.9126 20.3705 54.4831 20.9735 55.4903 20.9735H55.7921L55.7934 20.9748ZM50.1524 16.0437C50.1524 13.0248 47.9024 10.7107 44.8807 10.7107C41.859 10.7107 39.5759 13.0248 39.5759 16.0437C39.5759 19.0626 41.8259 21.3768 44.8807 21.3768C47.9355 21.3768 50.1524 19.0626 50.1524 16.0437Z" fill="#1E1D21"/>
<path d="M15.5273 7.48944H19.2875V24.5967H15.5273V7.48944Z" fill="#1E1D21"/>
<path d="M94.7229 20.8659C93.5565 20.8659 92.6537 21.7399 92.6537 22.9332C92.6537 24.0985 93.5272 25.0005 94.7229 25.0005C95.9186 25.0005 96.8214 24.1265 96.8214 22.9332C96.8214 21.7399 95.8893 20.8659 94.7229 20.8659Z" fill="#1E1D21"/>
<path d="M94.4437 1.53516V1.88478H94.006V3.50884H93.6351V1.88478H93.2012V1.53516H94.4437ZM94.6959 1.53516H95.3265L95.6974 2.82839L96.0683 1.53516H96.7099V3.50884H96.339V1.92613L95.8643 3.50884H95.5342L95.0594 1.92613V3.50884H94.6885V1.53516H94.6959Z" fill="#1E1D21"/>
</g>
<defs>
<clipPath id="clip0_643_6140">
<rect width="96.8202" height="25" fill="white"/>
</clipPath>
</defs>
</svg>
