<svg xmlns="http://www.w3.org/2000/svg" viewBox="0 0 196 100"><defs><style>.a{fill:#3c4f6e;}.b{fill:#5e5f61;}</style></defs><path class="a" d="M13.84,38.9A44.7,44.7,0,0,0,14,44.2h9c3.56,0,6.1-.78,7.62-2.2a23.81,23.81,0,0,0,4.58-7.42,5,5,0,0,1,2,0c-1,5.29-1.66,9.49-2,12.33-8.26,0-16.39-.07-24.58-.07-2.42,0-7.31.13-9.85.13a10.12,10.12,0,0,1,0-2.06c5.91-.58,6.16-.52,6.16-5.17v-30c0-5.36-.32-5.49-6.16-6a10.12,10.12,0,0,1,0-2.06c2.6,0,7.3.12,9.65.12s7.31-.12,9.79-.12a5.49,5.49,0,0,1,0,2.06c-6,.58-6.29.52-6.29,5.17Z"/><path class="a" d="M45.73,1.77c2.42,0,7.25-.12,9.79-.12a5.17,5.17,0,0,1,0,2c-5.91.58-6.23.58-6.23,5.16V29.93c0,9.68,4.2,14.27,12.07,14.27,8.33,0,12.58-5.1,12.58-16.15V10.36c0-6-.38-6-6.73-6.65a5.17,5.17,0,0,1,0-2c2.29,0,6,.13,8,.13s5.79-.13,8.14-.13a5.6,5.6,0,0,1,0,2c-5.91.65-6.29.58-6.29,5.81V29.41c0,11.49-5.78,18.21-17.67,18.21-10.16,0-17.09-5-17.09-15.76V9.65c0-5.36-.31-5.49-6.29-6a5.6,5.6,0,0,1,0-2C38.55,1.65,43.26,1.77,45.73,1.77Z"/><path class="a" d="M119.94,45.1c-4.7,1.36-9.34,2.71-14.86,2.71C91,47.81,82,38.84,82,24.89S91,1,105.14,1a37.69,37.69,0,0,1,9.34,1.29,18.61,18.61,0,0,0,4.19.78A9.09,9.09,0,0,0,120,2.94c.12,3.81.31,7.81.63,12.2a8.57,8.57,0,0,1-2.16.13c-1.65-7.81-5.91-11.69-13-11.69-11.38,0-15.57,10.08-15.57,20.66,0,11.43,4.77,20.93,16,20.93,7,0,11.12-3.69,13-11.69.7,0,1.4,0,2.23.06C120.58,37.29,120.2,41.1,119.94,45.1Z"/><path class="a" d="M141.1,38.9c0,5.43.06,5.49,6.29,6a5.49,5.49,0,0,1,0,2.06c-2.6,0-7.37-.13-9.78-.13s-7.12.13-9.85.13a11.8,11.8,0,0,1,0-2.06c6.1-.58,6.35-.52,6.35-5.17v-30c0-5.36-.32-5.49-6.35-6a11.8,11.8,0,0,1,0-2.06c2.6,0,7.56.12,10,.12s7.18-.12,9.66-.12a5.49,5.49,0,0,1,0,2.06c-6,.58-6.29.52-6.29,5.17Z"/><path class="a" d="M170,1.65c16.65,0,25.35,7.36,25.35,21.24,0,15.3-10.61,24.08-25.6,24.08-1.85,0-6.29-.13-8.52-.13-2,0-7.3.13-9.78.13a10.12,10.12,0,0,1,0-2.06c5.91-.58,6.16-.52,6.16-5.17v-30c0-5.36-.32-5.49-6.16-6a10.12,10.12,0,0,1,0-2.06c2.67,0,7.37.12,9.85.12S167.79,1.65,170,1.65Zm-5.4,37.25c0,2.13,0,3.62.06,4.52a22.5,22.5,0,0,0,6.29.91c11.06,0,16.71-8.66,16.71-20.28,0-12.07-6.1-19.76-18.11-19.76-2,0-4.12.26-4.95.33Z"/><path class="b" d="M16.64,85.34a3.5,3.5,0,0,0-3.24-2.15L12.12,83v9.73c0,4.19.05,4.24,4.66,4.63a4.3,4.3,0,0,1,0,1.6c-2,0-5.54-.1-7.41-.1s-5.64.1-7.55.1a4.3,4.3,0,0,1,0-1.6c4.71-.44,4.9-.39,4.9-4V70.18c0-4.09-.29-4.24-4.9-4.59a4.3,4.3,0,0,1,0-1.6c2,0,5.84.1,7.7.1,1.23,0,5.74-.15,7-.15,6.23,0,11.82,2.2,11.82,9,0,4.19-2.69,7.58-7.85,9.27v.1a9.18,9.18,0,0,1,1.67,2l5.15,7.58c3.39,4.94,4,5.14,8.2,5.53a4.3,4.3,0,0,1,0,1.6c-2,0-5.35-.1-7.17-.1-.78,0-1.61,0-2.6,0ZM12.12,81a12,12,0,0,0,2.6.25c4.57,0,7.76-2.8,7.76-7.73S19.87,66,14.87,66a27.19,27.19,0,0,0-2.75.2Z"/><path class="b" d="M63.5,64c.24,2.45.64,5,1.08,7.93a8.76,8.76,0,0,1-1.62,0,10.47,10.47,0,0,0-3-4.39c-1.23-.94-2.9-1.39-5.45-1.39H48.09V79.75h2.7c4.66,0,5.64-.45,6.33-5.34a5.2,5.2,0,0,1,1.67,0c-.15,5.44-.1,5.54-.1,6.49l.1,6.58a4.68,4.68,0,0,1-1.67,0C56.48,82.24,55.45,82,51.23,82H48.09V92.77a33.1,33.1,0,0,0,.1,4h6.72c3.29,0,5.1-.55,6.43-1.7A17.18,17.18,0,0,0,64.73,90a7.72,7.72,0,0,1,1.52,0c-.69,3.74-1.13,6.74-1.43,8.93-5.84,0-14.82,0-18.15,0-4.62,0-6.14.1-8.74.1a8.55,8.55,0,0,1,0-1.6c4.57-.44,4.76-.44,4.76-4V70.23c0-4.14-.24-4.24-4.76-4.64a8.55,8.55,0,0,1,0-1.6c3.39,0,2.36.1,10,.1S62.66,64,63.5,64Z"/><path class="b" d="M77.14,85.93l-2.45,6.89A9,9,0,0,0,74,95.51c0,1.45,1.23,1.59,4.32,1.89a8.55,8.55,0,0,1,0,1.6c-.79,0-1.87,0-3.24,0s-2.5,0-3.34,0c-1.86,0-3.43.1-5.4.1a10.68,10.68,0,0,1,0-1.6c3.64-.39,4.08-.54,6-5.68L83,64.09a9.1,9.1,0,0,1,2.6-.4L96.13,92.17C97.9,97,98,97,101.92,97.4a8.55,8.55,0,0,1,0,1.6c-2.31,0-4.76-.1-7.16-.1-1,0-2.65,0-3.93,0s-2.5,0-3.58,0a4.3,4.3,0,0,1,0-1.6c3.19-.3,4.27-.39,4.27-1.64A7.63,7.63,0,0,0,91,93.61l-2.8-7.68Zm.74-2.09h9.57L82.64,70.58Z"/><path class="b" d="M113.75,92.77a38.52,38.52,0,0,0,.09,4.09h7c2.75,0,4.71-.6,5.89-1.7a18.26,18.26,0,0,0,3.53-5.73,3.94,3.94,0,0,1,1.53,0c-.79,4.08-1.28,7.33-1.57,9.52-6.38,0-12.66,0-19,0-1.86,0-5.64.1-7.6.1a8.55,8.55,0,0,1,0-1.6c4.56-.44,4.76-.39,4.76-4V70.23c0-4.14-.25-4.24-4.76-4.64a8.55,8.55,0,0,1,0-1.6c2,0,5.64.1,7.46.1s5.64-.1,7.55-.1a4.3,4.3,0,0,1,0,1.6c-4.66.45-4.85.4-4.85,4Z"/><path class="b" d="M157.42,63.94c.25,2.7.49,5.64.88,8.83a8.76,8.76,0,0,1-1.62,0c-1.86-4.54-3.14-6.58-8.29-6.58h-3.48V92.77c0,4.19.09,4.24,5,4.63a4.3,4.3,0,0,1,0,1.6c-2.06,0-5.84-.1-7.75-.1s-5.6.1-7.66.1a8.55,8.55,0,0,1,0-1.6c4.86-.44,5-.39,5-4V66.19H136c-5.21,0-6.58,2.09-8.3,6.58a8.24,8.24,0,0,1-1.57,0c.39-3.19.74-6.08,1-8.83,4.27.25,9.57.25,15.12.25S153.2,64.19,157.42,63.94Z"/><path class="b" d="M177.64,81.6l6.47-12.17a5.68,5.68,0,0,0,.89-2.25c0-1-1.23-1.19-4.47-1.59a8.55,8.55,0,0,1,0-1.6c1.57,0,4.86.1,6.43.1,2.06,0,3.73-.1,5.79-.1a8.55,8.55,0,0,1,0,1.6c-3.78.4-4.17.65-6.82,5.43l-7.21,13.12v8.63c0,4.19.05,4.24,4.85,4.63a4.3,4.3,0,0,1,0,1.6c-2.06,0-5.74-.1-7.6-.1s-5.5.1-7.56.1a8.55,8.55,0,0,1,0-1.6c4.71-.44,4.91-.39,4.91-4V84.59l-7.46-13.87c-2.4-4.48-2.45-4.73-6.23-5.13a8.55,8.55,0,0,1,0-1.6c2.35,0,4.91.1,7.31.1,2.06,0,4.81-.1,7.16-.1a8.55,8.55,0,0,1,0,1.6c-2.84.25-3.87.5-3.87,1.44a6.59,6.59,0,0,0,1,2.35Z"/><rect class="b" x="35.89" y="56.15" width="117.75" height="0.91"/></svg>