<svg width="256" height="76" viewBox="0 0 256 76" fill="none" xmlns="http://www.w3.org/2000/svg">
<path d="M7.89996 27.9H0.699951V35.1H7.89996V27.9Z" fill="#97D5CC"/>
<path d="M16.9 18.9H9.69995V26.1H16.9V18.9Z" fill="#97D5CC"/>
<path d="M25.9 9.89996H18.7V17.1H25.9V9.89996Z" fill="#97D5CC"/>
<path d="M16.9 36.9H9.69995V44.1H16.9V36.9Z" fill="#178A7C"/>
<path d="M25.9 36.9H18.7V44.1H25.9V36.9Z" fill="#178A7C"/>
<path d="M34.9 36.9H27.7V44.1H34.9V36.9Z" fill="#178A7C"/>
<path d="M25.9 27.9H18.7V35.1H25.9V27.9Z" fill="#178A7C"/>
<path d="M34.9 27.9H27.7V35.1H34.9V27.9Z" fill="#178A7C"/>
<path d="M34.9 18.9H27.7V26.1H34.9V18.9Z" fill="#178A7C"/>
<path d="M43.8999 18.9H36.7V26.1H43.8999V18.9Z" fill="#178A7C"/>
<path d="M43.8999 36.9H36.7V44.1H43.8999V36.9Z" fill="#178A7C"/>
<path d="M43.8999 27.9H36.7V35.1H43.8999V27.9Z" fill="#178A7C"/>
<path d="M43.8999 9.89996H36.7V17.1H43.8999V9.89996Z" fill="#178A7C"/>
<path d="M7.89996 36.9H0.699951V44.1H7.89996V36.9Z" fill="#27B6A3"/>
<path d="M16.9 27.9H9.69995V35.1H16.9V27.9Z" fill="#27B6A3"/>
<path d="M25.9 18.9H18.7V26.1H25.9V18.9Z" fill="#27B6A3"/>
<path d="M43.8999 0.899963H36.7V8.09996H43.8999V0.899963Z" fill="#27B6A3"/>
<path d="M73.8999 10.4C73.8999 11.9 73.5999 13.3 73.0999 14.6C72.5999 15.9 71.7999 16.9 70.8999 17.8C69.9999 18.7 68.8999 19.4 67.5999 19.9C66.2999 20.4 64.8999 20.6 63.3999 20.6C61.8999 20.6 60.4999 20.4 59.1999 19.9C57.8999 19.4 56.7999 18.7 55.8999 17.8C54.9999 16.9 54.1999 15.8 53.6999 14.6C53.1999 13.3 52.8999 11.9 52.8999 10.4C52.8999 8.89999 53.1999 7.49998 53.6999 6.19998C54.1999 4.99998 54.9999 3.89998 55.8999 2.99998C56.7999 2.09998 57.8999 1.49998 59.1999 0.999985C60.4999 0.499985 61.8999 0.299988 63.3999 0.299988C64.8999 0.299988 66.2999 0.499985 67.5999 0.999985C68.8999 1.49998 69.9999 2.09998 70.8999 2.99998C71.7999 3.89998 72.5999 4.89998 73.0999 6.19998C73.5999 7.49998 73.8999 8.89999 73.8999 10.4ZM68.8999 10.4C68.8999 9.59999 68.7999 8.79998 68.4999 8.09998C68.1999 7.39998 67.8999 6.79998 67.3999 6.19998C66.8999 5.69998 66.2999 5.29998 65.6999 4.99998C64.9999 4.69998 64.2999 4.59998 63.4999 4.59998C62.6999 4.59998 61.8999 4.69998 61.2999 4.99998C60.5999 5.29998 59.9999 5.69998 59.5999 6.19998C59.0999 6.69998 58.6999 7.29998 58.4999 8.09998C58.1999 8.79998 58.0999 9.59999 58.0999 10.4C58.0999 11.3 58.1999 12.1 58.4999 12.8C58.7999 13.5 59.0999 14.2 59.5999 14.7C60.0999 15.2 60.6999 15.6 61.2999 15.9C61.9999 16.2 62.6999 16.3 63.4999 16.3C64.2999 16.3 65.0999 16.2 65.6999 15.9C66.3999 15.6 66.9999 15.2 67.3999 14.7C67.8999 14.2 68.2999 13.5 68.4999 12.8C68.6999 12.1 68.8999 11.3 68.8999 10.4Z" fill="black"/>
<path d="M91.6 6.79999C91.6 7.89999 91.4 8.89998 91 9.59998C90.6 10.4 90 11 89.3 11.5C88.6 12 87.8 12.3 86.8 12.5C85.9 12.7 84.9 12.8 83.9 12.8H81.6V20.1H77V0.799988H84.1C85.2 0.799988 86.1 0.899983 87.1 1.09998C88 1.29998 88.8 1.59998 89.5 2.09998C90.2 2.59998 90.7 3.19999 91.1 3.89999C91.4 4.79999 91.6 5.69999 91.6 6.79999ZM86.9 6.89999C86.9 6.39999 86.8 6.09999 86.6 5.79999C86.4 5.49999 86.2 5.29998 85.9 5.09998C85.6 4.89998 85.2 4.79999 84.9 4.79999C84.5 4.69999 84.1 4.69998 83.7 4.69998H81.7V9.19998H83.7C84.1 9.19998 84.6 9.19998 85 9.09998C85.4 8.99998 85.8 8.89998 86.1 8.69998C86.4 8.49998 86.7 8.29998 86.8 7.99998C86.9 7.69998 86.9 7.29999 86.9 6.89999Z" fill="black"/>
<path d="M109 6.79999C109 7.89999 108.8 8.89998 108.4 9.59998C108 10.4 107.4 11 106.7 11.5C106 12 105.2 12.3 104.2 12.5C103.3 12.7 102.3 12.8 101.3 12.8H98.9998V20.1H94.2998V0.799988H101.4C102.5 0.799988 103.4 0.899983 104.4 1.09998C105.3 1.29998 106.1 1.59998 106.8 2.09998C107.5 2.59998 108 3.19999 108.4 3.89999C108.8 4.79999 109 5.69999 109 6.79999ZM104.3 6.89999C104.3 6.39999 104.2 6.09999 104 5.79999C103.8 5.49999 103.6 5.29998 103.3 5.09998C103 4.89998 102.6 4.79999 102.3 4.79999C101.9 4.69999 101.5 4.69998 101.1 4.69998H99.0998V9.19998H101.1C101.5 9.19998 102 9.19998 102.4 9.09998C102.8 8.99998 103.2 8.89998 103.5 8.69998C103.8 8.49998 104.1 8.29998 104.2 7.99998C104.2 7.69998 104.3 7.29999 104.3 6.89999Z" fill="black"/>
<path d="M131.7 10.4C131.7 11.9 131.4 13.3 130.9 14.6C130.4 15.9 129.6 16.9 128.7 17.8C127.8 18.7 126.7 19.4 125.4 19.9C124.1 20.4 122.7 20.6 121.2 20.6C119.7 20.6 118.3 20.4 117 19.9C115.7 19.4 114.6 18.7 113.7 17.8C112.8 16.9 112 15.8 111.5 14.6C111 13.3 110.7 11.9 110.7 10.4C110.7 8.89999 111 7.49998 111.5 6.19998C112 4.99998 112.8 3.89998 113.7 2.99998C114.6 2.09998 115.7 1.49998 117 0.999985C118.3 0.499985 119.7 0.299988 121.2 0.299988C122.7 0.299988 124.1 0.499985 125.4 0.999985C126.7 1.49998 127.8 2.09998 128.7 2.99998C129.6 3.89998 130.4 4.89998 130.9 6.19998C131.5 7.49998 131.7 8.89999 131.7 10.4ZM126.8 10.4C126.8 9.59999 126.7 8.79998 126.4 8.09998C126.1 7.39998 125.8 6.79998 125.3 6.19998C124.8 5.69998 124.2 5.29998 123.6 4.99998C122.9 4.69998 122.2 4.59998 121.4 4.59998C120.6 4.59998 119.8 4.69998 119.2 4.99998C118.5 5.29998 117.9 5.69998 117.5 6.19998C117 6.69998 116.6 7.29998 116.4 8.09998C116.1 8.79998 116 9.59999 116 10.4C116 11.3 116.1 12.1 116.4 12.8C116.7 13.5 117 14.2 117.5 14.7C118 15.2 118.6 15.6 119.2 15.9C119.9 16.2 120.6 16.3 121.4 16.3C122.2 16.3 123 16.2 123.6 15.9C124.3 15.6 124.9 15.2 125.3 14.7C125.8 14.2 126.2 13.5 126.4 12.8C126.6 12.1 126.8 11.3 126.8 10.4Z" fill="black"/>
<path d="M144.9 20.2L140.7 12.5H139.1V20.2H134.6V0.899963H142C142.9 0.899963 143.8 0.999959 144.7 1.19996C145.6 1.39996 146.4 1.69996 147.1 2.19996C147.8 2.69996 148.4 3.29996 148.8 3.99996C149.2 4.69996 149.4 5.69997 149.4 6.79996C149.4 8.09997 149 9.19996 148.3 10.1C147.6 11 146.6 11.6 145.4 12L150.4 20.3H144.9V20.2ZM144.7 6.79996C144.7 6.29996 144.6 5.99996 144.4 5.69996C144.2 5.39996 144 5.19996 143.7 4.99996C143.4 4.79996 143.1 4.69996 142.7 4.69996C142.3 4.59996 142 4.59996 141.6 4.59996H139.1V9.09996H141.3C141.7 9.09996 142.1 9.09996 142.5 8.99996C142.9 8.89996 143.3 8.79996 143.6 8.69996C143.9 8.49996 144.2 8.29996 144.4 7.99996C144.6 7.69996 144.7 7.29996 144.7 6.79996Z" fill="black"/>
<path d="M161.2 4.89996V20.2H156.5V4.89996H151.1V0.899963H166.6V4.89996H161.2Z" fill="black"/>
<path d="M185.5 16.1C185.1 17.1 184.6 17.9 183.8 18.6C183.1 19.3 182.2 19.8 181.2 20.2C180.2 20.6 179 20.8 177.8 20.8C176.5 20.8 175.4 20.6 174.4 20.2C173.4 19.8 172.5 19.3 171.8 18.6C171.1 17.9 170.5 17.1 170.2 16.1C169.8 15.1 169.6 14.1 169.6 12.9V0.899963H174.2V12.5C174.2 13 174.3 13.5 174.4 14C174.5 14.5 174.7 14.9 175 15.3C175.3 15.7 175.7 16 176.1 16.2C176.6 16.4 177.1 16.5 177.8 16.5C178.5 16.5 179 16.4 179.5 16.2C180 16 180.3 15.7 180.6 15.3C180.9 14.9 181.1 14.5 181.2 14C181.3 13.5 181.4 13 181.4 12.5V0.899963H186.1V12.9C186.1 14.1 185.9 15.1 185.5 16.1Z" fill="black"/>
<path d="M202 20.2L194.2 7.59996H194.1L194.2 20.2H189.7V0.899963H195L202.7 13.5H202.8L202.7 0.899963H207.2V20.2H202Z" fill="black"/>
<path d="M211.3 20.2V0.899963H216V20.2H211.3Z" fill="black"/>
<path d="M228.8 4.89996V20.2H224.1V4.89996H218.7V0.899963H234.2V4.89996H228.8Z" fill="black"/>
<path d="M247.7 12V20.2H243V12L235.8 0.899963H241.4L245.5 7.99996L249.6 0.899963H255L247.7 12Z" fill="black"/>
<path d="M54.7 44.1V24.8H59.3999V44.1H54.7Z" fill="#939598"/>
<path d="M76.2 44.1L68.4 31.5H68.3L68.4 44.1H64V24.8H69.3L77 37.4H77.1L77 24.8H81.5V44.1H76.2Z" fill="#939598"/>
<path d="M96.3999 29.8C95.9999 29.3 95.4999 28.9 94.7999 28.6C94.1999 28.3 93.4999 28.2 92.8999 28.2C92.5999 28.2 92.2999 28.2 91.9999 28.3C91.6999 28.4 91.3999 28.5 91.0999 28.6C90.7999 28.8 90.5999 29 90.4999 29.2C90.2999 29.4 90.1999 29.8 90.1999 30.1C90.1999 30.4 90.2999 30.7 90.3999 30.9C90.4999 31.1 90.6999 31.3 90.9999 31.5C91.2999 31.7 91.5999 31.8 91.8999 31.9C92.2999 32 92.6999 32.2 93.0999 32.3C93.7999 32.5 94.3999 32.8 95.0999 33C95.7999 33.3 96.4999 33.6 96.9999 34C97.5999 34.4 98.0999 35 98.3999 35.6C98.7999 36.2 98.9999 37 98.9999 38C98.9999 39.1 98.7999 40.1 98.3999 40.9C97.9999 41.7 97.3999 42.4 96.7999 42.9C96.0999 43.4 95.2999 43.8 94.3999 44.1C93.4999 44.4 92.5999 44.5 91.5999 44.5C90.1999 44.5 88.8999 44.3 87.5999 43.8C86.2999 43.3 85.1999 42.6 84.3999 41.7L87.4999 38.6C87.9999 39.2 88.5999 39.7 89.3999 40.1C90.1999 40.5 90.8999 40.7 91.6999 40.7C91.9999 40.7 92.3999 40.7 92.6999 40.6C92.9999 40.5 93.2999 40.4 93.5999 40.2C93.7999 40 93.9999 39.8 94.1999 39.5C94.2999 39.2 94.3999 38.9 94.3999 38.5C94.3999 38.1 94.2999 37.8 94.0999 37.6C93.8999 37.3 93.6999 37.1 93.2999 36.9C92.9999 36.7 92.4999 36.5 91.9999 36.3C91.4999 36.1 90.8999 35.9 90.2999 35.7C89.6999 35.5 89.0999 35.3 88.4999 35C87.8999 34.7 87.3999 34.4 86.8999 34C86.3999 33.6 86.0999 33.1 85.7999 32.4C85.4999 31.8 85.3999 31 85.3999 30.2C85.3999 29.1 85.5999 28.2 86.0999 27.4C86.4999 26.6 87.0999 26 87.7999 25.5C88.4999 25 89.2999 24.6 90.1999 24.4C91.0999 24.2 91.9999 24.1 92.8999 24.1C93.9999 24.1 95.0999 24.3 96.1999 24.7C97.2999 25.1 98.2999 25.7 99.1999 26.5L96.3999 29.8Z" fill="#939598"/>
<path d="M103.1 44.1V24.8H107.8V44.1H103.1Z" fill="#939598"/>
<path d="M126.2 44.1C124.9 44.4 123.6 44.6 122.1 44.6C120.6 44.6 119.1 44.4 117.8 43.9C116.5 43.4 115.4 42.7 114.4 41.8C113.5 40.9 112.7 39.8 112.2 38.6C111.7 37.4 111.4 36 111.4 34.4C111.4 32.9 111.7 31.5 112.2 30.2C112.7 28.9 113.5 27.9 114.4 27C115.3 26.1 116.5 25.4 117.7 25C119 24.5 120.3 24.3 121.8 24.3C123.3 24.3 124.7 24.5 126.1 25C127.4 25.5 128.5 26.1 129.3 26.9L126.4 30.3C125.9 29.8 125.3 29.3 124.6 29C123.9 28.7 123 28.5 122.1 28.5C121.3 28.5 120.5 28.6 119.8 29C119.1 29.3 118.5 29.7 118 30.3C117.5 30.8 117.1 31.5 116.8 32.2C116.5 32.9 116.4 33.7 116.4 34.6C116.4 35.5 116.5 36.3 116.8 37.1C117.1 37.8 117.4 38.5 117.9 39C118.4 39.5 119 40 119.8 40.3C120.5 40.6 121.4 40.8 122.3 40.8C122.8 40.8 123.4 40.8 123.9 40.7C124.4 40.6 124.8 40.5 125.3 40.3V36.8H121.6V33H129.6V43.2C128.6 43.4 127.5 43.8 126.2 44.1Z" fill="#939598"/>
<path d="M146.2 44.1V36H138.7V44.1H134V24.8H138.7V32.1H146.2V24.8H150.9V44.1H146.2Z" fill="#939598"/>
<path d="M163.7 28.8V44.1H159V28.8H153.5V24.8H169.1V28.8H163.7Z" fill="#939598"/>
<path d="M182.5 29.8C182.1 29.3 181.6 28.9 180.9 28.6C180.3 28.3 179.6 28.2 179 28.2C178.7 28.2 178.4 28.2 178.1 28.3C177.8 28.4 177.5 28.5 177.2 28.6C176.9 28.8 176.7 29 176.6 29.2C176.4 29.4 176.3 29.8 176.3 30.1C176.3 30.4 176.4 30.7 176.5 30.9C176.6 31.1 176.8 31.3 177.1 31.5C177.4 31.7 177.7 31.8 178 31.9C178.4 32 178.8 32.2 179.2 32.3C179.9 32.5 180.5 32.8 181.2 33C181.9 33.3 182.6 33.6 183.1 34C183.7 34.4 184.2 35 184.5 35.6C184.9 36.2 185.1 37 185.1 38C185.1 39.1 184.9 40.1 184.5 40.9C184.1 41.7 183.5 42.4 182.9 42.9C182.2 43.4 181.4 43.8 180.5 44.1C179.6 44.4 178.7 44.5 177.7 44.5C176.3 44.5 175 44.3 173.7 43.8C172.4 43.3 171.3 42.6 170.5 41.7L173.6 38.6C174.1 39.2 174.7 39.7 175.5 40.1C176.3 40.5 177 40.7 177.8 40.7C178.1 40.7 178.5 40.7 178.8 40.6C179.1 40.5 179.4 40.4 179.7 40.2C179.9 40 180.1 39.8 180.3 39.5C180.4 39.2 180.5 38.9 180.5 38.5C180.5 38.1 180.4 37.8 180.2 37.6C180 37.3 179.8 37.1 179.4 36.9C179.1 36.7 178.6 36.5 178.1 36.3C177.6 36.1 177 35.9 176.4 35.7C175.8 35.5 175.2 35.3 174.6 35C174 34.7 173.5 34.4 173 34C172.5 33.6 172.2 33.1 171.9 32.4C171.6 31.8 171.5 31 171.5 30.2C171.5 29.1 171.7 28.2 172.2 27.4C172.6 26.6 173.2 26 173.9 25.5C174.6 25 175.4 24.6 176.3 24.4C177.2 24.2 178.1 24.1 179 24.1C180.1 24.1 181.2 24.3 182.3 24.7C183.4 25.1 184.4 25.7 185.3 26.5L182.5 29.8Z" fill="#939598"/>
<path d="M221.1 75.6H214.9L218.6 53.1H224.7L221.1 75.6Z" fill="#27B6A3"/>
<path opacity="0.8" d="M228.7 75.6H222.6L226.3 53.1H232.4L228.7 75.6Z" fill="#27B6A3"/>
<path opacity="0.6" d="M236.4 75.6H230.2L233.9 53.1H240L236.4 75.6Z" fill="#27B6A3"/>
<path opacity="0.4" d="M244 75.6H237.9L241.6 53.1H247.7L244 75.6Z" fill="#27B6A3"/>
<path opacity="0.2" d="M251.7 75.6H245.5L249.2 53.1H255.3L251.7 75.6Z" fill="#27B6A3"/>
<path d="M213.1 75.6H0.699951V53.1H216.8L213.1 75.6Z" fill="black"/>
<path d="M6.80005 57.9H15.5V60.5H9.60004V62.9H15.2V65.5H9.60004V68.1H15.8V70.7H6.80005V57.9Z" fill="white"/>
<path d="M26.9 61.3C26.6 61 26.3 60.7 25.9 60.5C25.5 60.3 25 60.2 24.5 60.2C24 60.2 23.5 60.3 23 60.5C22.5 60.7 22.2 60.9999 21.8 61.3999C21.5 61.7999 21.2 62.2 21 62.7C20.8 63.2 20.7 63.8 20.7 64.3C20.7 64.9 20.8 65.5 21 66C21.2 66.5 21.4 66.9 21.8 67.3C22.1 67.7 22.5 68 22.9 68.2C23.3 68.4 23.8 68.5 24.3 68.5C24.9 68.5 25.4 68.4 25.8 68.1C26.2 67.9 26.6 67.5 26.9 67.1L29.3 68.8999C28.8 69.6999 28.1 70.2 27.2 70.6C26.4 71 25.5 71.1 24.6 71.1C23.6 71.1 22.7 70.9 21.8 70.6C21 70.3 20.2 69.8 19.6 69.3C19 68.7 18.5 68 18.2 67.2C17.9 66.4 17.7 65.3999 17.7 64.3999C17.7 63.3999 17.9 62.4 18.2 61.6C18.5 60.8 19 60.1 19.6 59.5C20.2 58.9 20.9 58.5 21.8 58.2C22.6 57.9 23.6 57.7 24.6 57.7C25 57.7 25.3 57.7 25.7 57.8C26.1 57.9 26.5 58 26.9 58.1C27.3 58.2 27.6 58.4 28 58.7C28.4 58.9 28.7 59.2 28.9 59.6L26.9 61.3Z" fill="white"/>
<path d="M30.3999 64.3C30.3999 63.3 30.5999 62.3 30.8999 61.5C31.1999 60.7 31.6999 60 32.2999 59.4C32.8999 58.8 33.5999 58.4 34.4999 58.1C35.2999 57.8 36.2999 57.6 37.2999 57.6C38.2999 57.6 39.1999 57.8 40.0999 58.1C40.8999 58.4 41.6999 58.9 42.2999 59.4C42.8999 60 43.3999 60.7 43.6999 61.5C43.9999 62.3 44.1999 63.3 44.1999 64.3C44.1999 65.3 43.9999 66.3 43.6999 67.1C43.3999 67.9 42.8999 68.6 42.2999 69.2C41.6999 69.8 40.9999 70.2 40.0999 70.5C39.2999 70.8 38.2999 71 37.2999 71C36.2999 71 35.3999 70.8 34.4999 70.5C33.6999 70.2 32.8999 69.7 32.2999 69.2C31.6999 68.6 31.1999 67.9 30.8999 67.1C30.4999 66.3 30.3999 65.4 30.3999 64.3ZM33.2999 64.3C33.2999 64.9 33.3999 65.5 33.5999 66C33.7999 66.5 34.0999 66.9 34.3999 67.3C34.6999 67.7 35.1999 68 35.6999 68.2C36.1999 68.4 36.6999 68.5 37.2999 68.5C37.8999 68.5 38.4999 68.4 38.8999 68.2C39.3999 68 39.7999 67.7 40.1999 67.3C40.5999 66.9 40.7999 66.5 40.9999 66C41.1999 65.5 41.2999 64.9 41.2999 64.3C41.2999 63.7 41.1999 63.2 40.9999 62.7C40.7999 62.2 40.4999 61.8 40.1999 61.4C39.7999 61 39.3999 60.7 38.8999 60.5C38.3999 60.3 37.8999 60.2 37.2999 60.2C36.6999 60.2 36.1999 60.3 35.6999 60.5C35.1999 60.7 34.7999 61 34.3999 61.4C33.9999 61.8 33.7999 62.2 33.5999 62.7C33.3999 63.2 33.2999 63.8 33.2999 64.3Z" fill="white"/>
<path d="M46.5999 57.9H50.3998L55.7999 66.8V57.9H58.5999V70.7H54.9998L49.3998 61.6V70.7H46.5999V57.9Z" fill="white"/>
<path d="M61.0999 64.3C61.0999 63.3 61.2999 62.3 61.5999 61.5C61.8999 60.7 62.3998 60 62.9998 59.4C63.5998 58.8 64.2998 58.4 65.1998 58.1C65.9998 57.8 66.9998 57.6 67.9998 57.6C68.9998 57.6 69.8999 57.8 70.7999 58.1C71.5999 58.4 72.3998 58.9 72.9998 59.4C73.5998 60 74.0998 60.7 74.3998 61.5C74.6998 62.3 74.8998 63.3 74.8998 64.3C74.8998 65.3 74.6998 66.3 74.3998 67.1C74.0998 67.9 73.5998 68.6 72.9998 69.2C72.3998 69.8 71.6999 70.2 70.7999 70.5C69.9999 70.8 68.9998 71 67.9998 71C66.9998 71 66.0998 70.8 65.1998 70.5C64.3998 70.2 63.5998 69.7 62.9998 69.2C62.3998 68.6 61.8999 67.9 61.5999 67.1C61.1999 66.3 61.0999 65.4 61.0999 64.3ZM63.9998 64.3C63.9998 64.9 64.0999 65.5 64.2999 66C64.4999 66.5 64.7999 66.9 65.0999 67.3C65.3999 67.7 65.8998 68 66.3998 68.2C66.8998 68.4 67.3998 68.5 67.9998 68.5C68.5998 68.5 69.1999 68.4 69.5999 68.2C70.0999 68 70.4998 67.7 70.8998 67.3C71.2998 66.9 71.4998 66.5 71.6998 66C71.8998 65.5 71.9998 64.9 71.9998 64.3C71.9998 63.7 71.8998 63.2 71.6998 62.7C71.4998 62.2 71.1998 61.8 70.8998 61.4C70.4998 61 70.0999 60.7 69.5999 60.5C69.0999 60.3 68.5998 60.2 67.9998 60.2C67.3998 60.2 66.8998 60.3 66.3998 60.5C65.8998 60.7 65.4999 61 65.0999 61.4C64.6999 61.8 64.4999 62.2 64.2999 62.7C64.0999 63.2 63.9998 63.8 63.9998 64.3Z" fill="white"/>
<path d="M77.2 57.9H81.5L84.3999 66.3L87.3999 57.9H91.7V70.7H88.8999V60.9L85.5 70.7H83.3L80.1 60.9V70.7H77.3V57.9H77.2Z" fill="white"/>
<path d="M95 57.9H97.8V70.7H95V57.9Z" fill="white"/>
<path d="M109.2 61.3C108.9 61 108.6 60.7 108.2 60.5C107.8 60.3 107.3 60.2 106.8 60.2C106.3 60.2 105.8 60.3 105.3 60.5C104.8 60.7 104.5 60.9999 104.1 61.3999C103.8 61.7999 103.5 62.2 103.3 62.7C103.1 63.2 103 63.8 103 64.3C103 64.9 103.1 65.5 103.3 66C103.5 66.5 103.7 66.9 104.1 67.3C104.4 67.7 104.8 68 105.2 68.2C105.6 68.4 106.1 68.5 106.6 68.5C107.2 68.5 107.7 68.4 108.1 68.1C108.5 67.9 108.9 67.5 109.2 67.1L111.6 68.8999C111.1 69.6999 110.4 70.2 109.5 70.6C108.7 71 107.8 71.1 106.9 71.1C105.9 71.1 105 70.9 104.1 70.6C103.3 70.3 102.5 69.8 101.9 69.3C101.3 68.7 100.8 68 100.5 67.2C100.2 66.4 100 65.3999 100 64.3999C100 63.3999 100.2 62.4 100.5 61.6C100.8 60.8 101.3 60.1 101.9 59.5C102.5 58.9 103.2 58.5 104.1 58.2C104.9 57.9 105.9 57.7 106.9 57.7C107.3 57.7 107.6 57.7 108 57.8C108.4 57.9 108.8 58 109.2 58.1C109.6 58.2 109.9 58.4 110.3 58.7C110.7 58.9 111 59.2 111.2 59.6L109.2 61.3Z" fill="white"/>
<path d="M123.1 60.4H119.4V57.9H129.5V60.4H126V70.7H123.2V60.4H123.1Z" fill="white"/>
<path d="M131.8 57.9H136.8C137.5 57.9 138.1 58 138.7 58.1C139.3 58.2 139.8 58.4 140.2 58.7C140.6 59 141 59.4 141.2 59.9C141.5 60.4 141.6 61 141.6 61.8C141.6 62.7 141.4 63.5 140.9 64.1C140.4 64.7 139.7 65.1 138.8 65.3L142.1 70.7H138.7L136 65.6H134.6V70.7H131.8V57.9ZM134.6 63.2H136.3C136.6 63.2 136.8 63.2 137.1 63.2C137.4 63.2 137.6 63.1 137.9 63C138.1 62.9 138.3 62.8 138.5 62.6C138.7 62.4 138.7 62.1 138.7 61.8C138.7 61.5 138.6 61.2 138.5 61C138.4 60.8 138.2 60.7 138 60.6C137.8 60.5 137.6 60.4 137.3 60.4C137 60.4 136.8 60.3 136.5 60.3H134.7V63.2H134.6Z" fill="white"/>
<path d="M148.7 57.9H151L156.6 70.7H153.4L152.3 68H147.3L146.2 70.7H143.1L148.7 57.9ZM149.8 61.7L148.2 65.7H151.3L149.8 61.7Z" fill="white"/>
<path d="M166.5 61.3C166.2 61 165.9 60.7 165.5 60.5C165.1 60.3 164.6 60.2 164.1 60.2C163.6 60.2 163.1 60.3 162.6 60.5C162.1 60.7 161.8 60.9999 161.4 61.3999C161.1 61.7999 160.8 62.2 160.6 62.7C160.4 63.2 160.3 63.8 160.3 64.3C160.3 64.9 160.4 65.5 160.6 66C160.8 66.5 161 66.9 161.4 67.3C161.7 67.7 162.1 68 162.5 68.2C162.9 68.4 163.4 68.5 163.9 68.5C164.5 68.5 165 68.4 165.4 68.1C165.8 67.9 166.2 67.5 166.5 67.1L168.9 68.8999C168.4 69.6999 167.7 70.2 166.8 70.6C166 71 165.1 71.1 164.2 71.1C163.2 71.1 162.3 70.9 161.4 70.6C160.6 70.3 159.8 69.8 159.2 69.3C158.6 68.7 158.1 68 157.8 67.2C157.5 66.4 157.3 65.3999 157.3 64.3999C157.3 63.3999 157.5 62.4 157.8 61.6C158.1 60.8 158.6 60.1 159.2 59.5C159.8 58.9 160.5 58.5 161.4 58.2C162.2 57.9 163.2 57.7 164.2 57.7C164.6 57.7 164.9 57.7 165.3 57.8C165.7 57.9 166.1 58 166.5 58.1C166.9 58.2 167.2 58.4 167.6 58.7C168 58.9 168.3 59.2 168.5 59.6L166.5 61.3Z" fill="white"/>
<path d="M171 57.9H173.8V63.2L178.8 57.9H182.5L176.8 63.8L183 70.7H179.1L173.9 64.6V70.7H171V57.9Z" fill="white"/>
<path d="M184.8 57.9H193.5V60.5H187.6V62.9H193.2V65.5H187.6V68.1H193.8V70.7H184.8V57.9Z" fill="white"/>
<path d="M196.6 57.9H201.6C202.3 57.9 202.9 58 203.5 58.1C204.1 58.2 204.6 58.4 205 58.7C205.4 59 205.8 59.4 206 59.9C206.3 60.4 206.4 61 206.4 61.8C206.4 62.7 206.2 63.5 205.7 64.1C205.2 64.7 204.5 65.1 203.6 65.3L206.9 70.7H203.5L200.8 65.6H199.4V70.7H196.6V57.9ZM199.4 63.2H201.1C201.4 63.2 201.6 63.2 201.9 63.2C202.2 63.2 202.4 63.1 202.7 63C202.9 62.9 203.1 62.8 203.3 62.6C203.5 62.4 203.5 62.1 203.5 61.8C203.5 61.5 203.4 61.2 203.3 61C203.2 60.8 203 60.7 202.8 60.6C202.6 60.5 202.4 60.4 202.1 60.4C201.8 60.4 201.6 60.3 201.3 60.3H199.5V63.2H199.4Z" fill="white"/>
</svg>
