<?xml version="1.0" encoding="utf-8"?>
<!-- Generator: Adobe Illustrator 26.3.1, SVG Export Plug-In . SVG Version: 6.00 Build 0)  -->
<svg version="1.1" id="Layer_1" xmlns="http://www.w3.org/2000/svg" xmlns:xlink="http://www.w3.org/1999/xlink" x="0px" y="0px"
	 viewBox="0 0 794.49 97.58" style="enable-background:new 0 0 794.49 97.58;" xml:space="preserve">
<style type="text/css">
	.st0{fill:#EE7755;}
	.st1{fill:#232526;}
</style>
<g>
	<g>
		<path class="st0" d="M71.03,16.03c0,8.85-7.15,16.03-15.97,16.03c-8.82,0-15.96-7.18-15.96-16.03S46.25,0,55.07,0
			C63.88,0,71.03,7.18,71.03,16.03"/>
		<path class="st0" d="M31.93,81.55c0,8.85-7.15,16.03-15.97,16.03S0,90.4,0,81.55s7.15-16.03,15.97-16.03S31.93,72.69,31.93,81.55"
			/>
		<path class="st0" d="M110.13,81.55c0,8.85-7.15,16.03-15.97,16.03c-8.81,0-15.96-7.18-15.96-16.03s7.15-16.03,15.96-16.03
			C102.99,65.52,110.13,72.69,110.13,81.55"/>
	</g>
	<path class="st1" d="M628.01,59.4c0-22.22,17.18-37.81,38.51-37.81c12.24,0,23.3,5.22,29.62,12.24l-8.98,9.48
		c-5.23-5.33-12.54-8.69-20.64-8.69c-14.12,0-24.69,10.47-24.69,24.68c0,13.93,10.27,24.69,24.48,24.69c8,0,15.7-3.56,20.44-8.39
		V64.54h-21.13V52.69h33.57v29.52c-8.98,9.48-20.54,14.71-33.27,14.71C643.91,96.93,628.01,81.03,628.01,59.4z"/>
	<g>
		<path class="st1" d="M167.2,68.39h-8.98v27.35h-13.43V22.78h27.16c16.68,0,24.48,10.96,24.48,22.8c0,8.89-4.64,17.77-15.3,21.24
			l18.37,28.93h-16L167.2,68.39z M158.21,56.24h12.25c8.78,0,12.14-5.22,12.14-10.56c0-5.53-3.65-10.36-10.66-10.36h-13.73V56.24z"
			/>
		<path class="st1" d="M230.5,22.78h48.48v12.64h-34.95V52.6h32.29v12.54h-32.29v17.97h34.95v12.64H230.5V22.78z"/>
		<path class="st1" d="M350.86,79.15h-25.87l-6.02,16.59h-14.32l28.24-72.97h10.37l27.94,72.97h-14.32L350.86,79.15z M328.95,67.01
			h18.07l-8.98-24.98L328.95,67.01z"/>
		<path class="st1" d="M399.43,22.78h13.53v60.03h37.52v12.93h-51.05V22.78z"/>
		<path class="st1" d="M530.69,46.57c0,12.15-7.7,23.41-26.27,23.41h-11.85v25.77h-13.43V22.78h26.36
			C523.38,22.78,530.69,34.63,530.69,46.57z M516.96,46.37c0-5.82-3.85-11.05-11.16-11.05h-13.24v22.31h12.25
			C513.31,57.63,516.96,51.9,516.96,46.37z"/>
		<path class="st1" d="M591.32,79.15h-25.87l-6.02,16.59h-14.32l28.24-72.97h10.37l27.94,72.97h-14.32L591.32,79.15z M569.4,67.01
			h18.07l-8.98-24.98L569.4,67.01z"/>
		<path class="st1" d="M727.99,22.78h48.48v12.64h-34.95V52.6h32.29v12.54h-32.29v17.97h34.95v12.64h-48.48V22.78z"/>
	</g>
	<g>
		<path class="st1" d="M788.77,22.78c3.19,0,5.73,2.47,5.73,5.62s-2.54,5.66-5.76,5.66c-3.22,0-5.8-2.5-5.8-5.66s2.57-5.62,5.8-5.62
			H788.77z M788.7,23.91c-2.44,0-4.32,2.02-4.32,4.49c0,2.5,1.89,4.49,4.39,4.49c2.44,0.03,4.29-1.99,4.29-4.46
			c0-2.5-1.85-4.53-4.32-4.53H788.7z M787.84,31.32h-1.3v-5.62c0.52-0.07,1.23-0.17,2.16-0.17c1.06,0,1.54,0.17,1.92,0.45
			c0.34,0.24,0.58,0.65,0.58,1.2c0,0.69-0.52,1.13-1.17,1.34v0.07c0.55,0.17,0.82,0.62,0.99,1.37c0.17,0.86,0.31,1.17,0.41,1.37
			h-1.37c-0.17-0.21-0.27-0.69-0.45-1.37c-0.1-0.58-0.45-0.86-1.17-0.86h-0.62V31.32z M787.87,28.16h0.62c0.72,0,1.3-0.24,1.3-0.82
			c0-0.52-0.38-0.86-1.2-0.86c-0.34,0-0.58,0.03-0.72,0.07V28.16z"/>
	</g>
</g>
</svg>
