<svg xmlns="http://www.w3.org/2000/svg" viewBox="0 0 100 100"><title>Savills Logo</title><g fill="none"><path fill="#fede07" d="M100 0H0v100h100z"/><path d="M14.576 93.633c-5.114 0-8.582-2.62-8.582-7.485v-.187H8.8v.125c0 3.18 2.307 5.052 5.8 5.052 1.871 0 5.426-.81 5.426-3.804 0-5.801-13.347-1.685-13.347-9.98 0-4.18 3.892-6.05 7.759-6.05 4.553 0 7.646 2.62 7.646 6.86v.188H19.28v-.187c0-2.745-1.933-4.366-5.052-4.366-2.183 0-4.74.936-4.74 3.43 0 5.426 13.347 1.622 13.347 9.98 0 4.428-4.14 6.424-8.257 6.424M38.8 82.032c-.435.374-1.496.562-2.058.624l-1.995.25c-3.743.436-7.235 1.184-7.235 4.428 0 2.682 2.307 3.804 4.365 3.804 2.121 0 3.992-.748 5.302-2.058 1.06-1.123 1.622-2.62 1.622-4.241v-2.807zm.5 10.977c-.313-1.123-.313-3.368-.313-3.368-1.06 2.308-3.492 3.992-7.296 3.992-4.366 0-6.986-2.37-6.986-6.237 0-5.614 5.051-6.176 9.98-6.736l1.06-.125c1.995-.25 3.056-.5 3.056-2.683 0-2.807-1.622-4.054-5.114-4.054-2.932 0-5.302 1.247-5.302 4.429v.187h-2.807v-.187c0-4.927 3.93-6.923 8.42-6.923 4.865 0 7.66 1.933 7.66 6.486v11.477c0 .998.176 3.12.426 3.742h-2.785zm20.644-21.082h.25L52.96 93.009h-3.056l-7.486-21.082h3.255l5.79 17.864 5.729-17.864zm5.022-5.549A1.971 1.971 0 0 0 63 64.413c-1.048 0-1.965.851-1.965 1.899A1.97 1.97 0 0 0 63 68.277a1.97 1.97 0 0 0 1.965-1.965v.066zm-3.4 5.549h2.932v21.082h-2.932zm5.801-7.984h2.931V93.01h-2.93zm5.739 0h2.932V93.01h-2.932zm13.197 29.69c-5.177 0-8.645-2.62-8.645-7.485v-.187h2.807v.125c0 3.18 2.37 5.052 5.8 5.052 1.871 0 5.49-.81 5.49-3.804 0-5.801-13.41-1.685-13.41-9.98 0-4.18 3.892-6.05 7.758-6.05 4.616 0 7.71 2.62 7.71 6.86v.188h-2.807v-.187c0-2.745-1.933-4.366-5.052-4.366-2.245 0-4.803.936-4.803 3.43 0 5.426 13.41 1.622 13.41 9.98 0 4.428-4.14 6.424-8.257 6.424" fill="#c80c0f"/></g></svg>