<?xml version="1.0" encoding="utf-8"?>
<svg xmlns="http://www.w3.org/2000/svg" xmlns:xlink="http://www.w3.org/1999/xlink" version="1.1" id="Layer_1" x="0px" y="0px" viewBox="0 0 342 125.7" style="enable-background:new 0 0 342 125.7;">
<style type="text/css">
	.st0{clip-path:url(#XMLID_74_);fill:#27588D;}
</style>
<g id="XMLID_42_">
	<defs>
		<rect id="XMLID_1_" y="0" width="342" height="125.7"/>
	</defs>
	<clipPath id="XMLID_74_">
		<use xlink:href="#XMLID_1_" style="overflow:visible;"/>
	</clipPath>
	<path id="XMLID_40_" class="st0" d="M29.6,64c-3-0.1-4.3-0.3-5.6-0.3c-1.4,0-2.7,0.2-5.6,0.3V7.4C10.8,7.4,5.2,7.9,0,8.5&#xA;		C0.1,7.6,0.3,5,0.3,4.1c0-0.9-0.2-1.7-0.3-2.7h47.1c-0.1,1-0.3,1.8-0.3,2.7c0,0.9,0.2,3.5,0.3,4.4c-4.6-0.5-11-1.1-17.5-1.1V64z"/>
	<path id="XMLID_39_" class="st0" d="M111.4,59.7c-5.8,3.8-13.2,5.2-20.2,5.2c-20.1,0-35.4-12.7-35.4-32.7C55.8,11.7,74.2,0,93.5,0&#xA;		c6.7,0,13.5,1.6,19.6,4.2c-0.9,2.3-1.5,6-1.9,8.3l-0.6-0.5c-1.3-1.6-8-5.9-17.4-5.9c-16.8,0-25.5,11-25.5,26.5&#xA;		c0,17.5,10.5,26.2,24.9,26.2c9.9,0,17.5-4.5,19.3-6.1L111.4,59.7z"/>
	<path id="XMLID_38_" class="st0" d="M191.9,63.8h-6.1c-1-1.3-2.8-3.5-4.7-5.6l-41.6-43.6h2.6v49.2c-2.2-0.1-3.1-0.3-3.9-0.3&#xA;		c-0.9,0-3,0.2-3.8,0.3V1.4h6.2l45.3,47h-1.4v-47c1.8,0.1,2.6,0.3,3.6,0.3c0.8,0,2.9-0.2,3.8-0.3V63.8z"/>
	<path id="XMLID_37_" class="st0" d="M241.4,47.9L230,53.2l0,32.6c-16.9-8.5-27.9-22-27.9-37.2c0-25.7,31.3-46.4,69.9-46.4&#xA;		c38.6,0,69.9,20.7,69.9,46.4c0,15.2-10.9,28.7-27.9,37.2V53.2l-11.4-5.3v42.5c-4,1.3-8.3,2.4-12.7,3.2V27.5l-11.3-5.3V95&#xA;		c-2.2,0.1-4.4,0.2-6.7,0.2c-2.3,0-4.5-0.1-6.7-0.2V22.2L254,27.5v66.1c-4.4-0.8-8.7-1.8-12.7-3.2L241.4,47.9z"/>
	<path id="XMLID_36_" class="st0" d="M17.4,92.7c-0.4-1.2-0.8-2.5-1.2-4c-0.5-1.5-0.9-3.1-1.5-4.7c-0.5-1.6-1-3.2-1.5-4.7&#xA;		c-0.5-1.5-0.9-2.8-1.3-4c-0.4-1.2-0.7-2.1-0.9-2.7c0.3,0,0.6,0.1,0.8,0.1c0.3,0,0.5,0.1,0.8,0.1c0.3,0,0.6,0,0.8-0.1&#xA;		c0.3,0,0.5-0.1,0.8-0.1c0.4,1.7,0.8,3.3,1.2,4.7c0.4,1.5,0.8,3,1.3,4.5c0.5,1.5,0.9,3.1,1.5,4.8c0.5,1.7,1.1,3.5,1.8,5.6h0.1&#xA;		c0.2-0.6,0.5-1.4,0.8-2.5c0.4-1,0.7-2.2,1.2-3.5c0.4-1.3,0.9-2.6,1.3-4c0.5-1.4,0.9-2.7,1.3-3.9c0.4-1.2,0.8-2.4,1.1-3.4&#xA;		c0.3-1,0.5-1.8,0.7-2.4c0.4,0.1,0.8,0.2,1.1,0.2c0.3,0,0.7-0.1,1.1-0.2c0.2,0.6,0.4,1.4,0.7,2.5c0.3,1,0.7,2.2,1.1,3.5&#xA;		c0.4,1.3,0.8,2.6,1.3,4c0.5,1.4,0.9,2.7,1.3,3.9c0.4,1.3,0.8,2.4,1.1,3.4c0.3,1,0.6,1.8,0.8,2.4H35c0.2-0.5,0.4-1.2,0.7-2.3&#xA;		c0.3-1,0.7-2.2,1.1-3.5c0.4-1.3,0.8-2.6,1.3-4.1c0.4-1.4,0.8-2.8,1.2-4.1c0.4-1.3,0.7-2.4,1-3.5c0.3-1,0.5-1.8,0.6-2.3&#xA;		c0.2,0,0.4,0.1,0.6,0.1c0.2,0,0.4,0.1,0.6,0.1c0.2,0,0.4,0,0.6-0.1c0.2,0,0.4-0.1,0.6-0.1c-0.2,0.5-0.5,1.3-1,2.5&#xA;		c-0.4,1.2-0.9,2.5-1.4,4c-0.5,1.5-1.1,3.1-1.6,4.8c-0.6,1.7-1.1,3.3-1.6,4.8c-0.5,1.5-1,2.9-1.4,4.1c-0.4,1.2-0.7,2.1-0.9,2.6&#xA;		c-0.4,0-0.7-0.1-1.1-0.1c-0.4,0-0.8,0-1.1,0.1c-1-3.1-2-6.2-2.9-9.3c-1-3.1-2-6.3-3.1-9.6h-0.1c-0.2,0.5-0.4,1.2-0.7,2&#xA;		c-0.3,0.8-0.6,1.8-1,2.9c-0.4,1.1-0.8,2.2-1.2,3.4c-0.4,1.2-0.8,2.4-1.3,3.7c-0.4,1.2-0.8,2.4-1.2,3.6c-0.4,1.2-0.8,2.3-1.1,3.2&#xA;		c-0.4,0-0.7-0.1-1.2-0.1c-0.4,0-0.8,0-1.2,0.1C18,94.8,17.7,93.9,17.4,92.7"/>
	<path id="XMLID_83_" class="st0" d="M42.9,79c0.6-1.5,1.5-2.7,2.5-3.7c1.1-1,2.4-1.8,3.9-2.3c1.5-0.5,3.2-0.8,5-0.8&#xA;		c1.8,0,3.5,0.3,5,0.8c1.5,0.5,2.8,1.3,3.9,2.3c1.1,1,1.9,2.3,2.6,3.7c0.6,1.5,0.9,3.1,0.9,5c0,1.9-0.3,3.5-0.9,5&#xA;		c-0.6,1.5-1.5,2.7-2.6,3.7c-1.1,1-2.4,1.8-3.9,2.3c-1.5,0.5-3.2,0.7-5,0.7c-1.8,0-3.5-0.2-5-0.7c-1.5-0.5-2.8-1.3-3.9-2.3&#xA;		c-1.1-1-1.9-2.3-2.5-3.7c-0.6-1.5-0.9-3.1-0.9-5C42,82.1,42.3,80.5,42.9,79 M62.8,79.3c-0.5-1.3-1.1-2.4-1.9-3.3&#xA;		c-0.8-0.9-1.8-1.5-2.9-1.9c-1.1-0.4-2.3-0.6-3.6-0.6c-1.3,0-2.5,0.2-3.6,0.6c-1.1,0.4-2.1,1.1-2.9,1.9c-0.8,0.9-1.5,2-1.9,3.3&#xA;		c-0.5,1.3-0.7,2.9-0.7,4.8c0,1.8,0.2,3.4,0.7,4.8c0.5,1.3,1.1,2.4,1.9,3.3c0.8,0.9,1.8,1.5,2.9,1.9c1.1,0.4,2.3,0.6,3.6,0.6&#xA;		c1.3,0,2.5-0.2,3.6-0.6c1.1-0.4,2.1-1.1,2.9-1.9c0.8-0.9,1.5-2,1.9-3.3c0.5-1.3,0.7-2.9,0.7-4.8C63.5,82.2,63.3,80.6,62.8,79.3"/>
	<path id="XMLID_80_" class="st0" d="M68.8,76.9c-0.1-1.4-0.1-2.8-0.2-4.3c0.6,0,1.3,0.1,1.9,0.1c0.6,0,1.2,0,1.9,0&#xA;		c0.6,0,1.3,0,1.9-0.1c0.6-0.1,1.2-0.1,1.9-0.1c0.9,0,1.8,0.1,2.6,0.3c0.8,0.2,1.6,0.5,2.2,0.9c0.6,0.4,1.1,0.9,1.5,1.6&#xA;		c0.4,0.7,0.5,1.5,0.5,2.5c0,1.1-0.2,2-0.7,2.7c-0.5,0.8-1.1,1.4-1.7,1.9c-0.7,0.5-1.4,0.9-2.2,1.2c-0.8,0.3-1.5,0.5-2.1,0.5&#xA;		c0.3,0.3,0.6,0.8,1.1,1.4c0.5,0.6,1,1.3,1.6,2c0.6,0.7,1.2,1.5,1.8,2.3c0.6,0.8,1.2,1.5,1.8,2.3c0.6,0.7,1.1,1.4,1.6,2&#xA;		c0.5,0.6,0.9,1,1.2,1.4c-0.3,0-0.7-0.1-1-0.1h-1h-1c-0.3,0-0.7,0-1,0.1c-0.3-0.5-0.8-1.2-1.5-2.1c-0.7-0.9-1.4-1.9-2.2-3&#xA;		c-0.8-1.1-1.7-2.1-2.5-3.2c-0.9-1-1.6-1.9-2.3-2.7h-1.3v2.4c0,1.5,0,2.9,0.1,4.3c0.1,1.4,0.1,2.8,0.2,4.2c-0.5,0-1-0.1-1.6-0.1&#xA;		c-0.6,0-1.1,0-1.6,0.1c0.1-1.4,0.1-2.8,0.2-4.2c0.1-1.4,0.1-2.8,0.1-4.3v-5.7C68.9,79.7,68.9,78.3,68.8,76.9 M72.6,83.2&#xA;		c0.4,0,0.8,0,1.2,0c0.7,0,1.4-0.1,2.1-0.2c0.7-0.2,1.4-0.4,2-0.8c0.6-0.4,1.1-0.9,1.5-1.6c0.4-0.7,0.6-1.5,0.6-2.5&#xA;		c0-0.9-0.2-1.6-0.5-2.1c-0.3-0.6-0.7-1-1.2-1.3c-0.5-0.3-1.1-0.6-1.7-0.7c-0.6-0.1-1.2-0.2-1.8-0.2c-0.8,0-1.4,0-1.9,0&#xA;		c-0.5,0-0.9,0.1-1.3,0.1c0,1.2-0.1,2.4-0.1,3.6c0,1.2-0.1,2.4-0.1,3.6v1.9C71.9,83.1,72.3,83.2,72.6,83.2"/>
	<path id="XMLID_31_" class="st0" d="M86.6,76.9c-0.1-1.4-0.1-2.8-0.2-4.3c0.3,0,0.6,0.1,0.8,0.1c0.3,0,0.5,0,0.8,0&#xA;		c0.3,0,0.5,0,0.8,0c0.3,0,0.5-0.1,0.8-0.1c-0.1,1.5-0.1,2.9-0.2,4.3c-0.1,1.4-0.1,2.8-0.1,4.3c0,2.8,0,5.2,0,7.2c0,2,0,3.9,0.1,5.5&#xA;		c1.6,0,3.1,0,4.5,0c1.4,0,3-0.2,4.6-0.4c-0.1,0.4-0.2,0.7-0.2,1c0,0.2,0.1,0.5,0.2,0.9c-1,0-2-0.1-3-0.1h-3h-3.1c-1,0-2,0-3.1,0.1&#xA;		c0.1-1.4,0.1-2.8,0.2-4.2c0.1-1.4,0.1-2.8,0.1-4.3v-5.7C86.6,79.7,86.6,78.3,86.6,76.9"/>
	<path id="XMLID_76_" class="st0" d="M100.2,76.9c-0.1-1.4-0.1-2.8-0.2-4.3c0.8,0,1.7,0.1,2.5,0.1c0.8,0,1.7,0,2.5,0&#xA;		c0.8,0,1.7,0,2.5-0.1c0.8-0.1,1.7-0.1,2.5-0.1c1.9,0,3.6,0.3,5,0.8c1.4,0.5,2.5,1.2,3.4,2.2c0.9,0.9,1.5,2.1,1.9,3.4&#xA;		c0.4,1.4,0.6,2.9,0.6,4.6c0,2.2-0.4,4.1-1.1,5.6c-0.8,1.5-1.7,2.7-2.9,3.7c-1.2,0.9-2.5,1.6-3.9,2c-1.4,0.4-2.8,0.6-4.1,0.6&#xA;		c-0.8,0-1.5,0-2.2,0c-0.7,0-1.5,0-2.2,0h-2.2c-0.7,0-1.5,0-2.2,0.1c0.1-1.4,0.1-2.8,0.2-4.2c0.1-1.4,0.1-2.8,0.1-4.3v-5.7&#xA;		C100.3,79.7,100.2,78.3,100.2,76.9 M103.2,93.9c0.5,0.1,1.1,0.2,1.9,0.2c0.8,0.1,1.6,0.1,2.5,0.1c1.2,0,2.4-0.1,3.6-0.4&#xA;		c1.2-0.3,2.3-0.8,3.3-1.6c1-0.8,1.7-1.9,2.4-3.3c0.6-1.4,0.9-3.2,0.9-5.3c0-1.9-0.2-3.5-0.7-4.7c-0.5-1.2-1.1-2.2-2-2.9&#xA;		c-0.8-0.7-1.8-1.2-3-1.5c-1.1-0.3-2.4-0.4-3.8-0.4c-1,0-1.9,0-2.8,0.1c-0.9,0.1-1.6,0.1-2.3,0.2c-0.1,1.1-0.1,2.2-0.1,3.3&#xA;		c0,1.2,0,2.3,0,3.5v5.7C103,89.3,103.1,91.6,103.2,93.9"/>
	<path id="XMLID_28_" class="st0" d="M126.5,92.7c-0.4-1.2-0.8-2.5-1.2-4c-0.5-1.5-0.9-3.1-1.5-4.7c-0.5-1.6-1-3.2-1.5-4.7&#xA;		c-0.5-1.5-0.9-2.8-1.3-4c-0.4-1.2-0.7-2.1-0.9-2.7c0.3,0,0.6,0.1,0.8,0.1c0.3,0,0.5,0.1,0.8,0.1s0.6,0,0.8-0.1&#xA;		c0.3,0,0.5-0.1,0.8-0.1c0.4,1.7,0.8,3.3,1.2,4.7c0.4,1.5,0.8,3,1.3,4.5c0.5,1.5,0.9,3.1,1.5,4.8c0.5,1.7,1.1,3.5,1.8,5.6h0.1&#xA;		c0.2-0.6,0.5-1.4,0.8-2.5c0.4-1,0.7-2.2,1.2-3.5c0.4-1.3,0.9-2.6,1.3-4c0.5-1.4,0.9-2.7,1.3-3.9c0.4-1.2,0.8-2.4,1.1-3.4&#xA;		c0.3-1,0.5-1.8,0.7-2.4c0.4,0.1,0.8,0.2,1.1,0.2c0.3,0,0.7-0.1,1.1-0.2c0.2,0.6,0.4,1.4,0.7,2.5c0.3,1,0.7,2.2,1.1,3.5&#xA;		c0.4,1.3,0.8,2.6,1.3,4c0.5,1.4,0.9,2.7,1.3,3.9c0.4,1.3,0.8,2.4,1.1,3.4c0.3,1,0.6,1.8,0.8,2.4h0.1c0.2-0.5,0.4-1.2,0.7-2.3&#xA;		c0.3-1,0.7-2.2,1.1-3.5c0.4-1.3,0.8-2.6,1.3-4.1c0.4-1.4,0.8-2.8,1.2-4.1c0.4-1.3,0.7-2.4,1-3.5c0.3-1,0.5-1.8,0.6-2.3&#xA;		c0.2,0,0.4,0.1,0.6,0.1c0.2,0,0.4,0.1,0.6,0.1c0.2,0,0.4,0,0.6-0.1c0.2,0,0.4-0.1,0.6-0.1c-0.2,0.5-0.5,1.3-1,2.5&#xA;		c-0.4,1.2-0.9,2.5-1.4,4c-0.5,1.5-1.1,3.1-1.6,4.8c-0.6,1.7-1.1,3.3-1.6,4.8c-0.5,1.5-1,2.9-1.4,4.1c-0.4,1.2-0.7,2.1-0.9,2.6&#xA;		c-0.4,0-0.7-0.1-1.1-0.1c-0.4,0-0.8,0-1.1,0.1c-1-3.1-2-6.2-2.9-9.3c-1-3.1-2-6.3-3.1-9.6h-0.1c-0.2,0.5-0.4,1.2-0.7,2&#xA;		c-0.3,0.8-0.6,1.8-1,2.9c-0.4,1.1-0.8,2.2-1.2,3.4c-0.4,1.2-0.8,2.4-1.3,3.7c-0.4,1.2-0.8,2.4-1.2,3.6c-0.4,1.2-0.8,2.3-1.1,3.2&#xA;		c-0.4,0-0.7-0.1-1.2-0.1c-0.4,0-0.8,0-1.2,0.1C127.1,94.8,126.8,93.9,126.5,92.7"/>
	<path id="XMLID_27_" class="st0" d="M153.6,76.9c-0.1-1.4-0.1-2.8-0.2-4.3c0.3,0,0.6,0.1,0.8,0.1c0.3,0,0.5,0,0.8,0&#xA;		c0.3,0,0.5,0,0.8,0c0.3,0,0.5-0.1,0.8-0.1c-0.1,1.5-0.1,2.9-0.2,4.3c-0.1,1.4-0.1,2.8-0.1,4.3v5.7c0,1.5,0,2.9,0.1,4.3&#xA;		c0.1,1.4,0.1,2.8,0.2,4.2c-0.5,0-1-0.1-1.6-0.1c-0.6,0-1.1,0-1.6,0.1c0.1-1.4,0.1-2.8,0.2-4.2c0.1-1.4,0.1-2.8,0.1-4.3v-5.7&#xA;		C153.6,79.7,153.6,78.3,153.6,76.9"/>
	<path id="XMLID_71_" class="st0" d="M160.1,76.9c-0.1-1.4-0.1-2.8-0.2-4.3c0.8,0,1.7,0.1,2.5,0.1c0.8,0,1.7,0,2.5,0&#xA;		c0.8,0,1.7,0,2.5-0.1c0.8-0.1,1.7-0.1,2.5-0.1c1.9,0,3.6,0.3,5,0.8c1.4,0.5,2.5,1.2,3.4,2.2c0.9,0.9,1.5,2.1,1.9,3.4&#xA;		c0.4,1.4,0.6,2.9,0.6,4.6c0,2.2-0.4,4.1-1.1,5.6c-0.8,1.5-1.7,2.7-2.9,3.7c-1.2,0.9-2.5,1.6-3.9,2c-1.4,0.4-2.8,0.6-4.1,0.6&#xA;		c-0.8,0-1.5,0-2.2,0c-0.7,0-1.5,0-2.2,0h-2.2c-0.7,0-1.5,0-2.2,0.1c0.1-1.4,0.1-2.8,0.2-4.2c0.1-1.4,0.1-2.8,0.1-4.3v-5.7&#xA;		C160.2,79.7,160.1,78.3,160.1,76.9 M163.1,93.9c0.5,0.1,1.1,0.2,1.9,0.2c0.8,0.1,1.6,0.1,2.5,0.1c1.2,0,2.4-0.1,3.6-0.4&#xA;		c1.2-0.3,2.3-0.8,3.3-1.6c1-0.8,1.7-1.9,2.4-3.3c0.6-1.4,0.9-3.2,0.9-5.3c0-1.9-0.2-3.5-0.7-4.7c-0.5-1.2-1.1-2.2-2-2.9&#xA;		c-0.8-0.7-1.8-1.2-3-1.5c-1.1-0.3-2.4-0.4-3.8-0.4c-1,0-1.9,0-2.8,0.1c-0.9,0.1-1.6,0.1-2.3,0.2c-0.1,1.1-0.1,2.2-0.1,3.3&#xA;		c0,1.2,0,2.3,0,3.5v5.7C162.9,89.3,163,91.6,163.1,93.9"/>
	<path id="XMLID_24_" class="st0" d="M183.2,76.8c-0.1-1.4-0.1-2.8-0.2-4.2c1,0,2,0.1,3,0.1c1,0,2,0,3,0c1,0,2,0,2.9,0&#xA;		c1,0,2-0.1,2.9-0.1c-0.1,0.3-0.1,0.7-0.1,1c0,0.3,0,0.7,0.1,1c-0.7,0-1.4-0.1-1.9-0.1c-0.6,0-1.2-0.1-1.9-0.1&#xA;		c-0.7,0-1.4-0.1-2.1-0.1c-0.8,0-1.7,0-2.8,0c0,0.7,0,1.4-0.1,2c0,0.6,0,1.4,0,2.2c0,0.9,0,1.7,0,2.5c0,0.8,0,1.4,0,1.9&#xA;		c1,0,1.8,0,2.6,0c0.8,0,1.5-0.1,2.1-0.1c0.6,0,1.2-0.1,1.8-0.1c0.5,0,1.1-0.1,1.5-0.1c-0.1,0.3-0.1,0.7-0.1,1c0,0.3,0,0.7,0.1,1&#xA;		c-0.6-0.1-1.2-0.1-2-0.2c-0.8,0-1.5-0.1-2.3-0.1c-0.8,0-1.5,0-2.2,0c-0.7,0-1.2,0-1.6,0c0,0.2,0,0.4,0,0.6c0,0.2,0,0.5,0,0.9v1.3v2&#xA;		c0,1.3,0,2.3,0,3.1c0,0.8,0,1.4,0.1,1.9h2.3c0.8,0,1.7,0,2.5,0c0.8,0,1.6-0.1,2.3-0.1c0.7-0.1,1.3-0.1,1.9-0.2&#xA;		c0,0.2-0.1,0.3-0.1,0.5c0,0.2,0,0.4,0,0.5c0,0.4,0,0.6,0.1,0.9c-1,0-2-0.1-3-0.1h-3h-3c-1,0-2,0-3,0.1c0.1-1.4,0.1-2.8,0.2-4.2&#xA;		c0.1-1.4,0.1-2.8,0.1-4.3v-5.7C183.3,79.7,183.2,78.3,183.2,76.8"/>
	<path id="XMLID_67_" class="st0" d="M13.7,106.8c-0.1-1.4-0.1-2.8-0.2-4.3c0.6,0,1.3,0.1,1.9,0.1c0.6,0,1.2,0,1.9,0&#xA;		c0.6,0,1.3,0,1.9-0.1c0.6-0.1,1.2-0.1,1.9-0.1c0.9,0,1.8,0.1,2.6,0.3c0.8,0.2,1.6,0.5,2.2,0.9c0.6,0.4,1.1,0.9,1.5,1.6&#xA;		c0.4,0.7,0.5,1.5,0.5,2.5c0,1.1-0.2,2-0.7,2.7c-0.5,0.8-1.1,1.4-1.7,1.9c-0.7,0.5-1.4,0.9-2.2,1.2c-0.8,0.3-1.5,0.5-2.1,0.5&#xA;		c0.3,0.3,0.6,0.8,1.1,1.4c0.5,0.6,1,1.3,1.6,2c0.6,0.7,1.2,1.5,1.8,2.3c0.6,0.8,1.2,1.5,1.8,2.3c0.6,0.7,1.1,1.4,1.6,2&#xA;		c0.5,0.6,0.9,1,1.2,1.4c-0.3,0-0.7-0.1-1-0.1h-1h-1c-0.3,0-0.7,0-1,0.1c-0.3-0.5-0.8-1.2-1.5-2.1c-0.7-0.9-1.4-1.9-2.2-3&#xA;		c-0.8-1.1-1.7-2.1-2.5-3.2c-0.9-1-1.6-1.9-2.3-2.7h-1.3v2.4c0,1.5,0,2.9,0.1,4.3c0.1,1.4,0.1,2.8,0.2,4.2c-0.5,0-1-0.1-1.6-0.1&#xA;		c-0.6,0-1.1,0-1.6,0.1c0.1-1.4,0.1-2.8,0.2-4.2c0.1-1.4,0.1-2.8,0.1-4.3v-5.7C13.8,109.6,13.8,108.2,13.7,106.8 M17.6,113.1&#xA;		c0.4,0,0.8,0,1.2,0c0.7,0,1.4-0.1,2.1-0.2c0.7-0.2,1.4-0.4,2-0.8s1.1-0.9,1.5-1.6c0.4-0.7,0.6-1.5,0.6-2.5c0-0.9-0.2-1.6-0.5-2.1&#xA;		c-0.3-0.6-0.7-1-1.2-1.3c-0.5-0.3-1.1-0.6-1.7-0.7c-0.6-0.1-1.2-0.2-1.8-0.2c-0.8,0-1.4,0-1.9,0c-0.5,0-0.9,0.1-1.3,0.1&#xA;		c0,1.2-0.1,2.4-0.1,3.6c0,1.2-0.1,2.4-0.1,3.6v1.9C16.9,113,17.2,113.1,17.6,113.1"/>
	<path id="XMLID_21_" class="st0" d="M33.1,106.8c-0.1-1.4-0.1-2.8-0.2-4.2c1,0,2,0.1,3,0.1c1,0,2,0,3,0c1,0,2,0,2.9,0&#xA;		c1,0,2-0.1,2.9-0.1c-0.1,0.3-0.1,0.7-0.1,1c0,0.3,0,0.7,0.1,1c-0.7,0-1.4-0.1-1.9-0.1c-0.6,0-1.2-0.1-1.9-0.1&#xA;		c-0.7,0-1.4-0.1-2.1-0.1c-0.8,0-1.7,0-2.8,0c0,0.7,0,1.4-0.1,2c0,0.6,0,1.4,0,2.2c0,0.9,0,1.7,0,2.5c0,0.8,0,1.4,0,1.9&#xA;		c1,0,1.8,0,2.6,0c0.8,0,1.5,0,2.1-0.1c0.6,0,1.2-0.1,1.8-0.1c0.5,0,1.1-0.1,1.5-0.1c-0.1,0.3-0.1,0.7-0.1,1c0,0.3,0,0.7,0.1,1&#xA;		c-0.6-0.1-1.2-0.1-2-0.2c-0.8,0-1.5-0.1-2.3-0.1c-0.8,0-1.5,0-2.2,0c-0.7,0-1.2,0-1.6,0c0,0.2,0,0.4,0,0.6c0,0.2,0,0.5,0,0.9v1.3v2&#xA;		c0,1.3,0,2.3,0,3.1c0,0.8,0,1.4,0,1.9h2.3c0.8,0,1.7,0,2.5,0c0.8,0,1.6-0.1,2.3-0.1c0.7-0.1,1.3-0.1,1.9-0.2c0,0.2-0.1,0.3-0.1,0.5&#xA;		c0,0.2,0,0.4,0,0.5c0,0.4,0,0.6,0.1,0.9c-1,0-2-0.1-3-0.1h-3h-3c-1,0-2,0-3,0.1c0.1-1.4,0.1-2.8,0.2-4.2c0.1-1.4,0.1-2.8,0.1-4.3&#xA;		v-5.7C33.2,109.6,33.2,108.2,33.1,106.8"/>
	<path id="XMLID_63_" class="st0" d="M68,125.3c-0.3,0-0.6-0.1-0.9-0.1h-0.9h-0.9c-0.3,0-0.6,0-0.9,0.1c-0.2-0.5-0.4-1.1-0.6-1.8&#xA;		c-0.3-0.7-0.6-1.5-0.9-2.3c-0.3-0.8-0.6-1.6-1-2.4c-0.3-0.8-0.6-1.6-0.9-2.3c-0.7,0-1.4,0-2.2-0.1c-0.7,0-1.5,0-2.2,0&#xA;		c-0.7,0-1.4,0-2,0c-0.7,0-1.3,0-2,0.1c-0.7,1.7-1.3,3.4-1.9,4.9c-0.6,1.6-1,2.8-1.3,3.9c-0.4,0-0.8-0.1-1.2-0.1&#xA;		c-0.4,0-0.9,0-1.2,0.1c1.8-3.9,3.5-7.7,5.2-11.5c1.7-3.8,3.4-7.7,5.1-11.7H58c0.5,1.3,1.1,2.7,1.7,4.2c0.6,1.5,1.2,3,1.9,4.5&#xA;		c0.6,1.5,1.3,3,1.9,4.5c0.6,1.5,1.2,2.9,1.8,4.2c0.6,1.3,1.1,2.4,1.5,3.5C67.3,124,67.7,124.7,68,125.3 M53.3,115&#xA;		c0.6,0,1.2,0,1.8,0c0.6,0,1.2,0,1.8,0c0.6,0,1.2,0,1.9,0c0.6,0,1.2,0,1.9-0.1l-3.7-8.4L53.3,115z"/>
	<path id="XMLID_18_" class="st0" d="M70.9,106.8c-0.1-1.4-0.1-2.8-0.2-4.3c0.3,0,0.6,0.1,0.8,0.1c0.3,0,0.5,0,0.8,0&#xA;		c0.3,0,0.5,0,0.8,0c0.3,0,0.5-0.1,0.8-0.1c-0.1,1.5-0.1,2.9-0.2,4.3c-0.1,1.4-0.1,2.8-0.1,4.3c0,2.8,0,5.2,0,7.2c0,2,0,3.9,0.1,5.5&#xA;		c1.6,0,3.1,0,4.5,0c1.4,0,3-0.2,4.6-0.4c-0.1,0.4-0.2,0.7-0.2,1c0,0.2,0.1,0.5,0.2,0.9c-1,0-2-0.1-3-0.1h-3h-3.1c-1,0-2,0-3.1,0.1&#xA;		c0.1-1.4,0.1-2.8,0.2-4.2c0.1-1.4,0.1-2.8,0.1-4.3v-5.7C70.9,109.6,70.9,108.2,70.9,106.8"/>
	<path id="XMLID_17_" class="st0" d="M96.6,106.8c-0.1-1.4-0.1-2.8-0.2-4.2c1,0,2,0.1,3,0.1c1,0,2,0,3,0c1,0,2,0,2.9,0&#xA;		c1,0,2-0.1,2.9-0.1c-0.1,0.3-0.1,0.7-0.1,1c0,0.3,0,0.7,0.1,1c-0.7,0-1.4-0.1-1.9-0.1c-0.6,0-1.2-0.1-1.9-0.1&#xA;		c-0.7,0-1.4-0.1-2.1-0.1c-0.8,0-1.7,0-2.8,0c0,0.7,0,1.4-0.1,2c0,0.6,0,1.4,0,2.2c0,0.9,0,1.7,0,2.5c0,0.8,0,1.4,0,1.9&#xA;		c1,0,1.8,0,2.6,0c0.8,0,1.5,0,2.1-0.1c0.6,0,1.2-0.1,1.8-0.1c0.5,0,1.1-0.1,1.5-0.1c-0.1,0.3-0.1,0.7-0.1,1c0,0.3,0,0.7,0.1,1&#xA;		c-0.6-0.1-1.2-0.1-2-0.2c-0.8,0-1.5-0.1-2.3-0.1c-0.8,0-1.5,0-2.2,0s-1.2,0-1.6,0c0,0.2,0,0.4,0,0.6c0,0.2,0,0.5,0,0.9v1.3v2&#xA;		c0,1.3,0,2.3,0,3.1c0,0.8,0,1.4,0,1.9h2.3c0.8,0,1.7,0,2.5,0c0.8,0,1.6-0.1,2.3-0.1c0.7-0.1,1.3-0.1,1.9-0.2c0,0.2-0.1,0.3-0.1,0.5&#xA;		c0,0.2,0,0.4,0,0.5c0,0.4,0,0.6,0.1,0.9c-1,0-2-0.1-3-0.1h-3h-3c-1,0-2,0-3,0.1c0.1-1.4,0.1-2.8,0.2-4.2c0.1-1.4,0.1-2.8,0.1-4.3&#xA;		v-5.7C96.7,109.6,96.7,108.2,96.6,106.8"/>
	<path id="XMLID_16_" class="st0" d="M112.7,122.2c0.3,0.4,0.7,0.8,1.1,1.1c0.4,0.3,0.9,0.6,1.5,0.8c0.6,0.2,1.2,0.3,1.9,0.3&#xA;		c0.7,0,1.4-0.1,2-0.4c0.6-0.3,1.1-0.6,1.5-1c0.4-0.4,0.7-0.9,0.9-1.5c0.2-0.6,0.3-1.2,0.3-1.9c0-1-0.3-1.8-0.8-2.4&#xA;		c-0.5-0.6-1.2-1.1-1.9-1.5c-0.8-0.4-1.6-0.8-2.5-1.1c-0.9-0.3-1.7-0.7-2.5-1.2c-0.8-0.5-1.4-1.1-1.9-1.9c-0.5-0.8-0.8-1.8-0.8-3.1&#xA;		c0-0.9,0.2-1.8,0.5-2.5c0.3-0.8,0.8-1.4,1.4-2c0.6-0.6,1.4-1,2.3-1.3c0.9-0.3,1.9-0.5,3-0.5c1.1,0,2,0.1,2.7,0.4&#xA;		c0.8,0.3,1.5,0.6,2.2,1.2c-0.2,0.4-0.4,0.8-0.5,1.2c-0.1,0.4-0.3,1-0.4,1.6h-0.4c-0.1-0.3-0.3-0.6-0.4-1c-0.2-0.4-0.4-0.7-0.8-1&#xA;		c-0.3-0.3-0.7-0.6-1.1-0.8c-0.4-0.2-1-0.3-1.6-0.3c-0.6,0-1.2,0.1-1.7,0.3c-0.5,0.2-1,0.5-1.4,0.8c-0.4,0.4-0.7,0.8-0.9,1.3&#xA;		c-0.2,0.5-0.3,1.1-0.3,1.7c0,1,0.3,1.9,0.8,2.4c0.5,0.6,1.2,1.1,1.9,1.5c0.8,0.4,1.6,0.8,2.5,1.1c0.9,0.3,1.7,0.7,2.5,1.2&#xA;		c0.8,0.5,1.4,1.1,1.9,1.8s0.8,1.7,0.8,2.9c0,1-0.2,2-0.5,2.9c-0.4,0.9-0.9,1.7-1.6,2.4c-0.7,0.7-1.5,1.2-2.6,1.6&#xA;		c-1,0.4-2.1,0.5-3.4,0.5c-1.4,0-2.5-0.2-3.3-0.5c-0.9-0.4-1.6-0.8-2.1-1.2c0.2-0.5,0.3-1,0.4-1.4c0.1-0.4,0.1-0.9,0.2-1.6h0.4&#xA;		C112.1,121.4,112.4,121.8,112.7,122.2"/>
	<path id="XMLID_15_" class="st0" d="M133.1,104.2c-0.6,0-1.2,0-1.8,0c-0.6,0-1.3,0-1.9,0.1c-0.6,0-1.2,0.1-1.8,0.1&#xA;		c-0.6,0-1.1,0.1-1.6,0.2c0.1-0.4,0.2-0.7,0.2-1.1c0-0.2-0.1-0.6-0.2-1c1.5,0,2.9,0.1,4.3,0.1c1.4,0,2.8,0.1,4.3,0.1&#xA;		c1.5,0,2.9,0,4.3-0.1c1.4,0,2.8-0.1,4.3-0.1c-0.1,0.4-0.2,0.8-0.2,1.1c0,0.3,0.1,0.6,0.2,1c-0.5-0.1-1-0.1-1.6-0.2&#xA;		c-0.6,0-1.2-0.1-1.8-0.1c-0.6,0-1.3-0.1-1.9-0.1c-0.6,0-1.2,0-1.8,0c-0.1,2.3-0.1,4.6-0.1,6.9v5.7c0,1.5,0,2.9,0.1,4.3&#xA;		c0.1,1.4,0.1,2.8,0.2,4.2c-0.5,0-1-0.1-1.6-0.1c-0.6,0-1.1,0-1.6,0.1c0.1-1.4,0.1-2.8,0.2-4.2c0.1-1.4,0.1-2.8,0.1-4.3v-5.7&#xA;		C133.2,108.8,133.2,106.5,133.1,104.2"/>
	<path id="XMLID_56_" class="st0" d="M162,125.3c-0.3,0-0.6-0.1-0.9-0.1h-0.9h-0.9c-0.3,0-0.6,0-0.9,0.1c-0.2-0.5-0.4-1.1-0.6-1.8&#xA;		c-0.3-0.7-0.6-1.5-0.9-2.3c-0.3-0.8-0.6-1.6-1-2.4c-0.3-0.8-0.6-1.6-0.9-2.3c-0.7,0-1.4,0-2.2-0.1c-0.7,0-1.5,0-2.2,0&#xA;		c-0.7,0-1.4,0-2,0c-0.7,0-1.3,0-2,0.1c-0.7,1.7-1.3,3.4-1.9,4.9c-0.6,1.6-1,2.8-1.3,3.9c-0.4,0-0.8-0.1-1.2-0.1&#xA;		c-0.4,0-0.9,0-1.2,0.1c1.8-3.9,3.5-7.7,5.2-11.5c1.7-3.8,3.4-7.7,5.1-11.7h0.6c0.5,1.3,1.1,2.7,1.7,4.2c0.6,1.5,1.2,3,1.9,4.5&#xA;		c0.6,1.5,1.3,3,1.9,4.5c0.6,1.5,1.2,2.9,1.8,4.2c0.6,1.3,1.1,2.4,1.5,3.5C161.3,124,161.7,124.7,162,125.3 M147.3,115&#xA;		c0.6,0,1.2,0,1.8,0c0.6,0,1.2,0,1.8,0c0.6,0,1.2,0,1.9,0c0.6,0,1.2,0,1.9-0.1l-3.7-8.4L147.3,115z"/>
	<path id="XMLID_12_" class="st0" d="M167,104.2c-0.6,0-1.2,0-1.8,0c-0.6,0-1.3,0-1.9,0.1c-0.6,0-1.2,0.1-1.8,0.1&#xA;		c-0.6,0-1.1,0.1-1.6,0.2c0.1-0.4,0.2-0.7,0.2-1.1c0-0.2-0.1-0.6-0.2-1c1.5,0,2.9,0.1,4.3,0.1c1.4,0,2.8,0.1,4.3,0.1&#xA;		c1.5,0,2.9,0,4.3-0.1c1.4,0,2.8-0.1,4.3-0.1c-0.1,0.4-0.2,0.8-0.2,1.1c0,0.3,0.1,0.6,0.2,1c-0.5-0.1-1-0.1-1.6-0.2&#xA;		c-0.6,0-1.2-0.1-1.8-0.1c-0.6,0-1.3-0.1-1.9-0.1c-0.6,0-1.2,0-1.8,0c-0.1,2.3-0.1,4.6-0.1,6.9v5.7c0,1.5,0,2.9,0.1,4.3&#xA;		c0.1,1.4,0.1,2.8,0.2,4.2c-0.5,0-1-0.1-1.6-0.1c-0.6,0-1.1,0-1.6,0.1c0.1-1.4,0.1-2.8,0.2-4.2c0.1-1.4,0.1-2.8,0.1-4.3v-5.7&#xA;		C167.1,108.8,167.1,106.5,167,104.2"/>
	<path id="XMLID_11_" class="st0" d="M179.9,106.8c-0.1-1.4-0.1-2.8-0.2-4.2c1,0,2,0.1,3,0.1c1,0,2,0,3,0c1,0,2,0,2.9,0&#xA;		c1,0,2-0.1,2.9-0.1c-0.1,0.3-0.1,0.7-0.1,1c0,0.3,0,0.7,0.1,1c-0.7,0-1.4-0.1-1.9-0.1c-0.6,0-1.2-0.1-1.9-0.1&#xA;		c-0.7,0-1.4-0.1-2.1-0.1c-0.8,0-1.7,0-2.8,0c0,0.7,0,1.4-0.1,2c0,0.6,0,1.4,0,2.2c0,0.9,0,1.7,0,2.5c0,0.8,0,1.4,0,1.9&#xA;		c1,0,1.8,0,2.6,0c0.8,0,1.5,0,2.1-0.1c0.6,0,1.2-0.1,1.8-0.1c0.5,0,1.1-0.1,1.5-0.1c-0.1,0.3-0.1,0.7-0.1,1c0,0.3,0,0.7,0.1,1&#xA;		c-0.6-0.1-1.2-0.1-2-0.2c-0.8,0-1.5-0.1-2.3-0.1c-0.8,0-1.5,0-2.2,0c-0.7,0-1.2,0-1.6,0c0,0.2,0,0.4,0,0.6c0,0.2,0,0.5,0,0.9v1.3v2&#xA;		c0,1.3,0,2.3,0,3.1c0,0.8,0,1.4,0.1,1.9h2.3c0.8,0,1.7,0,2.5,0c0.8,0,1.6-0.1,2.3-0.1c0.7-0.1,1.3-0.1,1.9-0.2&#xA;		c0,0.2-0.1,0.3-0.1,0.5c0,0.2,0,0.4,0,0.5c0,0.4,0,0.6,0.1,0.9c-1,0-2-0.1-3-0.1h-3h-3c-1,0-2,0-3,0.1c0.1-1.4,0.1-2.8,0.2-4.2&#xA;		c0.1-1.4,0.1-2.8,0.1-4.3v-5.7C180,109.6,180,108.2,179.9,106.8"/>
	<path id="XMLID_10_" class="st0" d="M205.7,122.2c0.3,0.4,0.7,0.8,1.1,1.1c0.4,0.3,0.9,0.6,1.5,0.8c0.6,0.2,1.2,0.3,1.9,0.3&#xA;		c0.7,0,1.4-0.1,2-0.4c0.6-0.3,1.1-0.6,1.5-1c0.4-0.4,0.7-0.9,0.9-1.5s0.3-1.2,0.3-1.9c0-1-0.3-1.8-0.8-2.4&#xA;		c-0.5-0.6-1.2-1.1-1.9-1.5c-0.8-0.4-1.6-0.8-2.5-1.1c-0.9-0.3-1.7-0.7-2.5-1.2c-0.8-0.5-1.4-1.1-1.9-1.9c-0.5-0.8-0.8-1.8-0.8-3.1&#xA;		c0-0.9,0.2-1.8,0.5-2.5c0.3-0.8,0.8-1.4,1.4-2c0.6-0.6,1.4-1,2.3-1.3c0.9-0.3,1.9-0.5,3-0.5c1.1,0,2,0.1,2.7,0.4&#xA;		c0.8,0.3,1.5,0.6,2.2,1.2c-0.2,0.4-0.4,0.8-0.5,1.2c-0.1,0.4-0.3,1-0.4,1.6h-0.4c-0.1-0.3-0.3-0.6-0.4-1c-0.2-0.4-0.4-0.7-0.8-1&#xA;		c-0.3-0.3-0.7-0.6-1.1-0.8c-0.4-0.2-1-0.3-1.6-0.3c-0.6,0-1.2,0.1-1.7,0.3c-0.5,0.2-1,0.5-1.4,0.8c-0.4,0.4-0.7,0.8-0.9,1.3&#xA;		c-0.2,0.5-0.3,1.1-0.3,1.7c0,1,0.3,1.9,0.8,2.4c0.5,0.6,1.2,1.1,1.9,1.5c0.8,0.4,1.6,0.8,2.5,1.1c0.9,0.3,1.7,0.7,2.5,1.2&#xA;		c0.8,0.5,1.4,1.1,1.9,1.8c0.5,0.7,0.8,1.7,0.8,2.9c0,1-0.2,2-0.5,2.9c-0.4,0.9-0.9,1.7-1.6,2.4c-0.7,0.7-1.5,1.2-2.6,1.6&#xA;		c-1,0.4-2.1,0.5-3.4,0.5c-1.4,0-2.5-0.2-3.3-0.5c-0.9-0.4-1.6-0.8-2.1-1.2c0.2-0.5,0.3-1,0.4-1.4c0.1-0.4,0.1-0.9,0.2-1.6h0.4&#xA;		C205.2,121.4,205.4,121.8,205.7,122.2"/>
	<path id="XMLID_9_" class="st0" d="M221.3,106.8c-0.1-1.4-0.1-2.8-0.2-4.2c1,0,2,0.1,3,0.1c1,0,2,0,3,0s2,0,2.9,0&#xA;		c1,0,2-0.1,2.9-0.1c-0.1,0.3-0.1,0.7-0.1,1c0,0.3,0,0.7,0.1,1c-0.7,0-1.4-0.1-1.9-0.1c-0.6,0-1.2-0.1-1.9-0.1&#xA;		c-0.7,0-1.4-0.1-2.1-0.1c-0.8,0-1.7,0-2.8,0c0,0.7,0,1.4-0.1,2c0,0.6,0,1.4,0,2.2c0,0.9,0,1.7,0,2.5c0,0.8,0,1.4,0,1.9&#xA;		c1,0,1.8,0,2.6,0c0.8,0,1.5,0,2.1-0.1c0.6,0,1.2-0.1,1.8-0.1c0.5,0,1.1-0.1,1.5-0.1c-0.1,0.3-0.1,0.7-0.1,1c0,0.3,0,0.7,0.1,1&#xA;		c-0.6-0.1-1.2-0.1-2-0.2c-0.8,0-1.5-0.1-2.3-0.1c-0.8,0-1.5,0-2.2,0c-0.7,0-1.2,0-1.6,0c0,0.2,0,0.4,0,0.6c0,0.2,0,0.5,0,0.9v1.3v2&#xA;		c0,1.3,0,2.3,0,3.1c0,0.8,0,1.4,0.1,1.9h2.3c0.8,0,1.7,0,2.5,0c0.8,0,1.6-0.1,2.3-0.1c0.7-0.1,1.3-0.1,1.9-0.2&#xA;		c0,0.2-0.1,0.3-0.1,0.5c0,0.2,0,0.4,0,0.5c0,0.4,0,0.6,0.1,0.9c-1,0-2-0.1-3-0.1h-3h-3c-1,0-2,0-3,0.1c0.1-1.4,0.1-2.8,0.2-4.2&#xA;		c0.1-1.4,0.1-2.8,0.1-4.3v-5.7C221.4,109.6,221.4,108.2,221.3,106.8"/>
	<path id="XMLID_49_" class="st0" d="M236.5,106.8c-0.1-1.4-0.1-2.8-0.2-4.3c0.6,0,1.3,0.1,1.9,0.1c0.6,0,1.2,0,1.9,0&#xA;		c0.6,0,1.3,0,1.9-0.1c0.6-0.1,1.2-0.1,1.9-0.1c0.9,0,1.8,0.1,2.6,0.3c0.8,0.2,1.6,0.5,2.2,0.9c0.6,0.4,1.1,0.9,1.5,1.6&#xA;		c0.4,0.7,0.5,1.5,0.5,2.5c0,1.1-0.2,2-0.7,2.7c-0.5,0.8-1.1,1.4-1.7,1.9c-0.7,0.5-1.4,0.9-2.2,1.2c-0.8,0.3-1.5,0.5-2.1,0.5&#xA;		c0.3,0.3,0.6,0.8,1.1,1.4c0.5,0.6,1,1.3,1.6,2c0.6,0.7,1.2,1.5,1.8,2.3c0.6,0.8,1.2,1.5,1.8,2.3c0.6,0.7,1.1,1.4,1.6,2&#xA;		c0.5,0.6,0.9,1,1.2,1.4c-0.3,0-0.7-0.1-1-0.1h-1h-1c-0.3,0-0.7,0-1,0.1c-0.3-0.5-0.8-1.2-1.5-2.1c-0.7-0.9-1.4-1.9-2.2-3&#xA;		c-0.8-1.1-1.7-2.1-2.5-3.2c-0.9-1-1.6-1.9-2.3-2.7h-1.3v2.4c0,1.5,0,2.9,0.1,4.3c0.1,1.4,0.1,2.8,0.2,4.2c-0.5,0-1-0.1-1.6-0.1&#xA;		c-0.6,0-1.1,0-1.6,0.1c0.1-1.4,0.1-2.8,0.2-4.2c0.1-1.4,0.1-2.8,0.1-4.3v-5.7C236.6,109.6,236.5,108.2,236.5,106.8 M240.3,113.1&#xA;		c0.4,0,0.8,0,1.2,0c0.7,0,1.4-0.1,2.1-0.2c0.7-0.2,1.4-0.4,2-0.8c0.6-0.4,1.1-0.9,1.5-1.6c0.4-0.7,0.6-1.5,0.6-2.5&#xA;		c0-0.9-0.2-1.6-0.5-2.1c-0.3-0.6-0.7-1-1.2-1.3c-0.5-0.3-1.1-0.6-1.7-0.7c-0.6-0.1-1.2-0.2-1.8-0.2c-0.8,0-1.4,0-1.9,0&#xA;		c-0.5,0-0.9,0.1-1.3,0.1c0,1.2-0.1,2.4-0.1,3.6c0,1.2-0.1,2.4-0.1,3.6v1.9C239.6,113,239.9,113.1,240.3,113.1"/>
	<path id="XMLID_6_" class="st0" d="M260,120.6c-0.7-1.8-1.5-3.8-2.3-5.8c-0.8-2-1.7-4.1-2.6-6.2c-0.9-2.1-1.7-4.1-2.5-6&#xA;		c0.3,0,0.6,0.1,0.9,0.1c0.3,0,0.6,0,0.8,0c0.3,0,0.5,0,0.8,0c0.3,0,0.6-0.1,0.9-0.1c0.5,1.5,1,3,1.6,4.6c0.6,1.6,1.2,3.2,1.9,4.9&#xA;		c0.7,1.7,1.3,3.3,2,5c0.7,1.7,1.4,3.4,2.1,5.1c0.4-0.9,0.8-1.9,1.3-3c0.5-1.1,0.9-2.3,1.4-3.5c0.5-1.2,0.9-2.4,1.4-3.7&#xA;		c0.5-1.2,0.9-2.4,1.3-3.6c0.4-1.1,0.8-2.2,1.2-3.2c0.4-1,0.7-1.9,0.9-2.6c0.5,0.1,0.9,0.2,1.2,0.2c0.3,0,0.7-0.1,1.2-0.2&#xA;		c-1.7,3.8-3.4,7.7-5,11.4c-1.6,3.8-3.1,7.6-4.6,11.3c-0.4,0-0.7-0.1-1.1-0.1c-0.4,0-0.8,0-1.1,0.1C261.4,124,260.7,122.4,260,120.6"/>
	<path id="XMLID_5_" class="st0" d="M276.5,106.8c-0.1-1.4-0.1-2.8-0.2-4.3c0.3,0,0.6,0.1,0.8,0.1c0.3,0,0.5,0,0.8,0&#xA;		c0.3,0,0.5,0,0.8,0c0.3,0,0.5-0.1,0.8-0.1c-0.1,1.5-0.1,2.9-0.2,4.3c-0.1,1.4-0.1,2.8-0.1,4.3v5.7c0,1.5,0,2.9,0.1,4.3&#xA;		c0.1,1.4,0.1,2.8,0.2,4.2c-0.5,0-1-0.1-1.6-0.1c-0.6,0-1.1,0-1.6,0.1c0.1-1.4,0.1-2.8,0.2-4.2c0.1-1.4,0.1-2.8,0.1-4.3v-5.7&#xA;		C276.6,109.6,276.5,108.2,276.5,106.8"/>
	<path id="XMLID_4_" class="st0" d="M301.1,124.5c-0.4,0.2-1,0.4-1.6,0.6c-0.6,0.2-1.3,0.3-2,0.4c-0.8,0.1-1.5,0.2-2.4,0.2&#xA;		c-1.7,0-3.4-0.2-4.8-0.7c-1.5-0.5-2.8-1.3-3.8-2.3c-1.1-1-1.9-2.3-2.5-3.7c-0.6-1.5-0.9-3.1-0.9-5c0-1.9,0.3-3.5,0.9-5&#xA;		c0.6-1.5,1.5-2.7,2.6-3.7c1.1-1,2.4-1.8,3.9-2.3c1.5-0.5,3.2-0.8,5-0.8c1.5,0,2.8,0.1,4,0.4c1.2,0.3,2.3,0.7,3.2,1.1&#xA;		c-0.2,0.3-0.3,0.7-0.4,1.3c-0.1,0.5-0.2,1-0.3,1.3l-0.2,0.1c-0.2-0.3-0.5-0.6-0.9-0.9c-0.4-0.3-0.9-0.7-1.4-1&#xA;		c-0.5-0.3-1.1-0.6-1.8-0.8c-0.7-0.2-1.4-0.3-2.2-0.3c-1.3,0-2.5,0.2-3.6,0.6c-1.1,0.4-2.1,1.1-2.9,1.9c-0.8,0.9-1.5,2-1.9,3.3&#xA;		c-0.5,1.3-0.7,2.9-0.7,4.8c0,1.8,0.2,3.4,0.7,4.8c0.5,1.3,1.1,2.4,1.9,3.3c0.8,0.9,1.8,1.5,2.9,1.9c1.1,0.4,2.3,0.6,3.6,0.6&#xA;		c0.8,0,1.5-0.1,2.2-0.3c0.7-0.2,1.3-0.4,1.9-0.7c0.6-0.3,1.1-0.6,1.5-0.9c0.5-0.3,0.8-0.6,1.1-0.8l0.1,0.1l-0.3,2&#xA;		C301.8,124.1,301.5,124.3,301.1,124.5"/>
	<path id="XMLID_3_" class="st0" d="M305.8,106.8c-0.1-1.4-0.1-2.8-0.2-4.2c1,0,2,0.1,3,0.1c1,0,2,0,3,0s2,0,2.9,0&#xA;		c1,0,2-0.1,2.9-0.1c-0.1,0.3-0.1,0.7-0.1,1c0,0.3,0,0.7,0.1,1c-0.7,0-1.4-0.1-1.9-0.1c-0.6,0-1.2-0.1-1.9-0.1&#xA;		c-0.7,0-1.4-0.1-2.1-0.1c-0.8,0-1.7,0-2.8,0c0,0.7,0,1.4-0.1,2c0,0.6,0,1.4,0,2.2c0,0.9,0,1.7,0,2.5c0,0.8,0,1.4,0,1.9&#xA;		c1,0,1.8,0,2.6,0c0.8,0,1.5,0,2.1-0.1c0.6,0,1.2-0.1,1.8-0.1c0.5,0,1.1-0.1,1.5-0.1c-0.1,0.3-0.1,0.7-0.1,1c0,0.3,0,0.7,0.1,1&#xA;		c-0.6-0.1-1.2-0.1-2-0.2c-0.8,0-1.5-0.1-2.3-0.1c-0.8,0-1.5,0-2.2,0c-0.7,0-1.2,0-1.6,0c0,0.2,0,0.4,0,0.6c0,0.2,0,0.5,0,0.9v1.3v2&#xA;		c0,1.3,0,2.3,0,3.1c0,0.8,0,1.4,0.1,1.9h2.3c0.8,0,1.7,0,2.5,0c0.8,0,1.6-0.1,2.3-0.1c0.7-0.1,1.3-0.1,1.9-0.2&#xA;		c0,0.2-0.1,0.3-0.1,0.5c0,0.2,0,0.4,0,0.5c0,0.4,0,0.6,0.1,0.9c-1,0-2-0.1-3-0.1h-3h-3c-1,0-2,0-3,0.1c0.1-1.4,0.1-2.8,0.2-4.2&#xA;		c0.1-1.4,0.1-2.8,0.1-4.3v-5.7C305.9,109.6,305.8,108.2,305.8,106.8"/>
	<path id="XMLID_2_" class="st0" d="M321.8,122.2c0.3,0.4,0.7,0.8,1.1,1.1c0.4,0.3,0.9,0.6,1.5,0.8c0.6,0.2,1.2,0.3,1.9,0.3&#xA;		c0.7,0,1.4-0.1,2-0.4c0.6-0.3,1.1-0.6,1.5-1c0.4-0.4,0.7-0.9,0.9-1.5c0.2-0.6,0.3-1.2,0.3-1.9c0-1-0.3-1.8-0.8-2.4&#xA;		c-0.5-0.6-1.2-1.1-1.9-1.5c-0.8-0.4-1.6-0.8-2.5-1.1c-0.9-0.3-1.7-0.7-2.5-1.2c-0.8-0.5-1.4-1.1-1.9-1.9c-0.5-0.8-0.8-1.8-0.8-3.1&#xA;		c0-0.9,0.2-1.8,0.5-2.5s0.8-1.4,1.4-2c0.6-0.6,1.4-1,2.3-1.3c0.9-0.3,1.9-0.5,3-0.5c1.1,0,2,0.1,2.7,0.4c0.8,0.3,1.5,0.6,2.2,1.2&#xA;		c-0.2,0.4-0.4,0.8-0.5,1.2c-0.1,0.4-0.3,1-0.4,1.6h-0.4c-0.1-0.3-0.3-0.6-0.4-1c-0.2-0.4-0.4-0.7-0.8-1c-0.3-0.3-0.7-0.6-1.1-0.8&#xA;		c-0.4-0.2-1-0.3-1.6-0.3s-1.2,0.1-1.7,0.3c-0.5,0.2-1,0.5-1.4,0.8c-0.4,0.4-0.7,0.8-0.9,1.3c-0.2,0.5-0.3,1.1-0.3,1.7&#xA;		c0,1,0.3,1.9,0.8,2.4c0.5,0.6,1.2,1.1,1.9,1.5c0.8,0.4,1.6,0.8,2.5,1.1c0.9,0.3,1.7,0.7,2.5,1.2c0.8,0.5,1.4,1.1,1.9,1.8&#xA;		c0.5,0.7,0.8,1.7,0.8,2.9c0,1-0.2,2-0.5,2.9c-0.4,0.9-0.9,1.7-1.6,2.4c-0.7,0.7-1.5,1.2-2.5,1.6c-1,0.4-2.1,0.5-3.4,0.5&#xA;		c-1.4,0-2.5-0.2-3.3-0.5c-0.9-0.4-1.6-0.8-2.1-1.2c0.2-0.5,0.3-1,0.4-1.4c0.1-0.4,0.1-0.9,0.2-1.6h0.4&#xA;		C321.3,121.4,321.5,121.8,321.8,122.2"/>
</g>
</svg>