<svg id="Layer_1" data-name="Layer 1" xmlns="http://www.w3.org/2000/svg" viewBox="0 0 239.28 72.41"><defs><style>.cls-1{fill:#231f20;}.cls-2{fill:#0054a6;}.cls-3{fill:#ce2027;}</style></defs><g id="Ten-X-Logo"><path id="Ten-X" class="cls-1" d="M186.91,132.3v-2a22,22,0,0,1-2.39-.22,5.4,5.4,0,0,1-1.78-.57,2.59,2.59,0,0,1-1.12-1.15,4.11,4.11,0,0,1-.39-1.93h0V97.6H186a10.54,10.54,0,0,1,3.2.4,5.56,5.56,0,0,1,2.14,1.29,9.09,9.09,0,0,1,1.67,2.36c.51,1,1.1,2.19,1.77,3.62h1.76l-.81-10.15H161.55l-.81,10.15h1.76c.67-1.43,1.25-2.63,1.76-3.62a9.34,9.34,0,0,1,1.67-2.36A5.6,5.6,0,0,1,168.08,98a10.47,10.47,0,0,1,3.19-.4H176v28.79a4.24,4.24,0,0,1-.38,1.93,2.7,2.7,0,0,1-1.12,1.15,5.46,5.46,0,0,1-1.79.57,21.78,21.78,0,0,1-2.38.22h0v2Zm18.53.48a13.67,13.67,0,0,0,4.41-.64,11.54,11.54,0,0,0,3.24-1.69,9.53,9.53,0,0,0,2.19-2.36,10.48,10.48,0,0,0,1.22-2.6h0l-1.39-.62a11.15,11.15,0,0,1-3.19,2.62,10,10,0,0,1-5,1.14q-4.71,0-6.93-2.86a12.33,12.33,0,0,1-2.22-7.77h18.69v-1.33a11.68,11.68,0,0,0-.67-4,8.59,8.59,0,0,0-2-3.21,9.26,9.26,0,0,0-3.31-2.13,13,13,0,0,0-4.61-.76,12.82,12.82,0,0,0-5.05,1,11.45,11.45,0,0,0-4,2.84,13.18,13.18,0,0,0-2.62,4.39,16,16,0,0,0-1,5.69,13.64,13.64,0,0,0,.84,4.82,11.44,11.44,0,0,0,2.4,3.91,11.24,11.24,0,0,0,3.84,2.62A13.21,13.21,0,0,0,205.44,132.78Zm5.76-17.16H197.9a7.34,7.34,0,0,1,2.15-4.41,6.38,6.38,0,0,1,4.62-1.69,7.93,7.93,0,0,1,2.84.47,5.94,5.94,0,0,1,2.05,1.32,5.12,5.12,0,0,1,1.24,2,6.88,6.88,0,0,1,.4,2.36ZM227,106.56l-.24,4.67.33-.34a19.49,19.49,0,0,1,1.55-1.35A16.39,16.39,0,0,1,231,108a13.78,13.78,0,0,1,2.64-1.07,10,10,0,0,1,2.82-.41,11.49,11.49,0,0,1,3.21.43,6.47,6.47,0,0,1,2.51,1.38,6.6,6.6,0,0,1,1.64,2.43,9.54,9.54,0,0,1,.6,3.58h0V128a2.6,2.6,0,0,0,.28,1.09,1.93,1.93,0,0,0,.79.76,4.47,4.47,0,0,0,1.22.41c.47.09,1,.17,1.52.24h0v1.85H235.79v-1.85l.4,0,1.12-.19a4.59,4.59,0,0,0,1.22-.41,1.9,1.9,0,0,0,.78-.76,2.52,2.52,0,0,0,.29-1.31h0v-13a4.1,4.1,0,0,0-1.31-3.36,6.09,6.09,0,0,0-3.69-1,11.42,11.42,0,0,0-4.15.86,13.8,13.8,0,0,0-3.72,2.1h0V128A2.33,2.33,0,0,0,227,129a1.9,1.9,0,0,0,.78.76,4.59,4.59,0,0,0,1.22.41c.47.09,1,.17,1.52.24h0v1.85H218.15v-1.85l.4,0c.39-.06.77-.12,1.12-.19a4.47,4.47,0,0,0,1.22-.41,1.93,1.93,0,0,0,.79-.76,2.63,2.63,0,0,0,.28-1.31h0v-16l-3.57-1.67V109l6.91-2.39Zm29,4.91a.51.51,0,0,1,.52.16h0l5.81,7.49c.11.15.05.27-.13.27h-9.33a.52.52,0,0,1-.45-.32h0l-1.93-5.4a.35.35,0,0,1,.21-.44h0Zm16.49,20.83v-2c-.95,0-1.73,0-2.33-.1a5,5,0,0,1-1.41-.31,1.27,1.27,0,0,1-.67-.55,1.7,1.7,0,0,1-.16-.76,2.2,2.2,0,0,1,.43-1.38c.28-.38.63-.83,1-1.34h0l8.73-10.34,8.34,10.34c.41.51.76,1,1.05,1.34a2.2,2.2,0,0,1,.43,1.38,2,2,0,0,1-.14.76,1.14,1.14,0,0,1-.65.55,5.13,5.13,0,0,1-1.45.31c-.64.06-1.51.1-2.62.1h0v2H299.3v-2a5.81,5.81,0,0,1-2.67-.55,8.31,8.31,0,0,1-2.33-2.12h0l-12.4-15.4,10.39-12.35a8.88,8.88,0,0,1,2.36-2.12,5.57,5.57,0,0,1,2.65-.55h0v-2H283.76v2a25.5,25.5,0,0,1,2.62.1,4.87,4.87,0,0,1,1.46.31,1.11,1.11,0,0,1,.64.54,1.89,1.89,0,0,1,.14.77,2.2,2.2,0,0,1-.43,1.38c-.28.38-.63.83-1,1.33h0l-7,8.39-6.72-8.39c-.42-.5-.77-.95-1.05-1.33a2.2,2.2,0,0,1-.43-1.38,2.07,2.07,0,0,1,.14-.77,1.14,1.14,0,0,1,.64-.54,5,5,0,0,1,1.48-.31,25.72,25.72,0,0,1,2.6-.1h0v-2H260.5v2a5.64,5.64,0,0,1,2.69.55,8.38,8.38,0,0,1,2.31,2.12h0l10.78,13.44-12.06,14.31a8.77,8.77,0,0,1-2.48,2.09,6.29,6.29,0,0,1-2.82.58h0v2Z" transform="translate(-74.59 -73.48)"/></g><path class="cls-2" d="M82.47,130.65l-7.83-24.14a1.42,1.42,0,0,1,.43-1.43l12-9.41a.92.92,0,0,1,1.29.18l8.89,12.27a1.43,1.43,0,0,1,0,1.49l-14,21.15C83,131.18,82.64,131.13,82.47,130.65Z" transform="translate(-74.59 -73.48)"/><path class="cls-3" d="M122.06,145.15l-15.8-19.81a1.4,1.4,0,0,0-1.43-.43l-14.42,4.66a.91.91,0,0,0-.56,1.17L95.09,145a1.41,1.41,0,0,0,1.23.85H121.7C122.21,145.88,122.37,145.55,122.06,145.15Z" transform="translate(-74.59 -73.48)"/><path class="cls-3" d="M147.73,112.71,124,121.62a1.39,1.39,0,0,0-.85,1.22l0,15.15a.92.92,0,0,0,.94.9l15.21-.57a1.38,1.38,0,0,0,1.18-.9l7.86-24.14C148.47,112.79,148.2,112.54,147.73,112.71Z" transform="translate(-74.59 -73.48)"/><path class="cls-3" d="M124.81,78.28,126,103.59a1.4,1.4,0,0,0,.89,1.19l14.41,4.7a.92.92,0,0,0,1.15-.61l4.15-14.65a1.37,1.37,0,0,0-.49-1.4L125.53,77.89C125.12,77.6,124.8,77.77,124.81,78.28Z" transform="translate(-74.59 -73.48)"/><path class="cls-2" d="M85,89.43l24.43,6.74a1.41,1.41,0,0,0,1.41-.48l8.93-12.25a.93.93,0,0,0-.24-1.28l-12.64-8.48a1.41,1.41,0,0,0-1.49,0L84.83,88.62C84.42,88.92,84.49,89.29,85,89.43Z" transform="translate(-74.59 -73.48)"/><polygon class="cls-1" points="227.21 21.63 227.21 22.39 229.36 22.39 229.36 28.01 230.23 28.01 230.23 22.39 232.38 22.39 232.38 21.63 227.21 21.63"/><path class="cls-1" d="M307.74,101.49h.83V97.73c0-.16,0-.39,0-.71s0-.56,0-.72v-.19l1.84,5.38h.86l1.82-5.38c0,.34,0,.67,0,1s0,.52,0,.65v3.76h.83V95.11h-1.23l-1.82,5.39L309,95.11h-1.24Z" transform="translate(-74.59 -73.48)"/></svg>
