<?xml version="1.0" encoding="utf-8"?>
<!-- Generator: Adobe Illustrator 27.1.1, SVG Export Plug-In . SVG Version: 6.00 Build 0)  -->
<svg version="1.1" id="Layer_1" xmlns="http://www.w3.org/2000/svg" xmlns:xlink="http://www.w3.org/1999/xlink" x="0px" y="0px"
	 viewBox="0 0 360 360" style="enable-background:new 0 0 360 360;" xml:space="preserve">
<style type="text/css">
	.st0{clip-path:url(#SVGID_00000121252731745170830910000017096297625448741549_);}
	.st1{fill:#CCCCCC;}
	.st2{fill:#FFFFFF;}
	.st3{fill:#E9E1B4;}
	.st4{fill:#001351;}
	.st5{opacity:0.3;}
	.st6{fill:#231F20;}
	.st7{fill:none;stroke:#FFFFFF;stroke-width:0.5;stroke-miterlimit:10;}
	.st8{fill:none;stroke:#FFFFFF;stroke-width:0.25;stroke-miterlimit:10;}
	.st9{fill:none;stroke:#E9E1B4;stroke-width:0.25;stroke-miterlimit:10;}
	.st10{fill:none;stroke:#231F20;stroke-width:0.2353;stroke-miterlimit:10;}
	.st11{fill:none;stroke:#E9E1B4;stroke-width:0.4672;stroke-miterlimit:10;}
</style>
<g>
	<g>
		<rect x="0.2" y="0.4" class="st4" width="359.6" height="359.6"/>
	</g>
	<path class="st2" d="M150.2,129.4h7.8l-38.6,108L106,200.9l-13.3,36.5L54,129.4h7.8l31,87.7l9.4-26.3l-10.7-29.3h7.6l6.8,19l6.8-19
		h7.6l-10.7,29.3l9.4,26.3L150.2,129.4z M306,237.4h-7.9l-13.6-39.9h-31.1l-13.8,40.1l-7.9-0.2l37.2-108L306,237.4z M281.7,190.3
		l-13.1-37l-12.8,37H281.7z M169.5,237.8l50.9-0.1v-7.3h-43v-33.1h30.6V190h-30.6v-53.3h43v-7.3l-50.9,0.1V237.8z"/>
</g>
</svg>
